0
SECTION
2
HEADER
9
$INSUNITS
70
4
9
$ACADVER
1
AC1014
9
$HANDSEED
5
FFFF
0
ENDSEC
0
SECTION
2
TABLES
0
TABLE
2
VPORT
5
8
100
AcDbSymbolTable
0
ENDTAB
0
TABLE
2
LTYPE
5
5
100
AcDbSymbolTable
0
LTYPE
5
14
100
AcDbSymbolTableRecord
100
AcDbLinetypeTableRecord
2
BYBLOCK
70
0
0
LTYPE
5
15
100
AcDbSymbolTableRecord
100
AcDbLinetypeTableRecord
2
BYLAYER
70
0
0
ENDTAB
0
TABLE
2
LAYER
5
2
100
AcDbSymbolTable
70
2
0
LAYER
5
50
100
AcDbSymbolTableRecord
100
AcDbLayerTableRecord
2
0
70
0
6
CONTINUOUS
0
ENDTAB
0
TABLE
2
STYLE
5
3
100
AcDbSymbolTable
70
1
0
STYLE
5
11
100
AcDbSymbolTableRecord
100
AcDbTextStyleTableRecord
2
STANDARD
70
0
0
ENDTAB
0
TABLE
2
VIEW
5
6
100
AcDbSymbolTable
70
0
0
ENDTAB
0
TABLE
2
UCS
5
7
100
AcDbSymbolTable
70
0
0
ENDTAB
0
TABLE
2
APPID
5
9
100
AcDbSymbolTable
70
2
0
APPID
5
12
100
AcDbSymbolTableRecord
100
AcDbRegAppTableRecord
2
ACAD
70
0
0
ENDTAB
0
TABLE
2
DIMSTYLE
5
A
100
AcDbSymbolTable
70
1
0
ENDTAB
0
TABLE
2
BLOCK_RECORD
5
1
100
AcDbSymbolTable
70
1
0
BLOCK_RECORD
5
1F
100
AcDbSymbolTableRecord
100
AcDbBlockTableRecord
2
*MODEL_SPACE
0
BLOCK_RECORD
5
1B
100
AcDbSymbolTableRecord
100
AcDbBlockTableRecord
2
*PAPER_SPACE
0
ENDTAB
0
ENDSEC
0
SECTION
2
BLOCKS
0
BLOCK
5
20
100
AcDbEntity
100
AcDbBlockBegin
2
*MODEL_SPACE
0
ENDBLK
5
21
100
AcDbEntity
100
AcDbBlockEnd
0
BLOCK
5
1C
100
AcDbEntity
100
AcDbBlockBegin
2
*PAPER_SPACE
0
ENDBLK
5
1D
100
AcDbEntity
100
AcDbBlockEnd
0
ENDSEC
0
SECTION
2
ENTITIES
0
CIRCLE
5
100
100
AcDbEntity
8
0
100
AcDbCircle
10
269.67899999989902
20
3.0529999984428713
30
0
40
1.7500000000000071
210
0
220
0
230
1
0
LWPOLYLINE
5
101
100
AcDbEntity
8
0
100
AcDbPolyline
90
50
70
1
43
0.0
10
91.228999999898946
20
-95.197000001557157
10
194.52899999989896
20
-95.197000001557157
10
195.83963390615807
20
-100.43953562659348
42
0.34415073140892044
10
196.8097764063034
20
-101.19700000155717
10
203.24822359349454
20
-101.19700000155716
42
0.34415073140892044
10
204.21836609363987
20
-100.43953562659348
10
205.52899999989899
20
-95.197000001557157
10
264.17899999989902
20
-95.197000001557115
10
265.48963390615813
20
-100.43953562659345
42
0.34415073140892044
10
266.45977640630343
20
-101.19700000155714
10
272.89822359349455
20
-101.19700000155711
42
0.34415073140892044
10
273.86836609363991
20
-100.43953562659345
10
275.17899999989902
20
-95.197000001557115
10
283.75399999989895
20
-95.197000001557115
42
0.41421356237308982
10
285.75399999989895
20
-93.197000001557143
10
285.75399999989895
20
-1.9470000015571109
42
0.41421356237310836
10
283.75399999989895
20
0.052999998442866403
10
275.17899999989902
20
0.052999998442864182
10
273.86836609363991
20
5.2955356234791928
42
0.34415073140892044
10
272.89822359349455
20
6.0529999984428731
10
266.45977640630343
20
6.0529999984428606
42
0.34415073140892127
10
265.48963390615813
20
5.2955356234791893
10
264.17899999989902
20
0.052999998442864182
10
148.37899999989895
20
0.05299999844285086
10
147.06836609363984
20
5.2955356234791795
42
0.34415073140892044
10
146.09822359349451
20
6.0529999984428597
10
139.65977640630337
20
6.0529999984428473
42
0.34415073140891955
10
138.68963390615806
20
5.2955356234791786
10
137.37899999989892
20
0.05299999844285086
10
21.578999999898905
20
0.052999998442864182
10
20.268366093639791
20
5.2955356234791928
42
0.34415073140892044
10
19.298223593494477
20
6.0529999984428731
10
12.859776406303318
20
6.0529999984428606
42
0.34415073140892044
10
11.889633906158018
20
5.2955356234791893
10
10.57899999989889
20
0.052999998442864182
10
2.0039999998989089
20
0.052999998442837537
42
0.41421356237309243
10
0.0039999998989265206
20
-1.9470000015571682
10
0.0039999998989515007
20
-93.197000001557186
42
0.41421356237309986
10
2.0039999998989417
20
-95.197000001557157
10
10.57899999989889
20
-95.197000001557115
10
11.889633906158004
20
-100.43953562659345
42
0.34415073140892044
10
12.859776406303318
20
-101.19700000155714
10
19.298223593494477
20
-101.19700000155711
42
0.34415073140891955
10
20.268366093639777
20
-100.43953562659345
10
21.578999999898905
20
-95.197000001557115
10
80.228999999898917
20
-95.197000001557157
10
81.539633906158031
20
-100.43953562659348
42
0.34415073140891922
10
82.509776406303331
20
-101.19700000155716
10
88.948223593494532
20
-101.19700000155716
42
0.34415073140891922
10
89.918366093639833
20
-100.43953562659348
0
LWPOLYLINE
5
102
100
AcDbEntity
8
0
100
AcDbPolyline
90
8
70
1
43
0.0
10
280.34774999989895
20
-54.572000001557143
42
0.41421356237304818
10
280.84774999989884
20
-54.072000001557129
10
280.84774999989884
20
-41.072000001557136
42
0.41421356237301177
10
280.34774999989895
20
-40.572000001557115
10
262.58524999989896
20
-40.572000001557115
42
0.41421356237311063
10
262.08524999989896
20
-41.072000001557136
10
262.08524999989902
20
-54.072000001557129
42
0.41421356237316787
10
262.58524999989896
20
-54.57200000155715
0
LWPOLYLINE
5
103
100
AcDbEntity
8
0
100
AcDbPolyline
90
8
70
1
43
0.0
10
126.35399999989897
20
-73.122000001557154
10
126.35399999989893
20
-60.122000001557154
42
-0.4142135623730534
10
126.85399999989892
20
-59.62200000155714
10
139.85399999989895
20
-59.622000001557147
42
-0.41421356237308982
10
140.35399999989895
20
-60.122000001557147
10
140.35399999989895
20
-73.122000001557154
42
-0.4142135623731002
10
139.85399999989895
20
-73.62200000155714
10
126.85399999989897
20
-73.622000001557183
42
-0.41421356237308982
0
LWPOLYLINE
5
104
100
AcDbEntity
8
0
100
AcDbPolyline
90
8
70
1
43
0.0
10
254.1539999998989
20
-73.622000001557126
10
241.1539999998989
20
-73.622000001557154
42
-0.41421356237307422
10
240.65399999989893
20
-73.12200000155714
10
240.65399999989899
20
-60.12200000155714
42
-0.4142135623731471
10
241.1539999998989
20
-59.62200000155714
10
254.1539999998989
20
-59.622000001557119
42
-0.4142135623731002
10
254.65399999989899
20
-60.12200000155714
10
254.65399999989899
20
-73.12200000155714
42
-0.41421356237303264
0
LWPOLYLINE
5
105
100
AcDbEntity
8
0
100
AcDbPolyline
90
8
70
1
43
0.0
10
136.37899999989895
20
-78.67200000155718
10
149.37899999989898
20
-78.67200000155718
42
-0.41421356237312629
10
149.87899999989901
20
-79.172000001557166
10
149.87899999989901
20
-92.172000001557166
42
-0.41421356237306384
10
149.37899999989898
20
-92.672000001557166
10
136.37899999989895
20
-92.672000001557166
42
-0.41421356237316787
10
135.87899999989895
20
-92.172000001557166
10
135.87899999989898
20
-79.172000001557166
42
-0.41421356237308465
0
LWPOLYLINE
5
106
100
AcDbEntity
8
0
100
AcDbPolyline
90
8
70
1
43
0.0
10
164.95399999989888
20
-59.622000001557119
42
0.41421356237311063
10
164.45399999989894
20
-60.122000001557147
10
164.45399999989894
20
-73.122000001557154
42
0.41421356237316787
10
164.95399999989897
20
-73.622000001557154
10
177.953999999899
20
-73.622000001557112
42
0.41421356237303264
10
178.45399999989894
20
-73.122000001557154
10
178.45399999989894
20
-60.122000001557147
42
0.41421356237313667
10
177.95399999989894
20
-59.622000001557147
0
LWPOLYLINE
5
107
100
AcDbEntity
8
0
100
AcDbPolyline
90
8
70
1
43
0.0
10
31.10399999989891
20
-73.122000001557183
10
31.103999999898939
20
-60.122000001557169
42
-0.41421356237310802
10
31.603999999898921
20
-59.622000001557176
10
44.603999999898925
20
-59.622000001557147
42
-0.41421356237312101
10
45.103999999898946
20
-60.122000001557161
10
45.103999999898932
20
-73.122000001557169
42
-0.41421356237311063
10
44.603999999898932
20
-73.622000001557154
10
31.603999999898917
20
-73.622000001557211
42
-0.41421356237308465
0
LWPOLYLINE
5
108
100
AcDbEntity
8
0
100
AcDbPolyline
90
8
70
1
43
0.0
10
231.62899999989889
20
-78.672000001557166
42
0.41421356237313145
10
231.12899999989889
20
-79.172000001557166
10
231.12899999989884
20
-92.172000001557123
42
0.41421356237308465
10
231.62899999989889
20
-92.672000001557123
10
244.62899999989898
20
-92.672000001557109
42
0.41421356237309509
10
245.12899999989895
20
-92.172000001557123
10
245.12899999989895
20
-79.172000001557166
42
0.41421356237299095
10
244.62899999989895
20
-78.672000001557137
0
LWPOLYLINE
5
109
100
AcDbEntity
8
0
100
AcDbPolyline
90
8
70
1
43
0.0
10
149.37899999989892
20
-16.472000001557163
10
136.37899999989898
20
-16.472000001557181
42
-0.41421356237305862
10
135.87899999989895
20
-15.972000001557165
10
135.87899999989898
20
-2.9720000015571468
42
-0.41421356237305962
10
136.37899999989895
20
-2.4720000015571402
10
149.37899999989892
20
-2.4720000015571522
42
-0.41421356237311779
10
149.87899999989901
20
-2.9720000015571446
10
149.87899999989892
20
-15.972000001557163
42
-0.4142135623731002
0
LWPOLYLINE
5
110
100
AcDbEntity
8
0
100
AcDbPolyline
90
8
70
1
43
0.0
10
264.96649999989893
20
-59.62200000155714
42
0.41421356237316787
10
264.46649999989893
20
-60.12200000155714
10
264.46649999989893
20
-73.12200000155714
42
0.41421356237315754
10
264.96649999989893
20
-73.622000001557126
10
277.96649999989893
20
-73.622000001557126
42
0.41421356237312629
10
278.46649999989899
20
-73.12200000155714
10
278.46649999989899
20
-60.12200000155714
42
0.41421356237309509
10
277.96649999989893
20
-59.622000001557154
0
LWPOLYLINE
5
111
100
AcDbEntity
8
0
100
AcDbPolyline
90
8
70
1
43
0.0
10
145.40399999989899
20
-73.122000001557154
42
0.414213562373069
10
145.90399999989896
20
-73.622000001557154
10
158.90399999989896
20
-73.62200000155714
42
0.4142135623731002
10
159.40399999989896
20
-73.122000001557154
10
159.40399999989896
20
-60.122000001557147
42
0.41421356237308982
10
158.90399999989896
20
-59.622000001557147
10
145.90399999989896
20
-59.62200000155714
42
0.41421356237310542
10
145.40399999989901
20
-60.122000001557147
0
LWPOLYLINE
5
112
100
AcDbEntity
8
0
100
AcDbPolyline
90
8
70
1
43
0.0
10
183.50399999989887
20
-73.122000001557154
10
183.50399999989887
20
-60.122000001557147
42
-0.41421356237317308
10
184.00399999989895
20
-59.622000001557147
10
197.00399999989898
20
-59.622000001557097
42
-0.41421356237305862
10
197.50399999989895
20
-60.122000001557147
10
197.50399999989895
20
-73.12200000155714
42
-0.41421356237316787
10
197.00399999989895
20
-73.62200000155714
10
184.00399999989895
20
-73.622000001557126
42
-0.41421356237303264
0
LWPOLYLINE
5
113
100
AcDbEntity
8
0
100
AcDbPolyline
90
8
70
1
43
0.0
10
82.703999999898912
20
-73.622000001557169
42
0.41421356237312101
10
83.203999999898912
20
-73.122000001557154
10
83.20399999989894
20
-60.122000001557154
42
0.41421356237310542
10
82.703999999898912
20
-59.622000001557147
10
69.703999999898912
20
-59.622000001557176
42
0.41421356237311063
10
69.20399999989894
20
-60.122000001557161
10
69.203999999898912
20
-73.122000001557169
42
0.41421356237307944
10
69.703999999898912
20
-73.622000001557183
0
LWPOLYLINE
5
114
100
AcDbEntity
8
0
100
AcDbPolyline
90
8
70
1
43
0.0
10
54.128999999898966
20
-92.67200000155718
42
0.41421356237303264
10
54.628999999898973
20
-92.172000001557166
10
54.628999999898966
20
-79.172000001557194
42
0.4142135623731471
10
54.12899999989893
20
-78.672000001557166
10
41.12899999989893
20
-78.672000001557194
42
0.41421356237309509
10
40.628999999898952
20
-79.172000001557194
10
40.628999999898952
20
-92.172000001557166
42
0.4142135623731002
10
41.128999999898923
20
-92.67200000155718
0
LWPOLYLINE
5
115
100
AcDbEntity
8
0
100
AcDbPolyline
90
8
70
1
43
0.0
10
50.653999999898936
20
-59.622000001557176
42
0.41421356237311063
10
50.153999999898957
20
-60.122000001557161
10
50.153999999898943
20
-73.122000001557169
42
0.41421356237307944
10
50.653999999898929
20
-73.622000001557183
10
63.653999999898936
20
-73.622000001557154
42
0.41421356237309509
10
64.153999999898943
20
-73.122000001557169
10
64.153999999898957
20
-60.122000001557161
42
0.4142135623731002
10
63.653999999898936
20
-59.622000001557147
0
LWPOLYLINE
5
116
100
AcDbEntity
8
0
100
AcDbPolyline
90
8
70
1
43
0.0
10
88.253999999898952
20
-73.122000001557154
10
88.253999999898909
20
-60.122000001557154
42
-0.4142135623730534
10
88.753999999898895
20
-59.62200000155714
10
101.75399999989892
20
-59.62200000155714
42
-0.41421356237307944
10
102.25399999989897
20
-60.122000001557154
10
102.25399999989892
20
-73.122000001557154
42
-0.41421356237312101
10
101.75399999989892
20
-73.622000001557169
10
88.753999999898923
20
-73.622000001557154
42
-0.41421356237302742
0
LWPOLYLINE
5
117
100
AcDbEntity
8
0
100
AcDbPolyline
90
8
70
1
43
0.0
10
216.05399999989902
20
-73.622000001557126
42
0.41421356237309509
10
216.55399999989902
20
-73.12200000155714
10
216.55399999989902
20
-60.122000001557147
42
0.41421356237308465
10
216.05399999989899
20
-59.62200000155714
10
203.05399999989888
20
-59.622000001557112
42
0.41421356237302742
10
202.55399999989891
20
-60.122000001557147
10
202.55399999989893
20
-73.12200000155714
42
0.414213562373069
10
203.05399999989888
20
-73.622000001557154
0
LWPOLYLINE
5
118
100
AcDbEntity
8
0
100
AcDbPolyline
90
20
70
1
43
0.0
10
249.38474999989893
20
-19.522000001557146
42
0.41421356237312629
10
248.88474999989893
20
-20.022000001557132
10
248.88474999989893
20
-21.522000001557132
10
245.57274999989886
20
-21.522000001557092
42
0.41421356237302998
10
245.07274999989889
20
-22.022000001557132
10
245.07274999989892
20
-35.022000001557132
42
0.4142135623730977
10
245.57274999989886
20
-35.522000001557132
10
280.34774999989895
20
-35.522000001557146
42
0.4142135623730534
10
280.84774999989889
20
-35.022000001557124
10
280.84774999989889
20
-22.022000001557132
42
0.41421356237307944
10
280.34774999989895
20
-21.522000001557124
10
279.76074999989885
20
-21.522000001557132
10
279.76074999989896
20
-20.022000001557124
42
0.4142135623731471
10
279.26074999989896
20
-19.522000001557124
10
273.26074999989885
20
-19.522000001557092
42
0.41421356237302742
10
272.76074999989885
20
-20.022000001557132
10
272.76074999989885
20
-21.522000001557132
10
255.88474999989893
20
-21.522000001557132
10
255.88474999989887
20
-20.022000001557132
42
0.41421356237318868
10
255.3847499998989
20
-19.522000001557124
0
LWPOLYLINE
5
119
100
AcDbEntity
8
0
100
AcDbPolyline
90
8
70
1
43
0.0
10
125.56649999989894
20
-35.522000001557146
42
0.41421356237310802
10
126.06649999989898
20
-35.02200000155716
10
126.06649999989897
20
-22.022000001557164
42
0.4142135623731002
10
125.56649999989894
20
-21.522000001557156
10
112.56649999989892
20
-21.522000001557167
42
0.41421356237311063
10
112.06649999989892
20
-22.022000001557164
10
112.06649999989892
20
-35.02200000155716
42
0.41421356237309243
10
112.56649999989892
20
-35.522000001557153
0
LWPOLYLINE
5
120
100
AcDbEntity
8
0
100
AcDbPolyline
90
8
70
1
43
0.0
10
217.34149999989899
20
-2.4720000015571268
42
0.41421356237314738
10
216.84149999989901
20
-2.9720000015571313
10
216.84149999989899
20
-15.972000001557147
42
0.41421356237313667
10
217.34149999989899
20
-16.472000001557163
10
230.34149999989893
20
-16.472000001557142
42
0.41421356237309637
10
230.84149999989887
20
-15.972000001557145
10
230.8414999998989
20
-2.9720000015571313
42
0.41421356237302903
10
230.34149999989893
20
-2.4720000015570953
0
LWPOLYLINE
5
121
100
AcDbEntity
8
0
100
AcDbPolyline
90
8
70
1
43
0.0
10
73.966499999898929
20
-35.02200000155716
10
73.966499999898929
20
-22.022000001557171
42
-0.41421356237309509
10
74.466499999898943
20
-21.522000001557167
10
87.466499999898957
20
-21.52200000155716
42
-0.41421356237304557
10
87.966499999898943
20
-22.022000001557171
10
87.966499999898943
20
-35.02200000155716
42
-0.41421356237305862
10
87.466499999898957
20
-35.52200000155716
10
74.466499999898943
20
-35.52200000155716
42
-0.41421356237309243
0
LWPOLYLINE
5
122
100
AcDbEntity
8
0
100
AcDbPolyline
90
8
70
1
43
0.0
10
197.79149999989883
20
-54.07200000155715
10
197.79149999989883
20
-41.072000001557136
42
-0.4142135623731471
10
198.29149999989886
20
-40.572000001557157
10
211.29149999989892
20
-40.572000001557164
42
-0.41421356237313667
10
211.79149999989903
20
-41.072000001557136
10
211.79149999989903
20
-54.07200000155715
42
-0.41421356237315754
10
211.29149999989892
20
-54.572000001557143
10
198.29149999989886
20
-54.57200000155715
42
-0.41421356237311063
0
LWPOLYLINE
5
123
100
AcDbEntity
8
0
100
AcDbPolyline
90
8
70
1
43
0.0
10
178.74149999989893
20
-54.07200000155715
42
0.4142135623731002
10
179.24149999989891
20
-54.572000001557129
10
192.24149999989891
20
-54.572000001557122
42
0.41421356237312101
10
192.74149999989902
20
-54.07200000155715
10
192.74149999989902
20
-41.072000001557136
42
0.41421356237315754
10
192.24149999989891
20
-40.572000001557129
10
179.24149999989891
20
-40.572000001557129
42
0.41421356237307422
10
178.74149999989893
20
-41.072000001557136
0
LWPOLYLINE
5
124
100
AcDbEntity
8
0
100
AcDbPolyline
90
8
70
1
43
0.0
10
93.51649999989894
20
-21.522000001557167
42
0.41421356237306645
10
93.016499999898926
20
-22.022000001557164
10
93.016499999898926
20
-35.02200000155716
42
0.41421356237305862
10
93.516499999898912
20
-35.522000001557153
10
106.51649999989893
20
-35.522000001557146
42
0.41421356237310542
10
107.01649999989894
20
-35.02200000155716
10
107.01649999989894
20
-22.022000001557164
42
0.41421356237312884
10
106.51649999989893
20
-21.52200000155716
0
LWPOLYLINE
5
125
100
AcDbEntity
8
0
100
AcDbPolyline
90
8
70
1
43
0.0
10
183.2164999998989
20
-22.02200000155716
42
0.41421356237310281
10
182.7164999998989
20
-21.522000001557139
10
169.71649999989896
20
-21.52200000155716
42
0.41421356237316787
10
169.21649999989896
20
-22.022000001557164
10
169.21649999989896
20
-35.022000001557146
42
0.41421356237313928
10
169.71649999989896
20
-35.522000001557146
10
182.7164999998989
20
-35.522000001557132
42
0.41421356237300916
10
183.2164999998989
20
-35.022000001557146
0
LWPOLYLINE
5
126
100
AcDbEntity
8
0
100
AcDbPolyline
90
8
70
1
43
0.0
10
7.7914999998989387
20
-2.472000001557161
42
0.41421356237309148
10
7.2914999998989316
20
-2.9720000015571668
10
7.2914999998989405
20
-15.972000001557181
42
0.41421356237308854
10
7.7914999998989387
20
-16.472000001557188
10
20.791499999898949
20
-16.472000001557177
42
0.41421356237310675
10
21.291499999898953
20
-15.972000001557181
10
21.29149999989896
20
-2.9720000015571646
42
0.41421356237311002
10
20.791499999898946
20
-2.4720000015571575
0
LWPOLYLINE
5
127
100
AcDbEntity
8
0
100
AcDbPolyline
90
8
70
1
43
0.0
10
96.991499999898963
20
-54.572000001557157
10
83.991499999898949
20
-54.572000001557171
42
-0.4142135623731002
10
83.491499999898934
20
-54.072000001557157
10
83.491499999898934
20
-41.07200000155715
42
-0.41421356237310542
10
83.991499999898949
20
-40.572000001557171
10
96.991499999898963
20
-40.572000001557136
42
-0.41421356237312101
10
97.491499999898963
20
-41.07200000155715
10
97.491499999898963
20
-54.072000001557157
42
-0.41421356237309509
0
LWPOLYLINE
5
128
100
AcDbEntity
8
0
100
AcDbPolyline
90
8
70
1
43
0.0
10
44.603999999898925
20
-16.47200000155717
10
31.603999999898917
20
-16.472000001557184
42
-0.41421356237308327
10
31.103999999898928
20
-15.972000001557181
10
31.103999999898925
20
-2.9720000015571646
42
-0.41421356237308982
10
31.603999999898921
20
-2.4720000015571575
10
44.603999999898925
20
-2.472000001557153
42
-0.41421356237311135
10
45.103999999898939
20
-2.972000001557161
10
45.103999999898932
20
-15.972000001557181
42
-0.41421356237310414
0
LWPOLYLINE
5
129
100
AcDbEntity
8
0
100
AcDbPolyline
90
8
70
1
43
0.0
10
269.72899999989897
20
-78.672000001557166
42
0.41421356237313145
10
269.22899999989897
20
-79.172000001557166
10
269.22899999989897
20
-92.172000001557123
42
0.41421356237308465
10
269.72899999989897
20
-92.672000001557123
10
282.72899999989897
20
-92.672000001557123
42
0.41421356237309509
10
283.22899999989897
20
-92.172000001557123
10
283.22899999989897
20
-79.172000001557166
42
0.41421356237308465
10
282.72899999989897
20
-78.672000001557137
0
LWPOLYLINE
5
130
100
AcDbEntity
8
0
100
AcDbPolyline
90
8
70
1
43
0.0
10
130.32899999989894
20
-92.672000001557166
10
117.32899999989897
20
-92.672000001557166
42
-0.41421356237311585
10
116.82899999989894
20
-92.172000001557166
10
116.82899999989897
20
-79.172000001557166
42
-0.41421356237312101
10
117.32899999989897
20
-78.672000001557166
10
130.32899999989894
20
-78.67200000155718
42
-0.41421356237312629
10
130.82899999989894
20
-79.172000001557166
10
130.82899999989894
20
-92.172000001557166
42
-0.41421356237306384
0
LWPOLYLINE
5
131
100
AcDbEntity
8
0
100
AcDbPolyline
90
20
70
1
43
0.0
10
11.259749999898894
20
-19.522000001557174
10
17.259749999898908
20
-19.52200000155716
42
-0.41421356237310542
10
17.759749999898926
20
-20.022000001557171
10
17.759749999898915
20
-21.522000001557178
10
34.635749999898948
20
-21.522000001557178
10
34.635749999898962
20
-20.022000001557174
42
-0.41421356237309509
10
35.135749999898962
20
-19.522000001557167
10
41.135749999898934
20
-19.52200000155716
42
-0.41421356237309243
10
41.635749999898962
20
-20.02200000155716
10
41.635749999898941
20
-21.522000001557174
10
42.22249999989895
20
-21.522000001557167
42
-0.41421356237312362
10
42.722499999898972
20
-22.022000001557171
10
42.722499999898965
20
-35.022000001557174
42
-0.41421356237307422
10
42.222499999898972
20
-35.522000001557153
10
3.0289999998989003
20
-35.522000001557174
42
-0.41421356237308299
10
2.5289999998989083
20
-35.022000001557174
10
2.5289999998989119
20
-22.022000001557185
42
-0.4142135623730957
10
3.0289999998989026
20
-21.522000001557178
10
10.759749999898922
20
-21.522000001557178
10
10.759749999898911
20
-20.022000001557174
42
-0.41421356237309109
0
LWPOLYLINE
5
132
100
AcDbEntity
8
0
100
AcDbPolyline
90
8
70
1
43
0.0
10
263.67899999989896
20
-92.672000001557123
42
0.41421356237309509
10
264.17899999989902
20
-92.172000001557123
10
264.17899999989902
20
-79.172000001557166
42
0.41421356237308465
10
263.67899999989896
20
-78.672000001557137
10
250.67899999989888
20
-78.672000001557137
42
0.4142135623731002
10
250.17899999989893
20
-79.172000001557166
10
250.17899999989893
20
-92.172000001557123
42
0.41421356237307422
10
250.67899999989891
20
-92.672000001557123
0
LWPOLYLINE
5
133
100
AcDbEntity
8
0
100
AcDbPolyline
90
42
70
1
43
0.0
10
5.9972499998989193
20
-41.877164943411493
10
5.9972499998989264
20
-39.072000001557178
42
-0.41421356237309637
10
6.4972499998989264
20
-38.572000001557171
10
12.497249999898941
20
-38.572000001557157
42
-0.41421356237309892
10
12.997249999898949
20
-39.072000001557171
10
12.997249999898912
20
-41.659000001557175
10
14.4352499998989
20
-41.659000001557175
10
14.435249999898875
20
-41.072000001557171
42
-0.4142135623730937
10
14.935249999898872
20
-40.572000001557171
10
29.873249999898874
20
-40.572000001557171
10
29.873249999898924
20
-39.072000001557157
42
-0.41421356237309509
10
30.37324999989892
20
-38.572000001557157
10
36.37324999989886
20
-38.57200000155715
42
-0.41421356237308982
10
36.873249999898867
20
-39.072000001557157
10
36.873249999898903
20
-40.572000001557171
10
40.185249999898929
20
-40.572000001557164
42
-0.41421356237311585
10
40.685249999898943
20
-41.072000001557157
10
40.685249999898929
20
-54.072000001557178
42
-0.41421356237309509
10
40.185249999898929
20
-54.572000001557171
10
18.910249999898952
20
-54.572000001557171
10
18.910249999898952
20
-59.622000001557183
10
20.791499999898875
20
-59.622000001557176
42
-0.4142135623730977
10
21.291499999898878
20
-60.122000001557169
10
21.291499999898875
20
-73.122000001557169
42
-0.41421356237308465
10
20.791499999898875
20
-73.622000001557169
10
7.7914999998989032
20
-73.622000001557183
42
-0.41421356237308982
10
7.2914999998988943
20
-73.122000001557183
10
7.2914999998988606
20
-72.535000001557194
10
6.410249999898916
20
-72.535000001557194
42
-0.41421356237308526
10
5.9102499998989275
20
-72.035000001557165
10
5.9102499998989373
20
-66.035000001557179
42
-0.4142135623730781
10
6.4102499998989249
20
-65.535000001557194
10
7.2914999998988606
20
-65.535000001557194
10
7.2914999998988606
20
-64.097000001557177
10
5.4102499998989373
20
-64.097000001557177
42
-0.41421356237308915
10
4.9102499998989488
20
-63.597000001557184
10
4.9102499998989524
20
-50.597000001557184
42
-0.41421356237308593
10
5.4102499998989444
20
-50.097000001557177
10
5.9972499998988837
20
-50.097000001557177
10
5.997249999898953
20
-48.440835059702927
42
-0.15083409114180568
10
5.9102499998989222
20
-48.159000001557182
10
5.9102499998989311
20
-42.159000001557196
42
-0.15083409114175253
0
LWPOLYLINE
5
134
100
AcDbEntity
8
0
100
AcDbPolyline
90
8
70
1
43
0.0
10
168.92899999989891
20
-79.172000001557166
42
0.41421356237309509
10
168.42899999989893
20
-78.672000001557194
10
155.42899999989893
20
-78.672000001557166
42
0.41421356237311585
10
154.92899999989902
20
-79.172000001557166
10
154.92899999989896
20
-92.172000001557166
42
0.41421356237316787
10
155.42899999989896
20
-92.672000001557166
10
168.42899999989893
20
-92.672000001557095
42
0.41421356237311585
10
168.92899999989891
20
-92.172000001557123
0
LWPOLYLINE
5
135
100
AcDbEntity
8
0
100
AcDbPolyline
90
8
70
1
43
0.0
10
59.678999999898963
20
-92.172000001557166
10
59.678999999898956
20
-79.172000001557194
42
-0.41421356237311063
10
60.178999999898942
20
-78.672000001557208
10
73.178999999898934
20
-78.672000001557166
42
-0.4142135623731002
10
73.678999999898949
20
-79.172000001557194
10
73.678999999898991
20
-92.172000001557166
42
-0.41421356237311585
10
73.178999999898949
20
-92.67200000155718
10
60.17899999989897
20
-92.67200000155718
42
-0.41421356237313667
0
LWPOLYLINE
5
136
100
AcDbEntity
8
0
100
AcDbPolyline
90
8
70
1
43
0.0
10
68.916499999898974
20
-2.9720000015571557
10
68.916499999898946
20
-15.972000001557172
42
-0.41421356237310153
10
68.416499999898946
20
-16.472000001557163
10
55.416499999898932
20
-16.472000001557188
42
-0.41421356237309243
10
54.916499999898932
20
-15.972000001557177
10
54.916499999898932
20
-2.9720000015571557
42
-0.41421356237308915
10
55.416499999898932
20
-2.4720000015571522
10
68.416499999898946
20
-2.4720000015571348
42
-0.41421356237312401
0
LWPOLYLINE
5
137
100
AcDbEntity
8
0
100
AcDbPolyline
90
8
70
1
43
0.0
10
160.19149999989901
20
-40.572000001557129
42
0.41421356237309509
10
159.69149999989898
20
-41.072000001557136
10
159.69149999989898
20
-54.07200000155715
42
0.41421356237309509
10
160.19149999989901
20
-54.57200000155715
10
173.19149999989892
20
-54.572000001557164
42
0.41421356237307944
10
173.69149999989898
20
-54.07200000155715
10
173.69149999989895
20
-41.072000001557136
42
0.41421356237310542
10
173.19149999989892
20
-40.572000001557129
0
LWPOLYLINE
5
138
100
AcDbEntity
8
0
100
AcDbPolyline
90
8
70
1
43
0.0
10
174.47899999989892
20
-78.672000001557166
42
0.41421356237313145
10
173.97899999989892
20
-79.172000001557166
10
173.97899999989889
20
-92.172000001557123
42
0.41421356237308465
10
174.47899999989892
20
-92.672000001557123
10
187.47899999989895
20
-92.672000001557095
42
0.41421356237311585
10
187.97899999989892
20
-92.172000001557123
10
187.97899999989895
20
-79.172000001557166
42
0.4142135623730534
10
187.47899999989895
20
-78.672000001557137
0
LWPOLYLINE
5
139
100
AcDbEntity
8
0
100
AcDbPolyline
90
8
70
1
43
0.0
10
236.39149999989894
20
-40.572000001557115
42
0.41421356237311063
10
235.89149999989894
20
-41.072000001557136
10
235.89149999989894
20
-54.07200000155715
42
0.4142135623731471
10
236.39149999989894
20
-54.572000001557157
10
249.39149999989894
20
-54.572000001557143
42
0.41421356237304818
10
249.89149999989891
20
-54.072000001557129
10
249.89149999989888
20
-41.072000001557136
42
0.41421356237301177
10
249.39149999989894
20
-40.572000001557115
0
LWPOLYLINE
5
140
100
AcDbEntity
8
0
100
AcDbPolyline
90
8
70
1
43
0.0
10
188.76649999989891
20
-21.522000001557156
42
0.41421356237308204
10
188.26649999989888
20
-22.02200000155716
10
188.26649999989894
20
-35.022000001557146
42
0.41421356237311846
10
188.76649999989891
20
-35.522000001557117
10
201.76649999989891
20
-35.522000001557132
42
0.41421356237310802
10
202.26649999989894
20
-35.022000001557132
10
202.26649999989891
20
-22.022000001557146
42
0.41421356237310281
10
201.76649999989891
20
-21.522000001557124
0
LWPOLYLINE
5
141
100
AcDbEntity
8
0
100
AcDbPolyline
90
8
70
1
43
0.0
10
77.941499999898952
20
-54.572000001557157
10
64.94149999989898
20
-54.572000001557171
42
-0.41421356237310542
10
64.441499999898952
20
-54.072000001557178
10
64.441499999898952
20
-41.072000001557157
42
-0.41421356237308982
10
64.941499999898952
20
-40.572000001557171
10
77.941499999898952
20
-40.572000001557129
42
-0.41421356237310542
10
78.441499999898952
20
-41.07200000155715
10
78.441499999898952
20
-54.072000001557157
42
-0.41421356237307944
0
LWPOLYLINE
5
142
100
AcDbEntity
8
0
100
AcDbPolyline
90
8
70
1
43
0.0
10
59.391499999898976
20
-41.072000001557157
10
59.391499999898947
20
-54.072000001557178
42
-0.41421356237307944
10
58.89149999989894
20
-54.572000001557171
10
45.891499999898926
20
-54.572000001557171
42
-0.41421356237310542
10
45.391499999898947
20
-54.072000001557178
10
45.391499999898947
20
-41.072000001557157
42
-0.41421356237308465
10
45.891499999898933
20
-40.572000001557171
10
58.891499999898933
20
-40.572000001557143
42
-0.41421356237313145
0
LWPOLYLINE
5
143
100
AcDbEntity
8
0
100
AcDbPolyline
90
8
70
1
43
0.0
10
216.84149999989899
20
-54.07200000155715
10
216.84149999989899
20
-41.072000001557136
42
-0.4142135623731471
10
217.34149999989899
20
-40.572000001557129
10
230.34149999989893
20
-40.572000001557093
42
-0.4142135623730534
10
230.8414999998989
20
-41.072000001557136
10
230.8414999998989
20
-54.07200000155715
42
-0.41421356237309509
10
230.3414999998989
20
-54.57200000155715
10
217.34149999989899
20
-54.572000001557193
42
-0.41421356237311585
0
LWPOLYLINE
5
144
100
AcDbEntity
8
0
100
AcDbPolyline
90
8
70
1
43
0.0
10
68.91649999989896
20
-22.022000001557171
42
0.41421356237308465
10
68.416499999898946
20
-21.522000001557156
10
55.416499999898939
20
-21.522000001557167
42
0.41421356237309243
10
54.91649999989896
20
-22.022000001557171
10
54.916499999898946
20
-35.02200000155716
42
0.41421356237308204
10
55.416499999898932
20
-35.522000001557174
10
68.416499999898946
20
-35.52200000155716
42
0.4142135623730977
10
68.916499999898974
20
-35.02200000155716
0
LWPOLYLINE
5
145
100
AcDbEntity
8
0
100
AcDbPolyline
90
8
70
1
43
0.0
10
278.46649999989899
20
-2.9720000015571202
10
278.46649999989887
20
-15.972000001557136
42
-0.41421356237309637
10
277.96649999989893
20
-16.472000001557134
10
264.96649999989893
20
-16.47200000155712
42
-0.41421356237315876
10
264.46649999989893
20
-15.972000001557145
10
264.46649999989893
20
-2.9720000015571202
42
-0.41421356237313894
10
264.96649999989893
20
-2.4720000015571189
10
277.96649999989893
20
-2.4720000015571406
42
-0.41421356237309959
0
LWPOLYLINE
5
146
100
AcDbEntity
8
0
100
AcDbPolyline
90
8
70
1
43
0.0
10
140.64149999989894
20
-54.07200000155715
10
140.64149999989894
20
-41.072000001557136
42
-0.41421356237309509
10
141.14149999989894
20
-40.572000001557129
10
154.14149999989891
20
-40.572000001557129
42
-0.41421356237309509
10
154.64149999989897
20
-41.072000001557136
10
154.64149999989894
20
-54.07200000155715
42
-0.41421356237312629
10
154.14149999989894
20
-54.572000001557157
10
141.14149999989894
20
-54.572000001557164
42
-0.4142135623731002
0
LWPOLYLINE
5
147
100
AcDbEntity
8
0
100
AcDbPolyline
90
8
70
1
43
0.0
10
254.1539999998989
20
-16.472000001557142
10
241.1539999998989
20
-16.472000001557184
42
-0.41421356237305212
10
240.65399999989893
20
-15.972000001557145
10
240.65399999989899
20
-2.9720000015571291
42
-0.41421356237307289
10
241.1539999998989
20
-2.4720000015571229
10
254.1539999998989
20
-2.4720000015571264
42
-0.41421356237313245
10
254.65399999989899
20
-2.9720000015571264
10
254.65399999989899
20
-15.972000001557145
42
-0.41421356237304818
0
LWPOLYLINE
5
148
100
AcDbEntity
8
0
100
AcDbPolyline
90
8
70
1
43
0.0
10
163.66649999989892
20
-35.522000001557146
10
150.66649999989897
20
-35.52200000155716
42
-0.41421356237306645
10
150.16649999989892
20
-35.022000001557146
10
150.16649999989897
20
-22.022000001557164
42
-0.41421356237311063
10
150.66649999989897
20
-21.522000001557167
10
163.66649999989892
20
-21.522000001557146
42
-0.41421356237314189
10
164.16649999989892
20
-22.022000001557164
10
164.16649999989892
20
-35.022000001557146
42
-0.41421356237313928
0
LWPOLYLINE
5
149
100
AcDbEntity
8
0
100
AcDbPolyline
90
8
70
1
43
0.0
10
116.04149999989897
20
-54.572000001557157
42
0.41421356237305862
10
116.54149999989896
20
-54.072000001557157
10
116.54149999989895
20
-41.07200000155715
42
0.41421356237316787
10
116.04149999989893
20
-40.572000001557129
10
103.04149999989892
20
-40.572000001557157
42
0.41421356237305862
10
102.54149999989893
20
-41.07200000155715
10
102.54149999989892
20
-54.072000001557157
42
0.41421356237307944
10
103.04149999989896
20
-54.572000001557171
0
LWPOLYLINE
5
150
100
AcDbEntity
8
0
100
AcDbPolyline
90
8
70
1
43
0.0
10
122.09149999989893
20
-40.572000001557171
10
135.09149999989893
20
-40.572000001557129
42
-0.41421356237309509
10
135.59149999989899
20
-41.072000001557136
10
135.59149999989899
20
-54.07200000155715
42
-0.4142135623730534
10
135.09149999989899
20
-54.572000001557164
10
122.09149999989897
20
-54.572000001557171
42
-0.41421356237308982
10
121.59149999989893
20
-54.072000001557157
10
121.59149999989893
20
-41.07200000155715
42
-0.41421356237310542
0
LWPOLYLINE
5
151
100
AcDbEntity
8
0
100
AcDbPolyline
90
8
70
1
43
0.0
10
131.11649999989893
20
-35.02200000155716
10
131.11649999989893
20
-22.022000001557164
42
-0.41421356237311063
10
131.61649999989893
20
-21.522000001557167
10
144.61649999989896
20
-21.522000001557153
42
-0.41421356237311846
10
145.11649999989896
20
-22.022000001557164
10
145.11649999989896
20
-35.022000001557146
42
-0.41421356237305601
10
144.61649999989896
20
-35.522000001557153
10
131.61649999989893
20
-35.52200000155716
42
-0.41421356237309243
0
LWPOLYLINE
5
152
100
AcDbEntity
8
0
100
AcDbPolyline
90
8
70
1
43
0.0
10
220.81649999989892
20
-35.522000001557132
42
0.41421356237310802
10
221.31649999989895
20
-35.022000001557132
10
221.31649999989892
20
-22.022000001557146
42
0.41421356237312884
10
220.81649999989892
20
-21.522000001557156
10
207.81649999989895
20
-21.522000001557146
42
0.41421356237310802
10
207.31649999989889
20
-22.022000001557146
10
207.31649999989895
20
-35.022000001557132
42
0.41421356237312884
10
207.81649999989895
20
-35.522000001557124
0
LWPOLYLINE
5
153
100
AcDbEntity
8
0
100
AcDbPolyline
90
8
70
1
43
0.0
10
78.728999999898946
20
-92.172000001557166
10
78.728999999898946
20
-79.172000001557194
42
-0.41421356237308982
10
79.228999999898917
20
-78.672000001557166
10
92.228999999898946
20
-78.672000001557166
42
-0.414213562373069
10
92.728999999898917
20
-79.172000001557166
10
92.728999999898946
20
-92.172000001557166
42
-0.4142135623730222
10
92.228999999898932
20
-92.672000001557166
10
79.228999999898946
20
-92.67200000155718
42
-0.41421356237314189
0
LWPOLYLINE
5
154
100
AcDbEntity
8
0
100
AcDbPolyline
90
8
70
1
43
0.0
10
111.77899999989897
20
-79.172000001557166
42
0.41421356237310542
10
111.27899999989893
20
-78.67200000155718
10
98.278999999898957
20
-78.67200000155718
42
0.41421356237308465
10
97.778999999898986
20
-79.172000001557166
10
97.778999999898957
20
-92.172000001557166
42
0.41421356237316787
10
98.278999999898957
20
-92.672000001557166
10
111.27899999989893
20
-92.672000001557166
42
0.41421356237311585
10
111.77899999989896
20
-92.172000001557166
0
LWPOLYLINE
5
155
100
AcDbEntity
8
0
100
AcDbPolyline
90
8
70
1
43
0.0
10
107.80399999989899
20
-59.622000001557147
10
120.80399999989893
20
-59.62200000155714
42
-0.41421356237308982
10
121.30399999989893
20
-60.122000001557154
10
121.30399999989893
20
-73.122000001557154
42
-0.41421356237311063
10
120.80399999989895
20
-73.622000001557169
10
107.80399999989899
20
-73.622000001557183
42
-0.4142135623731002
10
107.30399999989899
20
-73.122000001557154
10
107.30399999989901
20
-60.122000001557154
42
-0.41421356237312629
0
LWPOLYLINE
5
156
100
AcDbEntity
8
0
100
AcDbPolyline
90
8
70
1
43
0.0
10
222.10399999989889
20
-59.622000001557169
42
0.4142135623731471
10
221.60399999989886
20
-60.122000001557147
10
221.60399999989889
20
-73.12200000155714
42
0.41421356237298057
10
222.10399999989889
20
-73.622000001557154
10
235.10399999989889
20
-73.622000001557126
42
0.41421356237309509
10
235.60399999989886
20
-73.12200000155714
10
235.60399999989897
20
-60.122000001557147
42
0.41421356237313667
10
235.10399999989886
20
-59.62200000155714
0
LWPOLYLINE
5
157
100
AcDbEntity
8
0
100
AcDbPolyline
90
8
70
1
43
0.0
10
212.07899999989891
20
-92.172000001557123
10
212.07899999989891
20
-79.172000001557166
42
-0.41421356237316787
10
212.57899999989891
20
-78.672000001557166
10
225.578999999899
20
-78.672000001557166
42
-0.41421356237313145
10
226.078999999899
20
-79.172000001557166
10
226.07899999989905
20
-92.172000001557123
42
-0.41421356237308465
10
225.578999999899
20
-92.672000001557123
10
212.57899999989891
20
-92.672000001557123
42
-0.41421356237309509
0
LWPOLYLINE
5
158
100
AcDbEntity
8
0
100
AcDbPolyline
90
20
70
1
43
0.0
10
35.57899999989889
20
-79.172000001557194
10
35.57899999989889
20
-92.172000001557166
42
-0.41421356237308465
10
35.078999999898883
20
-92.672000001557166
10
3.0289999998989003
20
-92.67200000155718
42
-0.41421356237309409
10
2.5289999998988959
20
-92.172000001557166
10
2.5289999998989106
20
-79.172000001557194
42
-0.41421356237311618
10
3.0289999998989003
20
-78.672000001557194
10
3.6159999998989178
20
-78.672000001557194
10
3.6159999998989778
20
-77.172000001557194
42
-0.4142135623730856
10
4.1159999998989685
20
-76.672000001557194
10
10.115999999898939
20
-76.672000001557166
42
-0.41421356237312756
10
10.615999999898962
20
-77.172000001557194
10
10.615999999898946
20
-78.672000001557194
10
27.491999999898908
20
-78.672000001557194
10
27.491999999898944
20
-77.172000001557166
42
-0.41421356237309243
10
27.99199999989893
20
-76.672000001557166
10
33.99199999989893
20
-76.672000001557166
42
-0.4142135623731002
10
34.491999999898965
20
-77.172000001557166
10
34.491999999898937
20
-78.672000001557166
10
35.078999999898883
20
-78.672000001557166
42
-0.41421356237309509
0
LWPOLYLINE
5
159
100
AcDbEntity
8
0
100
AcDbPolyline
90
8
70
1
43
0.0
10
207.02899999989899
20
-79.172000001557166
10
207.02899999989904
20
-92.172000001557123
42
-0.41421356237309509
10
206.52899999989901
20
-92.672000001557109
10
193.52899999989893
20
-92.672000001557137
42
-0.4142135623731471
10
193.0289999998989
20
-92.172000001557123
10
193.02899999989893
20
-79.172000001557166
42
-0.41421356237311585
10
193.5289999998989
20
-78.672000001557151
10
206.52899999989899
20
-78.672000001557123
42
-0.41421356237299095
0
LWPOLYLINE
5
160
100
AcDbEntity
8
0
100
AcDbPolyline
90
8
70
1
43
0.0
10
203.0289999998989
20
-16.472000001557124
10
197.02899999989893
20
-16.472000001557138
42
-0.41421356237314055
10
196.52899999989893
20
-15.972000001557124
10
196.52899999989899
20
-2.9720000015571379
42
-0.41421356237313373
10
197.02899999989899
20
-2.4720000015571237
10
203.02899999989901
20
-2.4720000015571113
42
-0.41421356237314838
10
203.52899999989901
20
-2.9720000015571384
10
203.5289999998989
20
-15.972000001557124
42
-0.41421356237304691
0
LWPOLYLINE
5
161
100
AcDbEntity
8
0
100
AcDbPolyline
90
8
70
1
43
0.0
10
239.86649999989893
20
-35.522000001557139
10
226.86649999989893
20
-35.522000001557153
42
-0.41421356237307944
10
226.36649999989888
20
-35.022000001557132
10
226.36649999989888
20
-22.022000001557135
42
-0.41421356237307422
10
226.86649999989893
20
-21.522000001557128
10
239.86649999989893
20
-21.522000001557124
42
-0.41421356237307683
10
240.36649999989891
20
-22.022000001557135
10
240.36649999989888
20
-35.022000001557132
42
-0.41421356237305079
0
CIRCLE
5
162
100
AcDbEntity
8
0
100
AcDbCircle
10
85.728999999898932
20
-98.197000001557171
30
0
40
1.7500000000000071
210
0
220
-0
230
1
0
CIRCLE
5
163
100
AcDbEntity
8
0
100
AcDbCircle
10
269.67899999989902
20
-98.197000001557129
30
0
40
1.7500000000000071
210
0
220
0
230
1
0
CIRCLE
5
164
100
AcDbEntity
8
0
100
AcDbCircle
10
142.87899999989892
20
3.052999998442858
30
0
40
1.7500000000000071
210
0
220
0
230
1
0
CIRCLE
5
165
100
AcDbEntity
8
0
100
AcDbCircle
10
16.078999999898897
20
-98.197000001557129
30
0
40
1.7500000000000071
210
0
220
0
230
1
0
CIRCLE
5
166
100
AcDbEntity
8
0
100
AcDbCircle
10
200.02899999989896
20
-98.197000001557171
30
0
40
1.7500000000000071
210
0
220
0
230
1
0
CIRCLE
5
167
100
AcDbEntity
8
0
100
AcDbCircle
10
16.078999999898897
20
3.0529999984428713
30
0
40
1.7500000000000071
210
0
220
0
230
1
0
LWPOLYLINE
5
168
100
AcDbEntity
8
0
100
AcDbPolyline
90
8
70
1
43
0.0
10
82.228999999898988
20
-15.972000001557124
10
82.228999999898917
20
-2.9720000015571379
42
-0.4142135623731048
10
82.728999999898917
20
-2.4720000015571495
10
88.728999999898946
20
-2.4720000015571477
42
-0.41421356237311779
10
89.228999999898932
20
-2.9720000015571402
10
89.228999999898974
20
-15.972000001557124
42
-0.41421356237314577
10
88.728999999898974
20
-16.472000001557117
10
82.728999999899003
20
-16.472000001557131
42
-0.41421356237309637
0
ENDSEC
0
SECTION
2
OBJECTS
0
DICTIONARY
5
C
100
AcDbDictionary
3
ACAD_GROUP
350
D
3
ACAD_MLINESTYLE
350
17
0
DICTIONARY
5
D
100
AcDbDictionary
0
DICTIONARY
5
1A
330
C
100
AcDbDictionary
0
DICTIONARY
5
17
100
AcDbDictionary
0
ENDSEC
0
EOF
