%TF.GenerationSoftware,KiCad,Pcbnew,(6.0.9)*%
%TF.CreationDate,2022-11-05T12:51:30+01:00*%
%TF.ProjectId,plate,706c6174-652e-46b6-9963-61645f706362,rev?*%
%TF.SameCoordinates,Original*%
%TF.FileFunction,Profile,NP*%
%FSLAX46Y46*%
G04 Gerber Fmt 4.6, Leading zero omitted, Abs format (unit mm)*
G04 Created by KiCad (PCBNEW (6.0.9)) date 2022-11-05 12:51:30*
%MOMM*%
%LPD*%
G01*
G04 APERTURE LIST*
%TA.AperFunction,Profile*%
%ADD10C,0.200000*%
%TD*%
G04 APERTURE END LIST*
D10*
X172131000Y-54775000D02*
X159131000Y-54775000D01*
X24993500Y-60325000D02*
G75*
G03*
X24493500Y-59825000I-500000J0D01*
G01*
X235331000Y-54775000D02*
X248331000Y-54775000D01*
X111506000Y-73825000D02*
X124506000Y-73825000D01*
X225306000Y-73325000D02*
G75*
G03*
X225806000Y-73825000I500000J0D01*
G01*
X243568500Y-92875000D02*
G75*
G03*
X244068500Y-92375000I0J500000D01*
G01*
X39281000Y-54275000D02*
X39281000Y-41275000D01*
X48806000Y-117475000D02*
G75*
G03*
X48306000Y-116975000I-500000J0D01*
G01*
X182943500Y-111925000D02*
X195943500Y-111925000D01*
X248331000Y-40775000D02*
X235331000Y-40775000D01*
X224518500Y-92875000D02*
G75*
G03*
X225018500Y-92375000I0J500000D01*
G01*
X97218500Y-92875000D02*
X110218500Y-92875000D01*
X284049750Y-83350050D02*
G75*
G03*
X284549750Y-82850000I-50J500050D01*
G01*
X269191634Y-33007464D02*
X267881000Y-38250000D01*
X111506000Y-59825000D02*
G75*
G03*
X111006000Y-60325000I0J-500000D01*
G01*
X153581000Y-117475000D02*
X153581000Y-130475000D01*
X27374800Y-79375000D02*
G75*
G03*
X26874750Y-78875000I-500100J-100D01*
G01*
X86211776Y-32249977D02*
G75*
G03*
X85241634Y-33007464I24J-1000023D01*
G01*
X182156000Y-60325000D02*
G75*
G03*
X181656000Y-59825000I-500000J0D01*
G01*
X101193500Y-98425000D02*
G75*
G03*
X100693500Y-97925000I-500000J0D01*
G01*
X274524750Y-92874950D02*
G75*
G03*
X275024750Y-92375000I50J499950D01*
G01*
X221043500Y-97925000D02*
G75*
G03*
X220543500Y-98425000I0J-500000D01*
G01*
X40575250Y-113425000D02*
X40575250Y-111925000D01*
X39281000Y-41275000D02*
G75*
G03*
X38781000Y-40775000I-500000J0D01*
G01*
X206256000Y-73325000D02*
G75*
G03*
X206756000Y-73825000I500000J0D01*
G01*
X72906000Y-60325000D02*
X72906000Y-73325000D01*
X244068500Y-79375000D02*
G75*
G03*
X243568500Y-78875000I-500000J0D01*
G01*
X284549700Y-69850000D02*
G75*
G03*
X284049750Y-69350000I-500000J0D01*
G01*
X139581000Y-54275000D02*
X139581000Y-41275000D01*
X286431000Y-111925000D02*
X278700250Y-111925000D01*
X11493500Y-73825000D02*
X24493500Y-73825000D01*
X120531000Y-54275000D02*
G75*
G03*
X121031000Y-54775000I500000J0D01*
G01*
X159131000Y-40775000D02*
G75*
G03*
X158631000Y-41275000I0J-500000D01*
G01*
X35306000Y-59825000D02*
G75*
G03*
X34806000Y-60325000I0J-500000D01*
G01*
X271700250Y-113425000D02*
X271700250Y-111925000D01*
X139581000Y-130475000D02*
G75*
G03*
X140081000Y-130975000I500000J0D01*
G01*
X38781000Y-40775000D02*
X25781000Y-40775000D01*
X210231000Y-54775000D02*
G75*
G03*
X210731000Y-54275000I0J500000D01*
G01*
X9112250Y-97925000D02*
G75*
G03*
X8612250Y-98425000I-30J-499970D01*
G01*
X285844000Y-54775000D02*
X285844000Y-56275000D01*
X26874750Y-92874950D02*
G75*
G03*
X27374750Y-92375000I50J499950D01*
G01*
X16561776Y-139500000D02*
X23000224Y-139500000D01*
X39568500Y-79375000D02*
X39568500Y-92375000D01*
X220543500Y-130475000D02*
G75*
G03*
X221043500Y-130975000I500000J0D01*
G01*
X172918500Y-79375000D02*
X172918500Y-92375000D01*
X5706000Y-38250000D02*
G75*
G03*
X3706000Y-40250000I0J-2000000D01*
G01*
X59118500Y-130975000D02*
X72118500Y-130975000D01*
X270161776Y-32249977D02*
G75*
G03*
X269191634Y-33007464I24J-1000023D01*
G01*
X82143500Y-98425000D02*
G75*
G03*
X81643500Y-97925000I-500000J0D01*
G01*
X110218500Y-78875000D02*
X97218500Y-78875000D01*
X187706000Y-59825000D02*
X200706000Y-59825000D01*
X72118500Y-116975000D02*
X59118500Y-116975000D01*
X286931000Y-98425000D02*
X286931000Y-111425000D01*
X285344000Y-56775000D02*
X279344000Y-56775000D01*
X248774700Y-92375000D02*
G75*
G03*
X249274750Y-92875000I500100J100D01*
G01*
X106743500Y-97925000D02*
G75*
G03*
X106243500Y-98425000I0J-500000D01*
G01*
X215493500Y-98425000D02*
G75*
G03*
X214993500Y-97925000I-500000J0D01*
G01*
X258356000Y-60325000D02*
X258356000Y-73325000D01*
X234831000Y-41275000D02*
X234831000Y-54275000D01*
X210231000Y-54775000D02*
X197231000Y-54775000D01*
X6231000Y-41275000D02*
X6231000Y-54275000D01*
X278881000Y-133500000D02*
X287456000Y-133500000D01*
X73406000Y-73825000D02*
X86406000Y-73825000D01*
X206756000Y-73825000D02*
X219756000Y-73825000D01*
X135318500Y-78875000D02*
G75*
G03*
X134818500Y-79375000I0J-500000D01*
G01*
X87693500Y-97925000D02*
G75*
G03*
X87193500Y-98425000I0J-500000D01*
G01*
X91668500Y-79375000D02*
X91668500Y-92375000D01*
X16561776Y-32249977D02*
G75*
G03*
X15591634Y-33007464I24J-1000023D01*
G01*
X39568500Y-92375000D02*
G75*
G03*
X40068500Y-92875000I500000J0D01*
G01*
X8612250Y-79375000D02*
X8612250Y-92375000D01*
X178181000Y-54775000D02*
X191181000Y-54775000D01*
X278200250Y-113924950D02*
G75*
G03*
X278700250Y-113425000I50J499950D01*
G01*
X289456000Y-131500000D02*
X289456000Y-40250000D01*
X54356000Y-59825000D02*
G75*
G03*
X53856000Y-60325000I0J-500000D01*
G01*
X206731000Y-130975000D02*
G75*
G03*
X207231000Y-130475000I0J500000D01*
G01*
X201493500Y-111425000D02*
G75*
G03*
X201993500Y-111925000I500000J0D01*
G01*
X121031000Y-40775000D02*
G75*
G03*
X120531000Y-41275000I0J-500000D01*
G01*
X182443500Y-98425000D02*
X182443500Y-111425000D01*
X225306000Y-60325000D02*
X225306000Y-73325000D01*
X220543500Y-130475000D02*
X220543500Y-117475000D01*
X63093500Y-98425000D02*
X63093500Y-111425000D01*
X191968500Y-92375000D02*
X191968500Y-79375000D01*
X19731000Y-54775000D02*
G75*
G03*
X20231000Y-54275000I0J500000D01*
G01*
X62593500Y-111925000D02*
G75*
G03*
X63093500Y-111425000I0J500000D01*
G01*
X172631000Y-41275000D02*
G75*
G03*
X172131000Y-40775000I-500000J0D01*
G01*
X200706000Y-73825000D02*
G75*
G03*
X201206000Y-73325000I0J500000D01*
G01*
X278881000Y-38250000D02*
X277570366Y-33007464D01*
X149606000Y-59825000D02*
X162606000Y-59825000D01*
X144843500Y-97925000D02*
G75*
G03*
X144343500Y-98425000I0J-500000D01*
G01*
X168656000Y-59825000D02*
G75*
G03*
X168156000Y-60325000I0J-500000D01*
G01*
X59118500Y-78875000D02*
X72118500Y-78875000D01*
X234831000Y-54275000D02*
G75*
G03*
X235331000Y-54775000I500000J0D01*
G01*
X259086750Y-94875000D02*
X253086750Y-94875000D01*
X239306000Y-73325000D02*
X239306000Y-60325000D01*
X254381000Y-40775000D02*
X286431000Y-40775000D01*
X77381000Y-41275000D02*
X77381000Y-54275000D01*
X96431000Y-41275000D02*
G75*
G03*
X95931000Y-40775000I-500000J0D01*
G01*
X205481000Y-35250000D02*
G75*
G03*
X205481000Y-35250000I-1750000J0D01*
G01*
X261968000Y-54775000D02*
X261968000Y-56275000D01*
X281668500Y-130975000D02*
G75*
G03*
X282168500Y-130475000I0J500000D01*
G01*
X144343500Y-111425000D02*
G75*
G03*
X144843500Y-111925000I500000J0D01*
G01*
X35306000Y-116975000D02*
G75*
G03*
X34806000Y-117475000I0J-500000D01*
G01*
X44831000Y-40775000D02*
G75*
G03*
X44331000Y-41275000I0J-500000D01*
G01*
X144343500Y-111425000D02*
X144343500Y-98425000D01*
X158343500Y-98425000D02*
G75*
G03*
X157843500Y-97925000I-500000J0D01*
G01*
X267881000Y-133500000D02*
X269191634Y-138742536D01*
X140081000Y-116975000D02*
X153081000Y-116975000D01*
X19731000Y-40775000D02*
X6731000Y-40775000D01*
X200731000Y-116975000D02*
G75*
G03*
X200231000Y-117475000I0J-500000D01*
G01*
X153081000Y-130975000D02*
G75*
G03*
X153581000Y-130475000I0J500000D01*
G01*
X167368500Y-92875000D02*
G75*
G03*
X167868500Y-92375000I0J500000D01*
G01*
X247237500Y-97925000D02*
X286431000Y-97925000D01*
X92931000Y-117475000D02*
X92931000Y-130475000D01*
X163393500Y-111425000D02*
G75*
G03*
X163893500Y-111925000I500000J0D01*
G01*
X40075250Y-113924950D02*
G75*
G03*
X40575250Y-113425000I50J499950D01*
G01*
X82143500Y-111425000D02*
X82143500Y-98425000D01*
X124506000Y-59825000D02*
X111506000Y-59825000D01*
X244856000Y-59825000D02*
G75*
G03*
X244356000Y-60325000I0J-500000D01*
G01*
X173418500Y-92875000D02*
X186418500Y-92875000D01*
X216281000Y-40775000D02*
X229281000Y-40775000D01*
X116268500Y-78875000D02*
G75*
G03*
X115768500Y-79375000I0J-500000D01*
G01*
X10993500Y-130475000D02*
X10993500Y-117475000D01*
X91956000Y-73325000D02*
G75*
G03*
X92456000Y-73825000I500000J0D01*
G01*
X234043500Y-97925000D02*
X221043500Y-97925000D01*
X139581000Y-130475000D02*
X139581000Y-117475000D01*
X210731000Y-41275000D02*
G75*
G03*
X210231000Y-40775000I-500000J0D01*
G01*
X268168500Y-130475000D02*
G75*
G03*
X268668500Y-130975000I500000J0D01*
G01*
X125293500Y-111425000D02*
G75*
G03*
X125793500Y-111925000I500000J0D01*
G01*
X289456000Y-40250000D02*
G75*
G03*
X287456000Y-38250000I-2000000J0D01*
G01*
X93620417Y-33007451D02*
G75*
G03*
X92650224Y-32250000I-970217J-242649D01*
G01*
X196443500Y-111425000D02*
X196443500Y-98425000D01*
X58618500Y-130475000D02*
G75*
G03*
X59118500Y-130975000I500000J0D01*
G01*
X283462750Y-91569835D02*
X283462750Y-94375000D01*
X134818500Y-92375000D02*
G75*
G03*
X135318500Y-92875000I500000J0D01*
G01*
X172918500Y-92375000D02*
G75*
G03*
X173418500Y-92875000I500000J0D01*
G01*
X85931000Y-130475000D02*
G75*
G03*
X86431000Y-130975000I500000J0D01*
G01*
X105956000Y-60325000D02*
X105956000Y-73325000D01*
X85241634Y-33007464D02*
X83931000Y-38250000D01*
X283462750Y-83350000D02*
X283462750Y-85006165D01*
X58331000Y-54275000D02*
X58331000Y-41275000D01*
X244856000Y-59825000D02*
X257856000Y-59825000D01*
X144056000Y-73325000D02*
X144056000Y-60325000D01*
X24493500Y-130975000D02*
X11493500Y-130975000D01*
X234543500Y-98425000D02*
G75*
G03*
X234043500Y-97925000I-500000J0D01*
G01*
X239306000Y-60325000D02*
G75*
G03*
X238806000Y-59825000I-500000J0D01*
G01*
X267881000Y-38250000D02*
X209231000Y-38250000D01*
X23970417Y-33007451D02*
G75*
G03*
X23000224Y-32250000I-970217J-242649D01*
G01*
X246737500Y-111425000D02*
G75*
G03*
X247237500Y-111925000I500000J0D01*
G01*
X285344000Y-56775000D02*
G75*
G03*
X285844000Y-56275000I0J500000D01*
G01*
X148331000Y-136500000D02*
G75*
G03*
X148331000Y-136500000I-1750000J0D01*
G01*
X92456000Y-59825000D02*
G75*
G03*
X91956000Y-60325000I0J-500000D01*
G01*
X53568500Y-79375000D02*
G75*
G03*
X53068500Y-78875000I-500000J0D01*
G01*
X234043500Y-130975000D02*
X221043500Y-130975000D01*
X153868500Y-92375000D02*
X153868500Y-79375000D01*
X92931000Y-117475000D02*
G75*
G03*
X92431000Y-116975000I-500000J0D01*
G01*
X187206000Y-73325000D02*
X187206000Y-60325000D01*
X25281000Y-133500000D02*
X141081000Y-133500000D01*
X134031000Y-40775000D02*
X121031000Y-40775000D01*
X162606000Y-73825000D02*
G75*
G03*
X163106000Y-73325000I0J500000D01*
G01*
X44331000Y-41275000D02*
X44331000Y-54275000D01*
X48806000Y-60325000D02*
X48806000Y-73325000D01*
X207231000Y-117475000D02*
X207231000Y-130475000D01*
X92431000Y-130975000D02*
X86431000Y-130975000D01*
X201993500Y-97925000D02*
G75*
G03*
X201493500Y-98425000I0J-500000D01*
G01*
X15591634Y-33007464D02*
X14281000Y-38250000D01*
X278200250Y-113925000D02*
X272200250Y-113925000D01*
X116268500Y-92875000D02*
X129268500Y-92875000D01*
X191681000Y-54275000D02*
X191681000Y-41275000D01*
X254324250Y-113924950D02*
G75*
G03*
X254824250Y-113425000I50J499950D01*
G01*
X259086750Y-94874950D02*
G75*
G03*
X259586750Y-94375000I50J499950D01*
G01*
X91956000Y-73325000D02*
X91956000Y-60325000D01*
X125006000Y-60325000D02*
G75*
G03*
X124506000Y-59825000I-500000J0D01*
G01*
X163106000Y-60325000D02*
X163106000Y-73325000D01*
X43887250Y-111924950D02*
G75*
G03*
X44387250Y-111425000I50J499950D01*
G01*
X201206000Y-60325000D02*
G75*
G03*
X200706000Y-59825000I-500000J0D01*
G01*
X129768500Y-79375000D02*
G75*
G03*
X129268500Y-78875000I-500000J0D01*
G01*
X49093500Y-111425000D02*
X49093500Y-98425000D01*
X95931000Y-54775000D02*
G75*
G03*
X96431000Y-54275000I0J500000D01*
G01*
X270549750Y-73825000D02*
X268668500Y-73825000D01*
X195943500Y-97925000D02*
X182943500Y-97925000D01*
X48306000Y-73825000D02*
X35306000Y-73825000D01*
X276600224Y-32250000D02*
X270161776Y-32250000D01*
X33575200Y-113425000D02*
G75*
G03*
X34075250Y-113925000I500100J100D01*
G01*
X120243500Y-98425000D02*
G75*
G03*
X119743500Y-97925000I-500000J0D01*
G01*
X106243500Y-98425000D02*
X106243500Y-111425000D01*
X92650224Y-32250000D02*
X86211776Y-32250000D01*
X149800224Y-139500023D02*
G75*
G03*
X150770366Y-138742536I-24J1000023D01*
G01*
X215781000Y-54275000D02*
X215781000Y-41275000D01*
X158631000Y-54275000D02*
X158631000Y-41275000D01*
X130556000Y-73825000D02*
X143556000Y-73825000D01*
X9112250Y-111925000D02*
X9699250Y-111925000D01*
X211018500Y-92375000D02*
G75*
G03*
X211518500Y-92875000I500000J0D01*
G01*
X53068500Y-92875000D02*
G75*
G03*
X53568500Y-92375000I0J500000D01*
G01*
X34806000Y-130475000D02*
X34806000Y-117475000D01*
X254324250Y-113925000D02*
X248324250Y-113925000D01*
X254381000Y-40775000D02*
G75*
G03*
X253881000Y-41275000I0J-500000D01*
G01*
X268668500Y-59825000D02*
X281668500Y-59825000D01*
X110718500Y-79375000D02*
G75*
G03*
X110218500Y-78875000I-500000J0D01*
G01*
X282962750Y-94875000D02*
X276962750Y-94875000D01*
X6731000Y-40775000D02*
G75*
G03*
X6231000Y-41275000I0J-500000D01*
G01*
X283049750Y-67912000D02*
X282168500Y-67912000D01*
X53856000Y-60325000D02*
X53856000Y-73325000D01*
X207920417Y-33007451D02*
G75*
G03*
X206950224Y-32250000I-970217J-242649D01*
G01*
X86431000Y-116975000D02*
X92431000Y-116975000D01*
X283049750Y-67912050D02*
G75*
G03*
X283549750Y-67412000I-50J500050D01*
G01*
X167368500Y-92875000D02*
X154368500Y-92875000D01*
X286431000Y-54775000D02*
G75*
G03*
X286931000Y-54275000I0J500000D01*
G01*
X34806000Y-73325000D02*
G75*
G03*
X35306000Y-73825000I500000J0D01*
G01*
X96718500Y-79375000D02*
X96718500Y-92375000D01*
X243568500Y-92875000D02*
X230568500Y-92875000D01*
X134031000Y-54775000D02*
G75*
G03*
X134531000Y-54275000I0J500000D01*
G01*
X220256000Y-73325000D02*
X220256000Y-60325000D01*
X8612250Y-98425000D02*
X8612250Y-111425000D01*
X221043500Y-116975000D02*
G75*
G03*
X220543500Y-117475000I0J-500000D01*
G01*
X139293500Y-98425000D02*
G75*
G03*
X138793500Y-97925000I-500000J0D01*
G01*
X63881000Y-40775000D02*
X76881000Y-40775000D01*
X86431000Y-116975000D02*
G75*
G03*
X85931000Y-117475000I0J-500000D01*
G01*
X244068500Y-79375000D02*
X244068500Y-92375000D01*
X154368500Y-78875000D02*
G75*
G03*
X153868500Y-79375000I0J-500000D01*
G01*
X48306000Y-130975000D02*
G75*
G03*
X48806000Y-130475000I0J500000D01*
G01*
X201993500Y-97925000D02*
X214993500Y-97925000D01*
X63381000Y-54275000D02*
G75*
G03*
X63881000Y-54775000I500000J0D01*
G01*
X3706000Y-40250000D02*
X3706000Y-131500000D01*
X101981000Y-40775000D02*
G75*
G03*
X101481000Y-41275000I0J-500000D01*
G01*
X44387300Y-98425000D02*
G75*
G03*
X43887250Y-97925000I-500100J-100D01*
G01*
X44387250Y-111425000D02*
X44387250Y-98425000D01*
X176893500Y-111925000D02*
G75*
G03*
X177393500Y-111425000I0J500000D01*
G01*
X138793500Y-111925000D02*
G75*
G03*
X139293500Y-111425000I0J500000D01*
G01*
X77668500Y-92375000D02*
X77668500Y-79375000D01*
X287456000Y-133500000D02*
G75*
G03*
X289456000Y-131500000I0J2000000D01*
G01*
X276600224Y-139500023D02*
G75*
G03*
X277570366Y-138742536I-24J1000023D01*
G01*
X283462743Y-91569830D02*
G75*
G03*
X283549750Y-91288000I-412943J281830D01*
G01*
X100693500Y-97925000D02*
X87693500Y-97925000D01*
X25281000Y-41275000D02*
X25281000Y-54275000D01*
X277570366Y-138742536D02*
X278881000Y-133500000D01*
X101193500Y-111425000D02*
X101193500Y-98425000D01*
X68643500Y-97925000D02*
G75*
G03*
X68143500Y-98425000I0J-500000D01*
G01*
X200231000Y-130475000D02*
G75*
G03*
X200731000Y-130975000I500000J0D01*
G01*
X234043500Y-130975000D02*
G75*
G03*
X234543500Y-130475000I0J500000D01*
G01*
X86406000Y-59825000D02*
X73406000Y-59825000D01*
X40068500Y-78875000D02*
G75*
G03*
X39568500Y-79375000I0J-500000D01*
G01*
X78168500Y-78875000D02*
X91168500Y-78875000D01*
X276462750Y-94375000D02*
X276462750Y-91788000D01*
X191968500Y-92375000D02*
G75*
G03*
X192468500Y-92875000I500000J0D01*
G01*
X225806000Y-73825000D02*
X238806000Y-73825000D01*
X49593500Y-97925000D02*
G75*
G03*
X49093500Y-98425000I0J-500000D01*
G01*
X149606000Y-59825000D02*
G75*
G03*
X149106000Y-60325000I0J-500000D01*
G01*
X23000224Y-32250000D02*
X16561776Y-32250000D01*
X57831000Y-40775000D02*
X44831000Y-40775000D01*
X276462700Y-94375000D02*
G75*
G03*
X276962750Y-94875000I500100J100D01*
G01*
X129768500Y-92375000D02*
X129768500Y-79375000D01*
X149106000Y-73325000D02*
G75*
G03*
X149606000Y-73825000I500000J0D01*
G01*
X77381000Y-41275000D02*
G75*
G03*
X76881000Y-40775000I-500000J0D01*
G01*
X111006000Y-60325000D02*
X111006000Y-73325000D01*
X153868500Y-92375000D02*
G75*
G03*
X154368500Y-92875000I500000J0D01*
G01*
X138793500Y-111925000D02*
X125793500Y-111925000D01*
X214993500Y-111925000D02*
X201993500Y-111925000D01*
X87693500Y-111925000D02*
X100693500Y-111925000D01*
X35306000Y-116975000D02*
X48306000Y-116975000D01*
X9112250Y-92875000D02*
X26874750Y-92875000D01*
X25281000Y-38250000D02*
X23970366Y-33007464D01*
X86406000Y-73825000D02*
G75*
G03*
X86906000Y-73325000I0J500000D01*
G01*
X153581000Y-117475000D02*
G75*
G03*
X153081000Y-116975000I-500000J0D01*
G01*
X261468000Y-56775000D02*
G75*
G03*
X261968000Y-56275000I0J500000D01*
G01*
X211018500Y-92375000D02*
X211018500Y-79375000D01*
X211518500Y-78875000D02*
X224518500Y-78875000D01*
X148818500Y-79375000D02*
G75*
G03*
X148318500Y-78875000I-500000J0D01*
G01*
X205968500Y-79375000D02*
X205968500Y-92375000D01*
X8612200Y-111425000D02*
G75*
G03*
X9112250Y-111925000I500100J100D01*
G01*
X25281000Y-54275000D02*
G75*
G03*
X25781000Y-54775000I500000J0D01*
G01*
X275131000Y-35250000D02*
G75*
G03*
X275131000Y-35250000I-1750000J0D01*
G01*
X282168500Y-69350000D02*
X284049750Y-69350000D01*
X24493500Y-130975000D02*
G75*
G03*
X24993500Y-130475000I0J500000D01*
G01*
X110718500Y-92375000D02*
X110718500Y-79375000D01*
X168156000Y-73325000D02*
G75*
G03*
X168656000Y-73825000I500000J0D01*
G01*
X110218500Y-92875000D02*
G75*
G03*
X110718500Y-92375000I0J500000D01*
G01*
X62593500Y-111925000D02*
X49593500Y-111925000D01*
X40068500Y-92875000D02*
X53068500Y-92875000D01*
X125006000Y-73325000D02*
X125006000Y-60325000D01*
X270161776Y-139500000D02*
X276600224Y-139500000D01*
X225018500Y-79375000D02*
G75*
G03*
X224518500Y-78875000I-500000J0D01*
G01*
X85931000Y-130475000D02*
X85931000Y-117475000D01*
X219756000Y-59825000D02*
X206756000Y-59825000D01*
X192468500Y-78875000D02*
X205468500Y-78875000D01*
X154368500Y-78875000D02*
X167368500Y-78875000D01*
X247824250Y-111925000D02*
X247237500Y-111925000D01*
X283549724Y-85288000D02*
G75*
G03*
X283462750Y-85006165I-500124J0D01*
G01*
X229781000Y-41275000D02*
G75*
G03*
X229281000Y-40775000I-500000J0D01*
G01*
X25781000Y-40775000D02*
G75*
G03*
X25281000Y-41275000I0J-500000D01*
G01*
X158631000Y-54275000D02*
G75*
G03*
X159131000Y-54775000I500000J0D01*
G01*
X140081000Y-40775000D02*
X153081000Y-40775000D01*
X158343500Y-98425000D02*
X158343500Y-111425000D01*
X49593500Y-97925000D02*
X62593500Y-97925000D01*
X225018500Y-79375000D02*
X225018500Y-92375000D01*
X86906000Y-60325000D02*
G75*
G03*
X86406000Y-59825000I-500000J0D01*
G01*
X143556000Y-59825000D02*
X130556000Y-59825000D01*
X53856000Y-73325000D02*
G75*
G03*
X54356000Y-73825000I500000J0D01*
G01*
X177393500Y-111425000D02*
X177393500Y-98425000D01*
X211518500Y-78875000D02*
G75*
G03*
X211018500Y-79375000I0J-500000D01*
G01*
X163393500Y-98425000D02*
X163393500Y-111425000D01*
X286431000Y-54775000D02*
X285844000Y-54775000D01*
X3706000Y-131500000D02*
G75*
G03*
X5706000Y-133500000I2000000J0D01*
G01*
X278844000Y-54775000D02*
X261968000Y-54775000D01*
X87193500Y-98425000D02*
X87193500Y-111425000D01*
X206950224Y-32250000D02*
X200511776Y-32250000D01*
X197231000Y-40775000D02*
G75*
G03*
X196731000Y-41275000I0J-500000D01*
G01*
X282168500Y-117475000D02*
G75*
G03*
X281668500Y-116975000I-500000J0D01*
G01*
X57831000Y-54775000D02*
G75*
G03*
X58331000Y-54275000I0J500000D01*
G01*
X63881000Y-40775000D02*
G75*
G03*
X63381000Y-41275000I0J-500000D01*
G01*
X11493500Y-116975000D02*
G75*
G03*
X10993500Y-117475000I0J-500000D01*
G01*
X278844000Y-56275000D02*
X278844000Y-54775000D01*
X148818500Y-79375000D02*
X148818500Y-92375000D01*
X252586700Y-94375000D02*
G75*
G03*
X253086750Y-94875000I500100J100D01*
G01*
X81643500Y-97925000D02*
X68643500Y-97925000D01*
X182156000Y-60325000D02*
X182156000Y-73325000D01*
X16199250Y-113924950D02*
G75*
G03*
X16699250Y-113425000I50J499950D01*
G01*
X101481000Y-41275000D02*
X101481000Y-54275000D01*
X200706000Y-73825000D02*
X187706000Y-73825000D01*
X53068500Y-78875000D02*
X40068500Y-78875000D01*
X10993500Y-130475000D02*
G75*
G03*
X11493500Y-130975000I500000J0D01*
G01*
X96718500Y-92375000D02*
G75*
G03*
X97218500Y-92875000I500000J0D01*
G01*
X58618500Y-92375000D02*
G75*
G03*
X59118500Y-92875000I500000J0D01*
G01*
X196731000Y-54275000D02*
X196731000Y-41275000D01*
X16699250Y-111925000D02*
X33575250Y-111925000D01*
X48806000Y-60325000D02*
G75*
G03*
X48306000Y-59825000I-500000J0D01*
G01*
X244356000Y-130475000D02*
G75*
G03*
X244856000Y-130975000I500000J0D01*
G01*
X278700250Y-111925000D02*
X278700250Y-113425000D01*
X200231000Y-130475000D02*
X200231000Y-117475000D01*
X182943500Y-97925000D02*
G75*
G03*
X182443500Y-98425000I0J-500000D01*
G01*
X72906000Y-73325000D02*
G75*
G03*
X73406000Y-73825000I500000J0D01*
G01*
X269191583Y-138742549D02*
G75*
G03*
X270161776Y-139500000I970217J242649D01*
G01*
X139293500Y-98425000D02*
X139293500Y-111425000D01*
X59118500Y-78875000D02*
G75*
G03*
X58618500Y-79375000I0J-500000D01*
G01*
X186418500Y-78875000D02*
X173418500Y-78875000D01*
X157843500Y-111925000D02*
X144843500Y-111925000D01*
X163893500Y-111925000D02*
X176893500Y-111925000D01*
X115481000Y-54275000D02*
X115481000Y-41275000D01*
X176893500Y-97925000D02*
X163893500Y-97925000D01*
X115481000Y-41275000D02*
G75*
G03*
X114981000Y-40775000I-500000J0D01*
G01*
X283549750Y-85288000D02*
X283549750Y-91288000D01*
X48306000Y-130975000D02*
X35306000Y-130975000D01*
X192468500Y-78875000D02*
G75*
G03*
X191968500Y-79375000I0J-500000D01*
G01*
X34075250Y-113925000D02*
X40075250Y-113925000D01*
X191681000Y-41275000D02*
G75*
G03*
X191181000Y-40775000I-500000J0D01*
G01*
X191181000Y-40775000D02*
X178181000Y-40775000D01*
X168156000Y-73325000D02*
X168156000Y-60325000D01*
X257856000Y-130975000D02*
G75*
G03*
X258356000Y-130475000I0J500000D01*
G01*
X68143500Y-111425000D02*
G75*
G03*
X68643500Y-111925000I500000J0D01*
G01*
X246737500Y-111425000D02*
X246737500Y-98425000D01*
X182443500Y-111425000D02*
G75*
G03*
X182943500Y-111925000I500000J0D01*
G01*
X148318500Y-92875000D02*
X135318500Y-92875000D01*
X10199250Y-113925000D02*
X16199250Y-113925000D01*
X82431000Y-54275000D02*
X82431000Y-41275000D01*
X153581000Y-41275000D02*
G75*
G03*
X153081000Y-40775000I-500000J0D01*
G01*
X23970366Y-138742536D02*
X25281000Y-133500000D01*
X215781000Y-54275000D02*
G75*
G03*
X216281000Y-54775000I500000J0D01*
G01*
X20231000Y-54275000D02*
X20231000Y-41275000D01*
X43887250Y-97925000D02*
X9112250Y-97925000D01*
X96431000Y-41275000D02*
X96431000Y-54275000D01*
X105956000Y-60325000D02*
G75*
G03*
X105456000Y-59825000I-500000J0D01*
G01*
X68643500Y-111925000D02*
X81643500Y-111925000D01*
X248831000Y-41275000D02*
G75*
G03*
X248331000Y-40775000I-500000J0D01*
G01*
X248331000Y-54775000D02*
G75*
G03*
X248831000Y-54275000I0J500000D01*
G01*
X9112250Y-78875000D02*
G75*
G03*
X8612250Y-79375000I-30J-499970D01*
G01*
X286931000Y-41275000D02*
X286931000Y-54275000D01*
X81643500Y-111925000D02*
G75*
G03*
X82143500Y-111425000I0J500000D01*
G01*
X34806000Y-73325000D02*
X34806000Y-60325000D01*
X230068500Y-92375000D02*
X230068500Y-79375000D01*
X258356000Y-60325000D02*
G75*
G03*
X257856000Y-59825000I-500000J0D01*
G01*
X101481000Y-54275000D02*
G75*
G03*
X101981000Y-54775000I500000J0D01*
G01*
X11493500Y-59825000D02*
G75*
G03*
X10993500Y-60325000I0J-500000D01*
G01*
X68143500Y-98425000D02*
X68143500Y-111425000D01*
X235331000Y-40775000D02*
G75*
G03*
X234831000Y-41275000I0J-500000D01*
G01*
X72618500Y-117475000D02*
G75*
G03*
X72118500Y-116975000I-500000J0D01*
G01*
X72118500Y-130975000D02*
G75*
G03*
X72618500Y-130475000I0J500000D01*
G01*
X119743500Y-97925000D02*
X106743500Y-97925000D01*
X284049750Y-83350000D02*
X283462750Y-83350000D01*
X275024750Y-91788000D02*
X275024750Y-92375000D01*
X10993500Y-73325000D02*
G75*
G03*
X11493500Y-73825000I500000J0D01*
G01*
X254968000Y-54775000D02*
X254381000Y-54775000D01*
X163893500Y-97925000D02*
G75*
G03*
X163393500Y-98425000I0J-500000D01*
G01*
X271700200Y-113425000D02*
G75*
G03*
X272200250Y-113925000I500100J100D01*
G01*
X149106000Y-73325000D02*
X149106000Y-60325000D01*
X115768500Y-79375000D02*
X115768500Y-92375000D01*
X72618500Y-79375000D02*
X72618500Y-92375000D01*
X125793500Y-97925000D02*
X138793500Y-97925000D01*
X252586750Y-94375000D02*
X252586750Y-92875000D01*
X200511776Y-32249977D02*
G75*
G03*
X199541634Y-33007464I24J-1000023D01*
G01*
X268668500Y-116975000D02*
G75*
G03*
X268168500Y-117475000I0J-500000D01*
G01*
X248831000Y-54275000D02*
X248831000Y-41275000D01*
X214993500Y-111925000D02*
G75*
G03*
X215493500Y-111425000I0J500000D01*
G01*
X33575250Y-111925000D02*
X33575250Y-113425000D01*
X247824250Y-113425000D02*
X247824250Y-111925000D01*
X210731000Y-41275000D02*
X210731000Y-54275000D01*
X199541634Y-33007464D02*
X198231000Y-38250000D01*
X120243500Y-111425000D02*
X120243500Y-98425000D01*
X48306000Y-73825000D02*
G75*
G03*
X48806000Y-73325000I0J500000D01*
G01*
X274524750Y-92875000D02*
X259586750Y-92875000D01*
X221043500Y-111925000D02*
X234043500Y-111925000D01*
X144056000Y-60325000D02*
G75*
G03*
X143556000Y-59825000I-500000J0D01*
G01*
X234043500Y-111925000D02*
G75*
G03*
X234543500Y-111425000I0J500000D01*
G01*
X177681000Y-41275000D02*
X177681000Y-54275000D01*
X73406000Y-59825000D02*
G75*
G03*
X72906000Y-60325000I0J-500000D01*
G01*
X196731000Y-54275000D02*
G75*
G03*
X197231000Y-54775000I500000J0D01*
G01*
X178181000Y-40775000D02*
G75*
G03*
X177681000Y-41275000I0J-500000D01*
G01*
X121031000Y-54775000D02*
X134031000Y-54775000D01*
X63093500Y-98425000D02*
G75*
G03*
X62593500Y-97925000I-500000J0D01*
G01*
X187206000Y-73325000D02*
G75*
G03*
X187706000Y-73825000I500000J0D01*
G01*
X205968500Y-79375000D02*
G75*
G03*
X205468500Y-78875000I-500000J0D01*
G01*
X130056000Y-73325000D02*
G75*
G03*
X130556000Y-73825000I500000J0D01*
G01*
X157843500Y-111925000D02*
G75*
G03*
X158343500Y-111425000I0J500000D01*
G01*
X44831000Y-54775000D02*
X57831000Y-54775000D01*
X76881000Y-54775000D02*
X63881000Y-54775000D01*
X229281000Y-54775000D02*
G75*
G03*
X229781000Y-54275000I0J500000D01*
G01*
X191181000Y-54775000D02*
G75*
G03*
X191681000Y-54275000I0J500000D01*
G01*
X163106000Y-60325000D02*
G75*
G03*
X162606000Y-59825000I-500000J0D01*
G01*
X234543500Y-117475000D02*
X234543500Y-130475000D01*
X27374750Y-92375000D02*
X27374750Y-79375000D01*
X72118500Y-92875000D02*
G75*
G03*
X72618500Y-92375000I0J500000D01*
G01*
X258356000Y-117475000D02*
G75*
G03*
X257856000Y-116975000I-500000J0D01*
G01*
X276462750Y-91788000D02*
X275024750Y-91788000D01*
X134818500Y-92375000D02*
X134818500Y-79375000D01*
X134531000Y-54275000D02*
X134531000Y-41275000D01*
X92456000Y-59825000D02*
X105456000Y-59825000D01*
X206256000Y-60325000D02*
X206256000Y-73325000D01*
X9699250Y-111925000D02*
X9699250Y-113425000D01*
X63381000Y-54275000D02*
X63381000Y-41275000D01*
X249274750Y-78875000D02*
X270549750Y-78875000D01*
X234543500Y-111425000D02*
X234543500Y-98425000D01*
X198231000Y-38250000D02*
X94931000Y-38250000D01*
X153081000Y-130975000D02*
X140081000Y-130975000D01*
X142391583Y-138742549D02*
G75*
G03*
X143361776Y-139500000I970217J242649D01*
G01*
X91168500Y-92875000D02*
X78168500Y-92875000D01*
X215493500Y-98425000D02*
X215493500Y-111425000D01*
X201493500Y-111425000D02*
X201493500Y-98425000D01*
X268168500Y-73325000D02*
G75*
G03*
X268668500Y-73825000I500000J0D01*
G01*
X282168500Y-60325000D02*
G75*
G03*
X281668500Y-59825000I-500000J0D01*
G01*
X244356000Y-130475000D02*
X244356000Y-117475000D01*
X247237500Y-97925000D02*
G75*
G03*
X246737500Y-98425000I0J-500000D01*
G01*
X144843500Y-97925000D02*
X157843500Y-97925000D01*
X207231000Y-117475000D02*
G75*
G03*
X206731000Y-116975000I-500000J0D01*
G01*
X221043500Y-116975000D02*
X234043500Y-116975000D01*
X78168500Y-78875000D02*
G75*
G03*
X77668500Y-79375000I0J-500000D01*
G01*
X153081000Y-54775000D02*
G75*
G03*
X153581000Y-54275000I0J500000D01*
G01*
X177681000Y-54275000D02*
G75*
G03*
X178181000Y-54775000I500000J0D01*
G01*
X77668500Y-92375000D02*
G75*
G03*
X78168500Y-92875000I500000J0D01*
G01*
X196443500Y-98425000D02*
G75*
G03*
X195943500Y-97925000I-500000J0D01*
G01*
X94931000Y-38250000D02*
X93620366Y-33007464D01*
X268668500Y-130975000D02*
X281668500Y-130975000D01*
X249274750Y-78875050D02*
G75*
G03*
X248774750Y-79375000I-50J-499950D01*
G01*
X195943500Y-111925000D02*
G75*
G03*
X196443500Y-111425000I0J500000D01*
G01*
X159131000Y-40775000D02*
X172131000Y-40775000D01*
X181656000Y-73825000D02*
G75*
G03*
X182156000Y-73325000I0J500000D01*
G01*
X225806000Y-59825000D02*
G75*
G03*
X225306000Y-60325000I0J-500000D01*
G01*
X14281000Y-38250000D02*
X5706000Y-38250000D01*
X220543500Y-111425000D02*
G75*
G03*
X221043500Y-111925000I500000J0D01*
G01*
X111006000Y-73325000D02*
G75*
G03*
X111506000Y-73825000I500000J0D01*
G01*
X24493500Y-73825000D02*
G75*
G03*
X24993500Y-73325000I0J500000D01*
G01*
X26874750Y-78875000D02*
X9112250Y-78875000D01*
X44331000Y-54275000D02*
G75*
G03*
X44831000Y-54775000I500000J0D01*
G01*
X205468500Y-92875000D02*
X192468500Y-92875000D01*
X244856000Y-116975000D02*
X257856000Y-116975000D01*
X35306000Y-59825000D02*
X48306000Y-59825000D01*
X206731000Y-130975000D02*
X200731000Y-130975000D01*
X72618500Y-79375000D02*
G75*
G03*
X72118500Y-78875000I-500000J0D01*
G01*
X101981000Y-54775000D02*
X114981000Y-54775000D01*
X282168500Y-60325000D02*
X282168500Y-60912000D01*
X38781000Y-54775000D02*
G75*
G03*
X39281000Y-54275000I0J500000D01*
G01*
X140081000Y-40775000D02*
G75*
G03*
X139581000Y-41275000I0J-500000D01*
G01*
X134531000Y-41275000D02*
G75*
G03*
X134031000Y-40775000I-500000J0D01*
G01*
X220256000Y-60325000D02*
G75*
G03*
X219756000Y-59825000I-500000J0D01*
G01*
X76881000Y-54775000D02*
G75*
G03*
X77381000Y-54275000I0J500000D01*
G01*
X95931000Y-54775000D02*
X82931000Y-54775000D01*
X153081000Y-54775000D02*
X140081000Y-54775000D01*
X167868500Y-79375000D02*
X167868500Y-92375000D01*
X247824200Y-113425000D02*
G75*
G03*
X248324250Y-113925000I500100J100D01*
G01*
X168656000Y-59825000D02*
X181656000Y-59825000D01*
X124506000Y-73825000D02*
G75*
G03*
X125006000Y-73325000I0J500000D01*
G01*
X230068500Y-92375000D02*
G75*
G03*
X230568500Y-92875000I500000J0D01*
G01*
X82931000Y-40775000D02*
G75*
G03*
X82431000Y-41275000I0J-500000D01*
G01*
X139581000Y-54275000D02*
G75*
G03*
X140081000Y-54775000I500000J0D01*
G01*
X281668500Y-116975000D02*
X268668500Y-116975000D01*
X82431000Y-54275000D02*
G75*
G03*
X82931000Y-54775000I500000J0D01*
G01*
X230568500Y-78875000D02*
G75*
G03*
X230068500Y-79375000I0J-500000D01*
G01*
X173418500Y-78875000D02*
G75*
G03*
X172918500Y-79375000I0J-500000D01*
G01*
X24993500Y-73325000D02*
X24993500Y-60325000D01*
X24493500Y-59825000D02*
X11493500Y-59825000D01*
X120531000Y-41275000D02*
X120531000Y-54275000D01*
X72618500Y-130475000D02*
X72618500Y-117475000D01*
X91181000Y-35250000D02*
G75*
G03*
X91181000Y-35250000I-1750000J0D01*
G01*
X254968000Y-56275000D02*
X254968000Y-54775000D01*
X219756000Y-73825000D02*
G75*
G03*
X220256000Y-73325000I0J500000D01*
G01*
X148318500Y-92875000D02*
G75*
G03*
X148818500Y-92375000I0J500000D01*
G01*
X8612200Y-92375000D02*
G75*
G03*
X9112250Y-92875000I500100J100D01*
G01*
X253881000Y-54275000D02*
G75*
G03*
X254381000Y-54775000I500000J0D01*
G01*
X21531000Y-136500000D02*
G75*
G03*
X21531000Y-136500000I-1750000J0D01*
G01*
X252586750Y-92875000D02*
X249274750Y-92875000D01*
X254824250Y-111925000D02*
X254824250Y-113425000D01*
X59118500Y-116975000D02*
G75*
G03*
X58618500Y-117475000I0J-500000D01*
G01*
X91168500Y-92875000D02*
G75*
G03*
X91668500Y-92375000I0J500000D01*
G01*
X257856000Y-73825000D02*
G75*
G03*
X258356000Y-73325000I0J500000D01*
G01*
X283549750Y-61412000D02*
X283549750Y-67412000D01*
X58618500Y-117475000D02*
X58618500Y-130475000D01*
X286931000Y-41275000D02*
G75*
G03*
X286431000Y-40775000I-500000J0D01*
G01*
X54356000Y-73825000D02*
X67356000Y-73825000D01*
X105456000Y-73825000D02*
G75*
G03*
X105956000Y-73325000I0J500000D01*
G01*
X205468500Y-92875000D02*
G75*
G03*
X205968500Y-92375000I0J500000D01*
G01*
X97218500Y-78875000D02*
G75*
G03*
X96718500Y-79375000I0J-500000D01*
G01*
X278844000Y-56275000D02*
G75*
G03*
X279344000Y-56775000I500000J0D01*
G01*
X23000224Y-139500023D02*
G75*
G03*
X23970366Y-138742536I-24J1000023D01*
G01*
X282168500Y-67912000D02*
X282168500Y-69350000D01*
X253881000Y-54275000D02*
X253881000Y-41275000D01*
X82931000Y-40775000D02*
X95931000Y-40775000D01*
X152081000Y-133500000D02*
X267881000Y-133500000D01*
X234543500Y-117475000D02*
G75*
G03*
X234043500Y-116975000I-500000J0D01*
G01*
X24993500Y-117475000D02*
X24993500Y-130475000D01*
X172131000Y-54775000D02*
G75*
G03*
X172631000Y-54275000I0J500000D01*
G01*
X49093500Y-111425000D02*
G75*
G03*
X49593500Y-111925000I500000J0D01*
G01*
X5706000Y-133500000D02*
X14281000Y-133500000D01*
X130556000Y-59825000D02*
G75*
G03*
X130056000Y-60325000I0J-500000D01*
G01*
X286931000Y-98425000D02*
G75*
G03*
X286431000Y-97925000I-500000J0D01*
G01*
X286431000Y-111925000D02*
G75*
G03*
X286931000Y-111425000I0J500000D01*
G01*
X40575250Y-111925000D02*
X43887250Y-111925000D01*
X83931000Y-38250000D02*
X25281000Y-38250000D01*
X100693500Y-111925000D02*
G75*
G03*
X101193500Y-111425000I0J500000D01*
G01*
X224518500Y-92875000D02*
X211518500Y-92875000D01*
X11493500Y-116975000D02*
X24493500Y-116975000D01*
X129268500Y-92875000D02*
G75*
G03*
X129768500Y-92375000I0J500000D01*
G01*
X67356000Y-59825000D02*
X54356000Y-59825000D01*
X197231000Y-40775000D02*
X210231000Y-40775000D01*
X206756000Y-59825000D02*
G75*
G03*
X206256000Y-60325000I0J-500000D01*
G01*
X9699200Y-113425000D02*
G75*
G03*
X10199250Y-113925000I500100J100D01*
G01*
X270549750Y-78875000D02*
X270549750Y-73825000D01*
X162606000Y-73825000D02*
X149606000Y-73825000D01*
X135318500Y-78875000D02*
X148318500Y-78875000D01*
X257856000Y-130975000D02*
X244856000Y-130975000D01*
X92431000Y-130975000D02*
G75*
G03*
X92931000Y-130475000I0J500000D01*
G01*
X86906000Y-73325000D02*
X86906000Y-60325000D01*
X15591583Y-138742549D02*
G75*
G03*
X16561776Y-139500000I970217J242649D01*
G01*
X244356000Y-73325000D02*
G75*
G03*
X244856000Y-73825000I500000J0D01*
G01*
X67356000Y-73825000D02*
G75*
G03*
X67856000Y-73325000I0J500000D01*
G01*
X229281000Y-54775000D02*
X216281000Y-54775000D01*
X91668500Y-79375000D02*
G75*
G03*
X91168500Y-78875000I-500000J0D01*
G01*
X244856000Y-116975000D02*
G75*
G03*
X244356000Y-117475000I0J-500000D01*
G01*
X67856000Y-60325000D02*
G75*
G03*
X67356000Y-59825000I-500000J0D01*
G01*
X6731000Y-54775000D02*
X19731000Y-54775000D01*
X268668500Y-59825000D02*
G75*
G03*
X268168500Y-60325000I0J-500000D01*
G01*
X72118500Y-92875000D02*
X59118500Y-92875000D01*
X172631000Y-41275000D02*
X172631000Y-54275000D01*
X257856000Y-73825000D02*
X244856000Y-73825000D01*
X106743500Y-111925000D02*
X119743500Y-111925000D01*
X230568500Y-78875000D02*
X243568500Y-78875000D01*
X6231000Y-54275000D02*
G75*
G03*
X6731000Y-54775000I500000J0D01*
G01*
X143556000Y-73825000D02*
G75*
G03*
X144056000Y-73325000I0J500000D01*
G01*
X141081000Y-133500000D02*
X142391634Y-138742536D01*
X254968000Y-56275000D02*
G75*
G03*
X255468000Y-56775000I500000J0D01*
G01*
X209231000Y-38250000D02*
X207920366Y-33007464D01*
X181656000Y-73825000D02*
X168656000Y-73825000D01*
X21531000Y-35250000D02*
G75*
G03*
X21531000Y-35250000I-1750000J0D01*
G01*
X186418500Y-92875000D02*
G75*
G03*
X186918500Y-92375000I0J500000D01*
G01*
X14281000Y-133500000D02*
X15591634Y-138742536D01*
X275131000Y-136500000D02*
G75*
G03*
X275131000Y-136500000I-1750000J0D01*
G01*
X25781000Y-54775000D02*
X38781000Y-54775000D01*
X244356000Y-73325000D02*
X244356000Y-60325000D01*
X119743500Y-111925000D02*
G75*
G03*
X120243500Y-111425000I0J500000D01*
G01*
X140081000Y-116975000D02*
G75*
G03*
X139581000Y-117475000I0J-500000D01*
G01*
X114981000Y-40775000D02*
X101981000Y-40775000D01*
X150770366Y-138742536D02*
X152081000Y-133500000D01*
X268168500Y-73325000D02*
X268168500Y-60325000D01*
X238806000Y-59825000D02*
X225806000Y-59825000D01*
X186918500Y-92375000D02*
X186918500Y-79375000D01*
X24993500Y-117475000D02*
G75*
G03*
X24493500Y-116975000I-500000J0D01*
G01*
X167868500Y-79375000D02*
G75*
G03*
X167368500Y-78875000I-500000J0D01*
G01*
X53568500Y-92375000D02*
X53568500Y-79375000D01*
X143361776Y-139500000D02*
X149800224Y-139500000D01*
X106243500Y-111425000D02*
G75*
G03*
X106743500Y-111925000I500000J0D01*
G01*
X87193500Y-111425000D02*
G75*
G03*
X87693500Y-111925000I500000J0D01*
G01*
X200731000Y-116975000D02*
X206731000Y-116975000D01*
X261468000Y-56775000D02*
X255468000Y-56775000D01*
X58331000Y-41275000D02*
G75*
G03*
X57831000Y-40775000I-500000J0D01*
G01*
X16699250Y-113425000D02*
X16699250Y-111925000D01*
X282168500Y-60912000D02*
X283049750Y-60912000D01*
X67856000Y-73325000D02*
X67856000Y-60325000D01*
X48806000Y-117475000D02*
X48806000Y-130475000D01*
X258356000Y-117475000D02*
X258356000Y-130475000D01*
X153581000Y-41275000D02*
X153581000Y-54275000D01*
X186918500Y-79375000D02*
G75*
G03*
X186418500Y-78875000I-500000J0D01*
G01*
X268168500Y-117475000D02*
X268168500Y-130475000D01*
X34806000Y-130475000D02*
G75*
G03*
X35306000Y-130975000I500000J0D01*
G01*
X229781000Y-41275000D02*
X229781000Y-54275000D01*
X114981000Y-54775000D02*
G75*
G03*
X115481000Y-54275000I0J500000D01*
G01*
X201206000Y-60325000D02*
X201206000Y-73325000D01*
X287456000Y-38250000D02*
X278881000Y-38250000D01*
X259586750Y-92875000D02*
X259586750Y-94375000D01*
X105456000Y-73825000D02*
X92456000Y-73825000D01*
X277570417Y-33007451D02*
G75*
G03*
X276600224Y-32250000I-970217J-242649D01*
G01*
X130056000Y-60325000D02*
X130056000Y-73325000D01*
X248774750Y-92375000D02*
X248774750Y-79375000D01*
X125293500Y-111425000D02*
X125293500Y-98425000D01*
X282168500Y-130475000D02*
X282168500Y-117475000D01*
X115768500Y-92375000D02*
G75*
G03*
X116268500Y-92875000I500000J0D01*
G01*
X10993500Y-60325000D02*
X10993500Y-73325000D01*
X282962750Y-94875050D02*
G75*
G03*
X283462750Y-94375000I-50J500050D01*
G01*
X177393500Y-98425000D02*
G75*
G03*
X176893500Y-97925000I-500000J0D01*
G01*
X129268500Y-78875000D02*
X116268500Y-78875000D01*
X271700250Y-111925000D02*
X254824250Y-111925000D01*
X20231000Y-41275000D02*
G75*
G03*
X19731000Y-40775000I-500000J0D01*
G01*
X216281000Y-40775000D02*
G75*
G03*
X215781000Y-41275000I0J-500000D01*
G01*
X283549700Y-61412000D02*
G75*
G03*
X283049750Y-60912000I-500000J0D01*
G01*
X284549750Y-69850000D02*
X284549750Y-82850000D01*
X220543500Y-98425000D02*
X220543500Y-111425000D01*
X58618500Y-92375000D02*
X58618500Y-79375000D01*
X187706000Y-59825000D02*
G75*
G03*
X187206000Y-60325000I0J-500000D01*
G01*
X238806000Y-73825000D02*
G75*
G03*
X239306000Y-73325000I0J500000D01*
G01*
X125793500Y-97925000D02*
G75*
G03*
X125293500Y-98425000I0J-500000D01*
G01*
M02*
