%TF.GenerationSoftware,KiCad,Pcbnew,(6.0.8)*%
%TF.CreationDate,2022-10-24T21:08:13+02:00*%
%TF.ProjectId,cod67-iso,636f6436-372d-4697-936f-2e6b69636164,rev?*%
%TF.SameCoordinates,Original*%
%TF.FileFunction,Soldermask,Bot*%
%TF.FilePolarity,Negative*%
%FSLAX46Y46*%
G04 Gerber Fmt 4.6, Leading zero omitted, Abs format (unit mm)*
G04 Created by KiCad (PCBNEW (6.0.8)) date 2022-10-24 21:08:13*
%MOMM*%
%LPD*%
G01*
G04 APERTURE LIST*
G04 Aperture macros list*
%AMRoundRect*
0 Rectangle with rounded corners*
0 $1 Rounding radius*
0 $2 $3 $4 $5 $6 $7 $8 $9 X,Y pos of 4 corners*
0 Add a 4 corners polygon primitive as box body*
4,1,4,$2,$3,$4,$5,$6,$7,$8,$9,$2,$3,0*
0 Add four circle primitives for the rounded corners*
1,1,$1+$1,$2,$3*
1,1,$1+$1,$4,$5*
1,1,$1+$1,$6,$7*
1,1,$1+$1,$8,$9*
0 Add four rect primitives between the rounded corners*
20,1,$1+$1,$2,$3,$4,$5,0*
20,1,$1+$1,$4,$5,$6,$7,0*
20,1,$1+$1,$6,$7,$8,$9,0*
20,1,$1+$1,$8,$9,$2,$3,0*%
G04 Aperture macros list end*
%ADD10C,3.987800*%
%ADD11C,1.750000*%
%ADD12C,2.500000*%
%ADD13C,1.701800*%
%ADD14C,3.048000*%
%ADD15C,2.250000*%
%ADD16R,1.100000X1.100000*%
%ADD17R,1.500000X0.900000*%
%ADD18RoundRect,0.250000X-0.250000X-0.475000X0.250000X-0.475000X0.250000X0.475000X-0.250000X0.475000X0*%
%ADD19RoundRect,0.250000X-0.475000X0.250000X-0.475000X-0.250000X0.475000X-0.250000X0.475000X0.250000X0*%
%ADD20RoundRect,0.250000X0.475000X-0.250000X0.475000X0.250000X-0.475000X0.250000X-0.475000X-0.250000X0*%
%ADD21RoundRect,0.250000X0.450000X-0.262500X0.450000X0.262500X-0.450000X0.262500X-0.450000X-0.262500X0*%
%ADD22RoundRect,0.243750X0.456250X-0.243750X0.456250X0.243750X-0.456250X0.243750X-0.456250X-0.243750X0*%
%ADD23R,1.200000X1.400000*%
%ADD24RoundRect,0.250000X-0.262500X-0.450000X0.262500X-0.450000X0.262500X0.450000X-0.262500X0.450000X0*%
%ADD25R,0.700000X1.000000*%
%ADD26R,0.700000X0.600000*%
%ADD27R,0.900000X1.500000*%
%ADD28C,1.700000*%
%ADD29R,1.700000X1.700000*%
%ADD30RoundRect,0.250000X0.262500X0.450000X-0.262500X0.450000X-0.262500X-0.450000X0.262500X-0.450000X0*%
%ADD31RoundRect,0.250000X-0.325000X-0.450000X0.325000X-0.450000X0.325000X0.450000X-0.325000X0.450000X0*%
%ADD32RoundRect,0.062500X-0.062500X0.475000X-0.062500X-0.475000X0.062500X-0.475000X0.062500X0.475000X0*%
%ADD33RoundRect,0.062500X-0.475000X0.062500X-0.475000X-0.062500X0.475000X-0.062500X0.475000X0.062500X0*%
%ADD34R,5.200000X5.200000*%
%ADD35RoundRect,0.250000X0.250000X0.475000X-0.250000X0.475000X-0.250000X-0.475000X0.250000X-0.475000X0*%
%ADD36C,0.650000*%
%ADD37R,0.600000X1.450000*%
%ADD38R,0.300000X1.450000*%
%ADD39O,1.000000X1.600000*%
%ADD40O,1.000000X2.100000*%
%ADD41R,1.800000X1.100000*%
%ADD42C,0.800000*%
G04 APERTURE END LIST*
D10*
%TO.C,MX22*%
X169068750Y-70643750D03*
D11*
X163988750Y-70643750D03*
X174148750Y-70643750D03*
D12*
X165258750Y-68103750D03*
X171608750Y-65563750D03*
%TD*%
D11*
%TO.C,MX31*%
X83661250Y-89693750D03*
D10*
X78581250Y-89693750D03*
D11*
X73501250Y-89693750D03*
D12*
X74771250Y-87153750D03*
X81121250Y-84613750D03*
%TD*%
D10*
%TO.C,MX25*%
X226218750Y-70643750D03*
D11*
X221138750Y-70643750D03*
X231298750Y-70643750D03*
D12*
X222408750Y-68103750D03*
X228758750Y-65563750D03*
%TD*%
D10*
%TO.C,MX45*%
X88106250Y-108743750D03*
D11*
X93186250Y-108743750D03*
X83026250Y-108743750D03*
D12*
X84296250Y-106203750D03*
X90646250Y-103663750D03*
%TD*%
D11*
%TO.C,MX6*%
X135413750Y-51593750D03*
X145573750Y-51593750D03*
D10*
X140493750Y-51593750D03*
D12*
X136683750Y-49053750D03*
X143033750Y-46513750D03*
%TD*%
D11*
%TO.C,MX19*%
X116998750Y-70643750D03*
D10*
X111918750Y-70643750D03*
D11*
X106838750Y-70643750D03*
D12*
X108108750Y-68103750D03*
X114458750Y-65563750D03*
%TD*%
D11*
%TO.C,MX30*%
X42544500Y-89693750D03*
D10*
X47624500Y-89693750D03*
X52387500Y-89693750D03*
D11*
X57467500Y-89693750D03*
D12*
X43814500Y-87153750D03*
X48577500Y-87153750D03*
X50164500Y-84613750D03*
X54927500Y-84613750D03*
%TD*%
D10*
%TO.C,MX33*%
X116681250Y-89693750D03*
D11*
X121761250Y-89693750D03*
X111601250Y-89693750D03*
D12*
X112871250Y-87153750D03*
X119221250Y-84613750D03*
%TD*%
D10*
%TO.C,MX42*%
X288131250Y-89693750D03*
D11*
X293211250Y-89693750D03*
X283051250Y-89693750D03*
D12*
X284321250Y-87153750D03*
X290671250Y-84613750D03*
%TD*%
D11*
%TO.C,MX56*%
X317023750Y-108743750D03*
X306863750Y-108743750D03*
D10*
X311943750Y-108743750D03*
D12*
X308133750Y-106203750D03*
X314483750Y-103663750D03*
%TD*%
D13*
%TO.C,MX29*%
X309562500Y-75088750D03*
D14*
X302577500Y-92106750D03*
X302577500Y-68230750D03*
D10*
X317817500Y-68230750D03*
X317817500Y-92106750D03*
X309562500Y-80168750D03*
D13*
X309562500Y-85248750D03*
D12*
X312102500Y-76358750D03*
X314642500Y-82708750D03*
%TD*%
D14*
%TO.C,MX60*%
X235743750Y-134778750D03*
X121443750Y-134778750D03*
D11*
X183673750Y-127793750D03*
D10*
X235743750Y-119538750D03*
D11*
X173513750Y-127793750D03*
D10*
X121443750Y-119538750D03*
X178593750Y-127793750D03*
D12*
X174783750Y-125253750D03*
X181133750Y-122713750D03*
%TD*%
D11*
%TO.C,MX37*%
X197961250Y-89693750D03*
D10*
X192881250Y-89693750D03*
D11*
X187801250Y-89693750D03*
D12*
X189071250Y-87153750D03*
X195421250Y-84613750D03*
%TD*%
D10*
%TO.C,MX28*%
X283368750Y-70643750D03*
D11*
X278288750Y-70643750D03*
X288448750Y-70643750D03*
D12*
X279558750Y-68103750D03*
X285908750Y-65563750D03*
%TD*%
D11*
%TO.C,MX5*%
X126523750Y-51593750D03*
X116363750Y-51593750D03*
D10*
X121443750Y-51593750D03*
D12*
X117633750Y-49053750D03*
X123983750Y-46513750D03*
%TD*%
D11*
%TO.C,MX61*%
X264636250Y-127793750D03*
X254476250Y-127793750D03*
D10*
X259556250Y-127793750D03*
D15*
X255746250Y-125253750D03*
D12*
X262096250Y-122713750D03*
%TD*%
D10*
%TO.C,MX35*%
X154781250Y-89693750D03*
D11*
X149701250Y-89693750D03*
X159861250Y-89693750D03*
D12*
X150971250Y-87153750D03*
X157321250Y-84613750D03*
%TD*%
D11*
%TO.C,MX34*%
X140811250Y-89693750D03*
X130651250Y-89693750D03*
D10*
X135731250Y-89693750D03*
D12*
X131921250Y-87153750D03*
X138271250Y-84613750D03*
%TD*%
D10*
%TO.C,MX14*%
X292893750Y-51593750D03*
D11*
X297973750Y-51593750D03*
X287813750Y-51593750D03*
D12*
X289083750Y-49053750D03*
X295433750Y-46513750D03*
%TD*%
D11*
%TO.C,MX53*%
X245586250Y-108743750D03*
D10*
X240506250Y-108743750D03*
D11*
X235426250Y-108743750D03*
D12*
X236696250Y-106203750D03*
X243046250Y-103663750D03*
%TD*%
D11*
%TO.C,MX42b1*%
X305117500Y-89693750D03*
X294957500Y-89693750D03*
D10*
X288131250Y-97948750D03*
X300037500Y-89693750D03*
X311943750Y-97948750D03*
D14*
X288131250Y-82708750D03*
X311943750Y-82708750D03*
D12*
X296227500Y-87153750D03*
X302577500Y-84613750D03*
%TD*%
D11*
%TO.C,MX2*%
X59213750Y-51593750D03*
X69373750Y-51593750D03*
D10*
X64293750Y-51593750D03*
D12*
X60483750Y-49053750D03*
X66833750Y-46513750D03*
%TD*%
D10*
%TO.C,MX23*%
X188118750Y-70643750D03*
D11*
X183038750Y-70643750D03*
X193198750Y-70643750D03*
D12*
X184308750Y-68103750D03*
X190658750Y-65563750D03*
%TD*%
D11*
%TO.C,MX15b1*%
X297338750Y-51593750D03*
D10*
X290512500Y-59848750D03*
D14*
X314325000Y-44608750D03*
X290512500Y-44608750D03*
D11*
X307498750Y-51593750D03*
D10*
X314325000Y-59848750D03*
X302418750Y-51593750D03*
D12*
X298608750Y-49053750D03*
X304958750Y-46513750D03*
%TD*%
D11*
%TO.C,MX10*%
X221773750Y-51593750D03*
D10*
X216693750Y-51593750D03*
D11*
X211613750Y-51593750D03*
D12*
X212883750Y-49053750D03*
X219233750Y-46513750D03*
%TD*%
D10*
%TO.C,MX9*%
X197643750Y-51593750D03*
D11*
X192563750Y-51593750D03*
X202723750Y-51593750D03*
D12*
X193833750Y-49053750D03*
X200183750Y-46513750D03*
%TD*%
D11*
%TO.C,MX47*%
X121126250Y-108743750D03*
X131286250Y-108743750D03*
D10*
X126206250Y-108743750D03*
D12*
X122396250Y-106203750D03*
X128746250Y-103663750D03*
%TD*%
D11*
%TO.C,MX21*%
X144938750Y-70643750D03*
X155098750Y-70643750D03*
D10*
X150018750Y-70643750D03*
D12*
X146208750Y-68103750D03*
X152558750Y-65563750D03*
%TD*%
D11*
%TO.C,MX13*%
X268763750Y-51593750D03*
X278923750Y-51593750D03*
D10*
X273843750Y-51593750D03*
D12*
X270033750Y-49053750D03*
X276383750Y-46513750D03*
%TD*%
D10*
%TO.C,MX38*%
X211931250Y-89693750D03*
D11*
X206851250Y-89693750D03*
X217011250Y-89693750D03*
D12*
X208121250Y-87153750D03*
X214471250Y-84613750D03*
%TD*%
D10*
%TO.C,MX39*%
X230981250Y-89693750D03*
D11*
X225901250Y-89693750D03*
X236061250Y-89693750D03*
D12*
X227171250Y-87153750D03*
X233521250Y-84613750D03*
%TD*%
D11*
%TO.C,MX51*%
X207486250Y-108743750D03*
X197326250Y-108743750D03*
D10*
X202406250Y-108743750D03*
D12*
X198596250Y-106203750D03*
X204946250Y-103663750D03*
%TD*%
D11*
%TO.C,MX3*%
X78263750Y-51593750D03*
D10*
X83343750Y-51593750D03*
D11*
X88423750Y-51593750D03*
D12*
X79533750Y-49053750D03*
X85883750Y-46513750D03*
%TD*%
D11*
%TO.C,MX48*%
X150336250Y-108743750D03*
X140176250Y-108743750D03*
D10*
X145256250Y-108743750D03*
D12*
X141446250Y-106203750D03*
X147796250Y-103663750D03*
%TD*%
D10*
%TO.C,MX49*%
X164306250Y-108743750D03*
D11*
X169386250Y-108743750D03*
X159226250Y-108743750D03*
D12*
X160496250Y-106203750D03*
X166846250Y-103663750D03*
%TD*%
D11*
%TO.C,MX59*%
X102711250Y-127793750D03*
D10*
X97631250Y-127793750D03*
D11*
X92551250Y-127793750D03*
D15*
X93821250Y-125253750D03*
D12*
X100171250Y-122713750D03*
%TD*%
D11*
%TO.C,MX43*%
X42545000Y-108743750D03*
X52705000Y-108743750D03*
D10*
X47625000Y-108743750D03*
D12*
X43815000Y-106203750D03*
X50165000Y-103663750D03*
%TD*%
D11*
%TO.C,MX12*%
X249713750Y-51593750D03*
X259873750Y-51593750D03*
D10*
X254793750Y-51593750D03*
D12*
X250983750Y-49053750D03*
X257333750Y-46513750D03*
%TD*%
D11*
%TO.C,MX20*%
X136048750Y-70643750D03*
D10*
X130968750Y-70643750D03*
D11*
X125888750Y-70643750D03*
D12*
X127158750Y-68103750D03*
X133508750Y-65563750D03*
%TD*%
D11*
%TO.C,MX43b1*%
X52070000Y-108743750D03*
D10*
X57150000Y-108743750D03*
X45243750Y-116998750D03*
X69056250Y-116998750D03*
D14*
X45243750Y-101758750D03*
X69056250Y-101758750D03*
D11*
X62230000Y-108743750D03*
D12*
X53340000Y-106203750D03*
X59690000Y-103663750D03*
%TD*%
D11*
%TO.C,MX62*%
X278288750Y-127793750D03*
X288448750Y-127793750D03*
D10*
X283368750Y-127793750D03*
D12*
X279558750Y-125253750D03*
X285908750Y-122713750D03*
%TD*%
D11*
%TO.C,MX17*%
X78898750Y-70643750D03*
X68738750Y-70643750D03*
D10*
X73818750Y-70643750D03*
D12*
X70008750Y-68103750D03*
X76358750Y-65563750D03*
%TD*%
D10*
%TO.C,MX15*%
X311943750Y-51593750D03*
D11*
X306863750Y-51593750D03*
X317023750Y-51593750D03*
D12*
X308133750Y-49053750D03*
X314483750Y-46513750D03*
%TD*%
D10*
%TO.C,MX58*%
X73818750Y-127793750D03*
D11*
X68738750Y-127793750D03*
X78898750Y-127793750D03*
D12*
X70008750Y-125253750D03*
X76358750Y-122713750D03*
%TD*%
D10*
%TO.C,MX7*%
X159543750Y-51593750D03*
D11*
X154463750Y-51593750D03*
X164623750Y-51593750D03*
D12*
X155733750Y-49053750D03*
X162083750Y-46513750D03*
%TD*%
D11*
%TO.C,MX56b1*%
X300355000Y-108743750D03*
D14*
X283337000Y-101758750D03*
D10*
X307213000Y-116998750D03*
X283337000Y-116998750D03*
D11*
X290195000Y-108743750D03*
D14*
X307213000Y-101758750D03*
D10*
X295275000Y-108743750D03*
D12*
X291465000Y-106203750D03*
X297815000Y-103663750D03*
%TD*%
D11*
%TO.C,MX57*%
X55086250Y-127793750D03*
X44926250Y-127793750D03*
D10*
X50006250Y-127793750D03*
D15*
X46196250Y-125253750D03*
D12*
X52546250Y-122713750D03*
%TD*%
D10*
%TO.C,MX63*%
X307181250Y-127793750D03*
D11*
X302101250Y-127793750D03*
X312261250Y-127793750D03*
D15*
X303371250Y-125253750D03*
D12*
X309721250Y-122713750D03*
%TD*%
D10*
%TO.C,MX40*%
X250031250Y-89693750D03*
D11*
X255111250Y-89693750D03*
X244951250Y-89693750D03*
D12*
X246221250Y-87153750D03*
X252571250Y-84613750D03*
%TD*%
D11*
%TO.C,MX55*%
X290830000Y-108743750D03*
X280670000Y-108743750D03*
D10*
X285750000Y-108743750D03*
D12*
X281940000Y-106203750D03*
X288290000Y-103663750D03*
%TD*%
D11*
%TO.C,MX29b1*%
X312261250Y-70643750D03*
X302101250Y-70643750D03*
D10*
X307181250Y-70643750D03*
D15*
X310991250Y-73183750D03*
D12*
X304641250Y-75723750D03*
%TD*%
D11*
%TO.C,MX1*%
X40163750Y-51593750D03*
X50323750Y-51593750D03*
D10*
X45243750Y-51593750D03*
D12*
X41433750Y-49053750D03*
X47783750Y-46513750D03*
%TD*%
D11*
%TO.C,MX8*%
X183673750Y-51593750D03*
D10*
X178593750Y-51593750D03*
D11*
X173513750Y-51593750D03*
D12*
X174783750Y-49053750D03*
X181133750Y-46513750D03*
%TD*%
D10*
%TO.C,MX24*%
X207168750Y-70643750D03*
D11*
X212248750Y-70643750D03*
X202088750Y-70643750D03*
D12*
X203358750Y-68103750D03*
X209708750Y-65563750D03*
%TD*%
D11*
%TO.C,MX18*%
X87788750Y-70643750D03*
X97948750Y-70643750D03*
D10*
X92868750Y-70643750D03*
D12*
X89058750Y-68103750D03*
X95408750Y-65563750D03*
%TD*%
D10*
%TO.C,MX4*%
X102393750Y-51593750D03*
D11*
X97313750Y-51593750D03*
X107473750Y-51593750D03*
D12*
X98583750Y-49053750D03*
X104933750Y-46513750D03*
%TD*%
D11*
%TO.C,MX52*%
X226536250Y-108743750D03*
D10*
X221456250Y-108743750D03*
D11*
X216376250Y-108743750D03*
D12*
X217646250Y-106203750D03*
X223996250Y-103663750D03*
%TD*%
D11*
%TO.C,MX41*%
X264001250Y-89693750D03*
X274161250Y-89693750D03*
D10*
X269081250Y-89693750D03*
D12*
X265271250Y-87153750D03*
X271621250Y-84613750D03*
%TD*%
D10*
%TO.C,MX44*%
X69056250Y-108743750D03*
D11*
X63976250Y-108743750D03*
X74136250Y-108743750D03*
D12*
X65246250Y-106203750D03*
X71596250Y-103663750D03*
%TD*%
D11*
%TO.C,MX32*%
X92551250Y-89693750D03*
X102711250Y-89693750D03*
D10*
X97631250Y-89693750D03*
D12*
X93821250Y-87153750D03*
X100171250Y-84613750D03*
%TD*%
D11*
%TO.C,MX16*%
X55086250Y-70643750D03*
D10*
X50006250Y-70643750D03*
D11*
X44926250Y-70643750D03*
D15*
X46196250Y-68103750D03*
D12*
X52546250Y-65563750D03*
%TD*%
D10*
%TO.C,MX27*%
X264318750Y-70643750D03*
D11*
X269398750Y-70643750D03*
X259238750Y-70643750D03*
D12*
X260508750Y-68103750D03*
X266858750Y-65563750D03*
%TD*%
D10*
%TO.C,MX26*%
X245268750Y-70643750D03*
D11*
X240188750Y-70643750D03*
X250348750Y-70643750D03*
D12*
X241458750Y-68103750D03*
X247808750Y-65563750D03*
%TD*%
D11*
%TO.C,MX50*%
X178276250Y-108743750D03*
X188436250Y-108743750D03*
D10*
X183356250Y-108743750D03*
D12*
X179546250Y-106203750D03*
X185896250Y-103663750D03*
%TD*%
D10*
%TO.C,MX46*%
X107156250Y-108743750D03*
D11*
X102076250Y-108743750D03*
X112236250Y-108743750D03*
D12*
X103346250Y-106203750D03*
X109696250Y-103663750D03*
%TD*%
D11*
%TO.C,MX54*%
X254476250Y-108743750D03*
D10*
X259556250Y-108743750D03*
D11*
X264636250Y-108743750D03*
D12*
X255746250Y-106203750D03*
X262096250Y-103663750D03*
%TD*%
D10*
%TO.C,MX36*%
X173831250Y-89693750D03*
D11*
X178911250Y-89693750D03*
X168751250Y-89693750D03*
D12*
X170021250Y-87153750D03*
X176371250Y-84613750D03*
%TD*%
D11*
%TO.C,MX11*%
X240823750Y-51593750D03*
X230663750Y-51593750D03*
D10*
X235743750Y-51593750D03*
D12*
X231933750Y-49053750D03*
X238283750Y-46513750D03*
%TD*%
D16*
%TO.C,D13*%
X279400000Y-56962500D03*
X279400000Y-54162500D03*
%TD*%
D17*
%TO.C,LED19*%
X199956250Y-119918750D03*
X199956250Y-116618750D03*
X204856250Y-116618750D03*
X204856250Y-119918750D03*
%TD*%
D18*
%TO.C,C6*%
X136591000Y-134620000D03*
X138491000Y-134620000D03*
%TD*%
D16*
%TO.C,D60*%
X184150000Y-133956250D03*
X184150000Y-131156250D03*
%TD*%
D18*
%TO.C,C13*%
X37404000Y-74041000D03*
X39304000Y-74041000D03*
%TD*%
D19*
%TO.C,C23*%
X164211000Y-60137000D03*
X164211000Y-62037000D03*
%TD*%
D16*
%TO.C,D43*%
X53181250Y-114906250D03*
X53181250Y-112106250D03*
%TD*%
D20*
%TO.C,C17*%
X83185000Y-120457000D03*
X83185000Y-118557000D03*
%TD*%
D21*
%TO.C,R6*%
X150749000Y-123213500D03*
X150749000Y-121388500D03*
%TD*%
D16*
%TO.C,D61*%
X265112500Y-133768750D03*
X265112500Y-130968750D03*
%TD*%
%TO.C,D42*%
X293687500Y-95856250D03*
X293687500Y-93056250D03*
%TD*%
D17*
%TO.C,LED8*%
X123893750Y-59468750D03*
X123893750Y-62768750D03*
X118993750Y-62768750D03*
X118993750Y-59468750D03*
%TD*%
D22*
%TO.C,F1*%
X168021000Y-55293500D03*
X168021000Y-53418500D03*
%TD*%
D17*
%TO.C,LED7*%
X85793750Y-59468750D03*
X85793750Y-62768750D03*
X80893750Y-62768750D03*
X80893750Y-59468750D03*
%TD*%
D18*
%TO.C,C2*%
X144846000Y-128143000D03*
X146746000Y-128143000D03*
%TD*%
D23*
%TO.C,Y1*%
X141491600Y-128036500D03*
X141491600Y-125836500D03*
X143191600Y-125836500D03*
X143191600Y-128036500D03*
%TD*%
D20*
%TO.C,C28*%
X53975000Y-60894000D03*
X53975000Y-58994000D03*
%TD*%
D16*
%TO.C,D32*%
X103187500Y-95856250D03*
X103187500Y-93056250D03*
%TD*%
D24*
%TO.C,R2*%
X174093500Y-45212000D03*
X175918500Y-45212000D03*
%TD*%
D25*
%TO.C,U2*%
X171688000Y-51701000D03*
D26*
X171688000Y-53401000D03*
X169688000Y-53401000D03*
X169688000Y-51501000D03*
%TD*%
D16*
%TO.C,D23*%
X193675000Y-76806250D03*
X193675000Y-74006250D03*
%TD*%
D17*
%TO.C,LED16*%
X310287500Y-119918750D03*
X310287500Y-116618750D03*
X315187500Y-116618750D03*
X315187500Y-119918750D03*
%TD*%
D16*
%TO.C,D57*%
X55562500Y-133956250D03*
X55562500Y-131156250D03*
%TD*%
D20*
%TO.C,C22*%
X192659000Y-63180000D03*
X192659000Y-61280000D03*
%TD*%
D27*
%TO.C,LED5*%
X37094500Y-77718750D03*
X40394500Y-77718750D03*
X40394500Y-82618750D03*
X37094500Y-82618750D03*
%TD*%
D19*
%TO.C,C12*%
X315087000Y-121986000D03*
X315087000Y-123886000D03*
%TD*%
D16*
%TO.C,D41*%
X274637500Y-95856250D03*
X274637500Y-93056250D03*
%TD*%
D19*
%TO.C,C16*%
X303657000Y-61407000D03*
X303657000Y-63307000D03*
%TD*%
D16*
%TO.C,D20*%
X136525000Y-76806250D03*
X136525000Y-74006250D03*
%TD*%
D28*
%TO.C,J1*%
X155575000Y-124979500D03*
X153035000Y-124979500D03*
X155575000Y-127519500D03*
X153035000Y-127519500D03*
X155575000Y-130059500D03*
D29*
X153035000Y-130059500D03*
%TD*%
D30*
%TO.C,R3*%
X185443500Y-45466000D03*
X183618500Y-45466000D03*
%TD*%
D19*
%TO.C,C26*%
X127000000Y-59121000D03*
X127000000Y-61021000D03*
%TD*%
D16*
%TO.C,D2*%
X69850000Y-56962500D03*
X69850000Y-54162500D03*
%TD*%
D20*
%TO.C,C21*%
X268732000Y-63180000D03*
X268732000Y-61280000D03*
%TD*%
D16*
%TO.C,D55*%
X291306250Y-114906250D03*
X291306250Y-112106250D03*
%TD*%
D20*
%TO.C,C9*%
X88900000Y-61021000D03*
X88900000Y-59121000D03*
%TD*%
D18*
%TO.C,C3*%
X144846000Y-125793500D03*
X146746000Y-125793500D03*
%TD*%
D16*
%TO.C,D19*%
X117475000Y-76806250D03*
X117475000Y-74006250D03*
%TD*%
%TO.C,D40*%
X255587500Y-95856250D03*
X255587500Y-93056250D03*
%TD*%
%TO.C,D15*%
X317500000Y-56962500D03*
X317500000Y-54162500D03*
%TD*%
%TO.C,D53*%
X246253000Y-114938000D03*
X246253000Y-112138000D03*
%TD*%
%TO.C,D29*%
X300831250Y-76806250D03*
X300831250Y-74006250D03*
%TD*%
D31*
%TO.C,FB1*%
X169028000Y-43815000D03*
X171078000Y-43815000D03*
%TD*%
D16*
%TO.C,D37*%
X198437500Y-95856250D03*
X198437500Y-93056250D03*
%TD*%
D32*
%TO.C,U1*%
X131612000Y-123662500D03*
X132112000Y-123662500D03*
X132612000Y-123662500D03*
X133112000Y-123662500D03*
X133612000Y-123662500D03*
X134112000Y-123662500D03*
X134612000Y-123662500D03*
X135112000Y-123662500D03*
X135612000Y-123662500D03*
X136112000Y-123662500D03*
X136612000Y-123662500D03*
D33*
X137449500Y-124500000D03*
X137449500Y-125000000D03*
X137449500Y-125500000D03*
X137449500Y-126000000D03*
X137449500Y-126500000D03*
X137449500Y-127000000D03*
X137449500Y-127500000D03*
X137449500Y-128000000D03*
X137449500Y-128500000D03*
X137449500Y-129000000D03*
X137449500Y-129500000D03*
D32*
X136612000Y-130337500D03*
X136112000Y-130337500D03*
X135612000Y-130337500D03*
X135112000Y-130337500D03*
X134612000Y-130337500D03*
X134112000Y-130337500D03*
X133612000Y-130337500D03*
X133112000Y-130337500D03*
X132612000Y-130337500D03*
X132112000Y-130337500D03*
X131612000Y-130337500D03*
D33*
X130774500Y-129500000D03*
X130774500Y-129000000D03*
X130774500Y-128500000D03*
X130774500Y-128000000D03*
X130774500Y-127500000D03*
X130774500Y-127000000D03*
X130774500Y-126500000D03*
X130774500Y-126000000D03*
X130774500Y-125500000D03*
X130774500Y-125000000D03*
X130774500Y-124500000D03*
D34*
X134112000Y-127000000D03*
%TD*%
D17*
%TO.C,LED13*%
X311218750Y-59468750D03*
X311218750Y-62768750D03*
X306318750Y-62768750D03*
X306318750Y-59468750D03*
%TD*%
%TO.C,LED3*%
X48350000Y-119918750D03*
X48350000Y-116618750D03*
X53250000Y-116618750D03*
X53250000Y-119918750D03*
%TD*%
D16*
%TO.C,D47*%
X131762500Y-114906250D03*
X131762500Y-112106250D03*
%TD*%
%TO.C,D36*%
X179387500Y-95856250D03*
X179387500Y-93056250D03*
%TD*%
%TO.C,D48*%
X150812500Y-114906250D03*
X150812500Y-112106250D03*
%TD*%
%TO.C,D45*%
X93662500Y-114906250D03*
X93662500Y-112106250D03*
%TD*%
%TO.C,D54*%
X265112500Y-115093750D03*
X265112500Y-112293750D03*
%TD*%
%TO.C,D12*%
X260350000Y-56962500D03*
X260350000Y-54162500D03*
%TD*%
%TO.C,D11*%
X241300000Y-56962500D03*
X241300000Y-54162500D03*
%TD*%
%TO.C,D8*%
X184150000Y-56962500D03*
X184150000Y-54162500D03*
%TD*%
%TO.C,D56*%
X317500000Y-114906250D03*
X317500000Y-112106250D03*
%TD*%
%TO.C,D59*%
X103187500Y-133956250D03*
X103187500Y-131156250D03*
%TD*%
%TO.C,D22*%
X174625000Y-76806250D03*
X174625000Y-74006250D03*
%TD*%
%TO.C,D51*%
X207962500Y-114906250D03*
X207962500Y-112106250D03*
%TD*%
D35*
%TO.C,C24*%
X314894000Y-94107000D03*
X312994000Y-94107000D03*
%TD*%
D18*
%TO.C,C15*%
X42738000Y-96774000D03*
X44638000Y-96774000D03*
%TD*%
D16*
%TO.C,D52*%
X227012500Y-114906250D03*
X227012500Y-112106250D03*
%TD*%
D17*
%TO.C,LED20*%
X161856250Y-119918750D03*
X161856250Y-116618750D03*
X166756250Y-116618750D03*
X166756250Y-119918750D03*
%TD*%
D16*
%TO.C,D18*%
X98425000Y-76806250D03*
X98425000Y-74006250D03*
%TD*%
%TO.C,D10*%
X222250000Y-56962500D03*
X222250000Y-54162500D03*
%TD*%
D21*
%TO.C,R5*%
X138811000Y-113307500D03*
X138811000Y-111482500D03*
%TD*%
D16*
%TO.C,D1*%
X50800000Y-56962500D03*
X50800000Y-54162500D03*
%TD*%
%TO.C,D33*%
X122237500Y-95856250D03*
X122237500Y-93056250D03*
%TD*%
%TO.C,D25*%
X231775000Y-76806250D03*
X231775000Y-74006250D03*
%TD*%
%TO.C,D30*%
X57943750Y-95668750D03*
X57943750Y-92868750D03*
%TD*%
D18*
%TO.C,C7*%
X140502600Y-123190000D03*
X142402600Y-123190000D03*
%TD*%
D17*
%TO.C,LED9*%
X161993750Y-59468750D03*
X161993750Y-62768750D03*
X157093750Y-62768750D03*
X157093750Y-59468750D03*
%TD*%
D16*
%TO.C,D31*%
X84137500Y-95856250D03*
X84137500Y-93056250D03*
%TD*%
D27*
%TO.C,LED4*%
X37094500Y-96768750D03*
X40394500Y-96768750D03*
X40394500Y-101668750D03*
X37094500Y-101668750D03*
%TD*%
D16*
%TO.C,D50*%
X188912500Y-114906250D03*
X188912500Y-112106250D03*
%TD*%
%TO.C,D27*%
X269875000Y-76806250D03*
X269875000Y-74006250D03*
%TD*%
%TO.C,D28*%
X288925000Y-76806250D03*
X288925000Y-74006250D03*
%TD*%
%TO.C,D14*%
X298450000Y-56962500D03*
X298450000Y-54162500D03*
%TD*%
%TO.C,D7*%
X165100000Y-56962500D03*
X165100000Y-54162500D03*
%TD*%
%TO.C,D6*%
X146050000Y-56962500D03*
X146050000Y-54162500D03*
%TD*%
%TO.C,D26*%
X250825000Y-76806250D03*
X250825000Y-74006250D03*
%TD*%
%TO.C,D49*%
X169862500Y-114906250D03*
X169862500Y-112106250D03*
%TD*%
D36*
%TO.C,USB1*%
X175703750Y-40700000D03*
X181483750Y-40700000D03*
D37*
X175343750Y-42145000D03*
X176143750Y-42145000D03*
D38*
X177343750Y-42145000D03*
X178343750Y-42145000D03*
X178843750Y-42145000D03*
X179843750Y-42145000D03*
D37*
X181043750Y-42145000D03*
X181843750Y-42145000D03*
X181843750Y-42145000D03*
X181043750Y-42145000D03*
D38*
X180343750Y-42145000D03*
X179343750Y-42145000D03*
X177843750Y-42145000D03*
X176843750Y-42145000D03*
D37*
X176143750Y-42145000D03*
X175343750Y-42145000D03*
D39*
X174273750Y-37050000D03*
X182913750Y-37050000D03*
D40*
X182913750Y-41230000D03*
X174273750Y-41230000D03*
%TD*%
D20*
%TO.C,C18*%
X207899000Y-118679000D03*
X207899000Y-116779000D03*
%TD*%
D16*
%TO.C,D3*%
X88900000Y-56962500D03*
X88900000Y-54162500D03*
%TD*%
D19*
%TO.C,C20*%
X169926000Y-116779000D03*
X169926000Y-118679000D03*
%TD*%
D16*
%TO.C,D39*%
X236537500Y-95856250D03*
X236537500Y-93056250D03*
%TD*%
D17*
%TO.C,LED17*%
X275362500Y-119918750D03*
X275362500Y-116618750D03*
X280262500Y-116618750D03*
X280262500Y-119918750D03*
%TD*%
D16*
%TO.C,D44*%
X74612500Y-114906250D03*
X74612500Y-112106250D03*
%TD*%
%TO.C,D9*%
X203200000Y-56962500D03*
X203200000Y-54162500D03*
%TD*%
D27*
%TO.C,LED15*%
X320093750Y-101668750D03*
X316793750Y-101668750D03*
X316793750Y-96768750D03*
X320093750Y-96768750D03*
%TD*%
D17*
%TO.C,LED10*%
X200093750Y-59468750D03*
X200093750Y-62768750D03*
X195193750Y-62768750D03*
X195193750Y-59468750D03*
%TD*%
D16*
%TO.C,D5*%
X127000000Y-56962500D03*
X127000000Y-54162500D03*
%TD*%
D17*
%TO.C,LED6*%
X50868750Y-59468750D03*
X50868750Y-62768750D03*
X45968750Y-62768750D03*
X45968750Y-59468750D03*
%TD*%
D20*
%TO.C,C14*%
X282829000Y-122997000D03*
X282829000Y-121097000D03*
%TD*%
D16*
%TO.C,D38*%
X217487500Y-95856250D03*
X217487500Y-93056250D03*
%TD*%
%TO.C,D21*%
X155575000Y-76806250D03*
X155575000Y-74006250D03*
%TD*%
D17*
%TO.C,LED11*%
X238193750Y-59468750D03*
X238193750Y-62768750D03*
X233293750Y-62768750D03*
X233293750Y-59468750D03*
%TD*%
%TO.C,LED1*%
X124550000Y-119918750D03*
X124550000Y-116618750D03*
X129450000Y-116618750D03*
X129450000Y-119918750D03*
%TD*%
D35*
%TO.C,C19*%
X124521000Y-124079000D03*
X122621000Y-124079000D03*
%TD*%
D16*
%TO.C,D35*%
X160337500Y-95856250D03*
X160337500Y-93056250D03*
%TD*%
%TO.C,D34*%
X141287500Y-95856250D03*
X141287500Y-93056250D03*
%TD*%
D24*
%TO.C,R1*%
X127738500Y-133731000D03*
X129563500Y-133731000D03*
%TD*%
D17*
%TO.C,LED2*%
X85656250Y-119918750D03*
X85656250Y-116618750D03*
X90556250Y-116618750D03*
X90556250Y-119918750D03*
%TD*%
D35*
%TO.C,C1*%
X138110000Y-117094000D03*
X136210000Y-117094000D03*
%TD*%
D16*
%TO.C,D16*%
X55562500Y-76806250D03*
X55562500Y-74006250D03*
%TD*%
%TO.C,D4*%
X107950000Y-56962500D03*
X107950000Y-54162500D03*
%TD*%
%TO.C,D46*%
X112712500Y-114906250D03*
X112712500Y-112106250D03*
%TD*%
D17*
%TO.C,LED12*%
X276293750Y-59468750D03*
X276293750Y-62768750D03*
X271393750Y-62768750D03*
X271393750Y-59468750D03*
%TD*%
D16*
%TO.C,D62*%
X288925000Y-133956250D03*
X288925000Y-131156250D03*
%TD*%
D35*
%TO.C,C8*%
X130109000Y-121793000D03*
X128209000Y-121793000D03*
%TD*%
D16*
%TO.C,D58*%
X79375000Y-133956250D03*
X79375000Y-131156250D03*
%TD*%
D19*
%TO.C,C11*%
X246634000Y-116906000D03*
X246634000Y-118806000D03*
%TD*%
D16*
%TO.C,D17*%
X79375000Y-76806250D03*
X79375000Y-74006250D03*
%TD*%
D18*
%TO.C,C25*%
X49342000Y-113665000D03*
X51242000Y-113665000D03*
%TD*%
%TO.C,C10*%
X316423000Y-75184000D03*
X318323000Y-75184000D03*
%TD*%
D16*
%TO.C,D63*%
X312737500Y-133956250D03*
X312737500Y-131156250D03*
%TD*%
D17*
%TO.C,LED18*%
X238850000Y-119918750D03*
X238850000Y-116618750D03*
X243750000Y-116618750D03*
X243750000Y-119918750D03*
%TD*%
D16*
%TO.C,D24*%
X212725000Y-76806250D03*
X212725000Y-74006250D03*
%TD*%
D27*
%TO.C,LED14*%
X320093750Y-82618750D03*
X316793750Y-82618750D03*
X316793750Y-77718750D03*
X320093750Y-77718750D03*
%TD*%
D19*
%TO.C,C27*%
X230759000Y-61280000D03*
X230759000Y-63180000D03*
%TD*%
D21*
%TO.C,R4*%
X136779000Y-113307500D03*
X136779000Y-111482500D03*
%TD*%
D19*
%TO.C,C5*%
X126365000Y-122113000D03*
X126365000Y-124013000D03*
%TD*%
D41*
%TO.C,SW1*%
X167057000Y-125023000D03*
X160857000Y-128723000D03*
X167057000Y-128723000D03*
X160857000Y-125023000D03*
%TD*%
D20*
%TO.C,C4*%
X127889000Y-131506000D03*
X127889000Y-129606000D03*
%TD*%
D42*
X165735000Y-60071000D03*
X134977832Y-121319605D03*
X168021000Y-58293000D03*
X131445000Y-121285000D03*
X126873000Y-119888000D03*
X175945615Y-58496385D03*
X140847653Y-121543653D03*
X126238000Y-132334000D03*
X54231875Y-121810252D03*
X48350000Y-119868750D03*
X177419000Y-57023000D03*
X137827520Y-132519360D03*
X163128500Y-56962500D03*
X157480000Y-76835000D03*
X164533750Y-76835000D03*
X140160492Y-130855198D03*
X166116000Y-95885000D03*
X139319000Y-95885000D03*
X140936965Y-130225838D03*
X150114000Y-95885000D03*
X139192000Y-114935000D03*
X139218950Y-121040510D03*
X130048000Y-114935000D03*
X126856395Y-114918395D03*
X134112000Y-114935000D03*
X176694000Y-57729755D03*
X160528000Y-63627000D03*
X316992000Y-85979000D03*
X320167000Y-85979000D03*
X137922000Y-118872000D03*
X178943000Y-46228000D03*
X170053000Y-46228000D03*
X130810000Y-123698000D03*
X181835903Y-43906597D03*
X127762000Y-118872000D03*
X145542000Y-123317000D03*
X130687653Y-130433653D03*
X134048500Y-126936500D03*
X131318000Y-119888000D03*
X136906000Y-119888000D03*
X122788793Y-129909115D03*
X123415342Y-129130372D03*
X124066389Y-128371990D03*
X124586691Y-127518590D03*
X125220813Y-126746000D03*
X125876384Y-125984000D03*
X139463929Y-131572000D03*
X135837000Y-131912524D03*
X135705160Y-132910207D03*
X134943636Y-133557576D03*
X134112000Y-134112000D03*
X133249679Y-133586103D03*
X132419633Y-134142906D03*
X131653881Y-133500544D03*
X130928541Y-134188210D03*
M02*
