%TF.GenerationSoftware,KiCad,Pcbnew,(6.0.8)*%
%TF.CreationDate,2022-10-24T21:08:13+02:00*%
%TF.ProjectId,cod67-iso,636f6436-372d-4697-936f-2e6b69636164,rev?*%
%TF.SameCoordinates,Original*%
%TF.FileFunction,Legend,Top*%
%TF.FilePolarity,Positive*%
%FSLAX46Y46*%
G04 Gerber Fmt 4.6, Leading zero omitted, Abs format (unit mm)*
G04 Created by KiCad (PCBNEW (6.0.8)) date 2022-10-24 21:08:13*
%MOMM*%
%LPD*%
G01*
G04 APERTURE LIST*
%ADD10C,0.150000*%
%ADD11C,3.987800*%
%ADD12C,1.750000*%
%ADD13C,1.701800*%
%ADD14C,3.048000*%
%ADD15C,0.650000*%
%ADD16O,1.000000X1.600000*%
%ADD17O,1.000000X2.100000*%
%ADD18C,0.800000*%
G04 APERTURE END LIST*
D10*
%TO.C,MX22*%
X167306845Y-74525130D02*
X167306845Y-73525130D01*
X167640178Y-74239416D01*
X167973511Y-73525130D01*
X167973511Y-74525130D01*
X168354464Y-73525130D02*
X169021130Y-74525130D01*
X169021130Y-73525130D02*
X168354464Y-74525130D01*
X169354464Y-73620369D02*
X169402083Y-73572750D01*
X169497321Y-73525130D01*
X169735416Y-73525130D01*
X169830654Y-73572750D01*
X169878273Y-73620369D01*
X169925892Y-73715607D01*
X169925892Y-73810845D01*
X169878273Y-73953702D01*
X169306845Y-74525130D01*
X169925892Y-74525130D01*
X170306845Y-73620369D02*
X170354464Y-73572750D01*
X170449702Y-73525130D01*
X170687797Y-73525130D01*
X170783035Y-73572750D01*
X170830654Y-73620369D01*
X170878273Y-73715607D01*
X170878273Y-73810845D01*
X170830654Y-73953702D01*
X170259226Y-74525130D01*
X170878273Y-74525130D01*
X168830654Y-67794130D02*
X168259226Y-67794130D01*
X168544940Y-67794130D02*
X168544940Y-66794130D01*
X168449702Y-66936988D01*
X168354464Y-67032226D01*
X168259226Y-67079845D01*
X169259226Y-66794130D02*
X169259226Y-67603654D01*
X169306845Y-67698892D01*
X169354464Y-67746511D01*
X169449702Y-67794130D01*
X169640178Y-67794130D01*
X169735416Y-67746511D01*
X169783035Y-67698892D01*
X169830654Y-67603654D01*
X169830654Y-66794130D01*
%TO.C,MX31*%
X76819345Y-93575130D02*
X76819345Y-92575130D01*
X77152678Y-93289416D01*
X77486011Y-92575130D01*
X77486011Y-93575130D01*
X77866964Y-92575130D02*
X78533630Y-93575130D01*
X78533630Y-92575130D02*
X77866964Y-93575130D01*
X78819345Y-92575130D02*
X79438392Y-92575130D01*
X79105059Y-92956083D01*
X79247916Y-92956083D01*
X79343154Y-93003702D01*
X79390773Y-93051321D01*
X79438392Y-93146559D01*
X79438392Y-93384654D01*
X79390773Y-93479892D01*
X79343154Y-93527511D01*
X79247916Y-93575130D01*
X78962202Y-93575130D01*
X78866964Y-93527511D01*
X78819345Y-93479892D01*
X80390773Y-93575130D02*
X79819345Y-93575130D01*
X80105059Y-93575130D02*
X80105059Y-92575130D01*
X80009821Y-92717988D01*
X79914583Y-92813226D01*
X79819345Y-92860845D01*
X78343154Y-86844130D02*
X77771726Y-86844130D01*
X78057440Y-86844130D02*
X78057440Y-85844130D01*
X77962202Y-85986988D01*
X77866964Y-86082226D01*
X77771726Y-86129845D01*
X78771726Y-85844130D02*
X78771726Y-86653654D01*
X78819345Y-86748892D01*
X78866964Y-86796511D01*
X78962202Y-86844130D01*
X79152678Y-86844130D01*
X79247916Y-86796511D01*
X79295535Y-86748892D01*
X79343154Y-86653654D01*
X79343154Y-85844130D01*
%TO.C,MX25*%
X224456845Y-74525130D02*
X224456845Y-73525130D01*
X224790178Y-74239416D01*
X225123511Y-73525130D01*
X225123511Y-74525130D01*
X225504464Y-73525130D02*
X226171130Y-74525130D01*
X226171130Y-73525130D02*
X225504464Y-74525130D01*
X226504464Y-73620369D02*
X226552083Y-73572750D01*
X226647321Y-73525130D01*
X226885416Y-73525130D01*
X226980654Y-73572750D01*
X227028273Y-73620369D01*
X227075892Y-73715607D01*
X227075892Y-73810845D01*
X227028273Y-73953702D01*
X226456845Y-74525130D01*
X227075892Y-74525130D01*
X227980654Y-73525130D02*
X227504464Y-73525130D01*
X227456845Y-74001321D01*
X227504464Y-73953702D01*
X227599702Y-73906083D01*
X227837797Y-73906083D01*
X227933035Y-73953702D01*
X227980654Y-74001321D01*
X228028273Y-74096559D01*
X228028273Y-74334654D01*
X227980654Y-74429892D01*
X227933035Y-74477511D01*
X227837797Y-74525130D01*
X227599702Y-74525130D01*
X227504464Y-74477511D01*
X227456845Y-74429892D01*
X225980654Y-67794130D02*
X225409226Y-67794130D01*
X225694940Y-67794130D02*
X225694940Y-66794130D01*
X225599702Y-66936988D01*
X225504464Y-67032226D01*
X225409226Y-67079845D01*
X226409226Y-66794130D02*
X226409226Y-67603654D01*
X226456845Y-67698892D01*
X226504464Y-67746511D01*
X226599702Y-67794130D01*
X226790178Y-67794130D01*
X226885416Y-67746511D01*
X226933035Y-67698892D01*
X226980654Y-67603654D01*
X226980654Y-66794130D01*
%TO.C,MX45*%
X86344345Y-112625130D02*
X86344345Y-111625130D01*
X86677678Y-112339416D01*
X87011011Y-111625130D01*
X87011011Y-112625130D01*
X87391964Y-111625130D02*
X88058630Y-112625130D01*
X88058630Y-111625130D02*
X87391964Y-112625130D01*
X88868154Y-111958464D02*
X88868154Y-112625130D01*
X88630059Y-111577511D02*
X88391964Y-112291797D01*
X89011011Y-112291797D01*
X89868154Y-111625130D02*
X89391964Y-111625130D01*
X89344345Y-112101321D01*
X89391964Y-112053702D01*
X89487202Y-112006083D01*
X89725297Y-112006083D01*
X89820535Y-112053702D01*
X89868154Y-112101321D01*
X89915773Y-112196559D01*
X89915773Y-112434654D01*
X89868154Y-112529892D01*
X89820535Y-112577511D01*
X89725297Y-112625130D01*
X89487202Y-112625130D01*
X89391964Y-112577511D01*
X89344345Y-112529892D01*
X87868154Y-105894130D02*
X87296726Y-105894130D01*
X87582440Y-105894130D02*
X87582440Y-104894130D01*
X87487202Y-105036988D01*
X87391964Y-105132226D01*
X87296726Y-105179845D01*
X88296726Y-104894130D02*
X88296726Y-105703654D01*
X88344345Y-105798892D01*
X88391964Y-105846511D01*
X88487202Y-105894130D01*
X88677678Y-105894130D01*
X88772916Y-105846511D01*
X88820535Y-105798892D01*
X88868154Y-105703654D01*
X88868154Y-104894130D01*
%TO.C,MX6*%
X139208035Y-55475130D02*
X139208035Y-54475130D01*
X139541369Y-55189416D01*
X139874702Y-54475130D01*
X139874702Y-55475130D01*
X140255654Y-54475130D02*
X140922321Y-55475130D01*
X140922321Y-54475130D02*
X140255654Y-55475130D01*
X141731845Y-54475130D02*
X141541369Y-54475130D01*
X141446130Y-54522750D01*
X141398511Y-54570369D01*
X141303273Y-54713226D01*
X141255654Y-54903702D01*
X141255654Y-55284654D01*
X141303273Y-55379892D01*
X141350892Y-55427511D01*
X141446130Y-55475130D01*
X141636607Y-55475130D01*
X141731845Y-55427511D01*
X141779464Y-55379892D01*
X141827083Y-55284654D01*
X141827083Y-55046559D01*
X141779464Y-54951321D01*
X141731845Y-54903702D01*
X141636607Y-54856083D01*
X141446130Y-54856083D01*
X141350892Y-54903702D01*
X141303273Y-54951321D01*
X141255654Y-55046559D01*
X140255654Y-48744130D02*
X139684226Y-48744130D01*
X139969940Y-48744130D02*
X139969940Y-47744130D01*
X139874702Y-47886988D01*
X139779464Y-47982226D01*
X139684226Y-48029845D01*
X140684226Y-47744130D02*
X140684226Y-48553654D01*
X140731845Y-48648892D01*
X140779464Y-48696511D01*
X140874702Y-48744130D01*
X141065178Y-48744130D01*
X141160416Y-48696511D01*
X141208035Y-48648892D01*
X141255654Y-48553654D01*
X141255654Y-47744130D01*
%TO.C,MX19*%
X110156845Y-74525130D02*
X110156845Y-73525130D01*
X110490178Y-74239416D01*
X110823511Y-73525130D01*
X110823511Y-74525130D01*
X111204464Y-73525130D02*
X111871130Y-74525130D01*
X111871130Y-73525130D02*
X111204464Y-74525130D01*
X112775892Y-74525130D02*
X112204464Y-74525130D01*
X112490178Y-74525130D02*
X112490178Y-73525130D01*
X112394940Y-73667988D01*
X112299702Y-73763226D01*
X112204464Y-73810845D01*
X113252083Y-74525130D02*
X113442559Y-74525130D01*
X113537797Y-74477511D01*
X113585416Y-74429892D01*
X113680654Y-74287035D01*
X113728273Y-74096559D01*
X113728273Y-73715607D01*
X113680654Y-73620369D01*
X113633035Y-73572750D01*
X113537797Y-73525130D01*
X113347321Y-73525130D01*
X113252083Y-73572750D01*
X113204464Y-73620369D01*
X113156845Y-73715607D01*
X113156845Y-73953702D01*
X113204464Y-74048940D01*
X113252083Y-74096559D01*
X113347321Y-74144178D01*
X113537797Y-74144178D01*
X113633035Y-74096559D01*
X113680654Y-74048940D01*
X113728273Y-73953702D01*
X111680654Y-67794130D02*
X111109226Y-67794130D01*
X111394940Y-67794130D02*
X111394940Y-66794130D01*
X111299702Y-66936988D01*
X111204464Y-67032226D01*
X111109226Y-67079845D01*
X112109226Y-66794130D02*
X112109226Y-67603654D01*
X112156845Y-67698892D01*
X112204464Y-67746511D01*
X112299702Y-67794130D01*
X112490178Y-67794130D01*
X112585416Y-67746511D01*
X112633035Y-67698892D01*
X112680654Y-67603654D01*
X112680654Y-66794130D01*
%TO.C,MX30*%
X50625595Y-95226130D02*
X50625595Y-94226130D01*
X50958928Y-94940416D01*
X51292261Y-94226130D01*
X51292261Y-95226130D01*
X51673214Y-94226130D02*
X52339880Y-95226130D01*
X52339880Y-94226130D02*
X51673214Y-95226130D01*
X52625595Y-94226130D02*
X53244642Y-94226130D01*
X52911309Y-94607083D01*
X53054166Y-94607083D01*
X53149404Y-94654702D01*
X53197023Y-94702321D01*
X53244642Y-94797559D01*
X53244642Y-95035654D01*
X53197023Y-95130892D01*
X53149404Y-95178511D01*
X53054166Y-95226130D01*
X52768452Y-95226130D01*
X52673214Y-95178511D01*
X52625595Y-95130892D01*
X53863690Y-94226130D02*
X53958928Y-94226130D01*
X54054166Y-94273750D01*
X54101785Y-94321369D01*
X54149404Y-94416607D01*
X54197023Y-94607083D01*
X54197023Y-94845178D01*
X54149404Y-95035654D01*
X54101785Y-95130892D01*
X54054166Y-95178511D01*
X53958928Y-95226130D01*
X53863690Y-95226130D01*
X53768452Y-95178511D01*
X53720833Y-95130892D01*
X53673214Y-95035654D01*
X53625595Y-94845178D01*
X53625595Y-94607083D01*
X53673214Y-94416607D01*
X53720833Y-94321369D01*
X53768452Y-94273750D01*
X53863690Y-94226130D01*
X50958928Y-86844130D02*
X50387500Y-86844130D01*
X50673214Y-86844130D02*
X50673214Y-85844130D01*
X50577976Y-85986988D01*
X50482738Y-86082226D01*
X50387500Y-86129845D01*
X51387500Y-86748892D02*
X51435119Y-86796511D01*
X51387500Y-86844130D01*
X51339880Y-86796511D01*
X51387500Y-86748892D01*
X51387500Y-86844130D01*
X51768452Y-85844130D02*
X52435119Y-85844130D01*
X52006547Y-86844130D01*
X53292261Y-85844130D02*
X52816071Y-85844130D01*
X52768452Y-86320321D01*
X52816071Y-86272702D01*
X52911309Y-86225083D01*
X53149404Y-86225083D01*
X53244642Y-86272702D01*
X53292261Y-86320321D01*
X53339880Y-86415559D01*
X53339880Y-86653654D01*
X53292261Y-86748892D01*
X53244642Y-86796511D01*
X53149404Y-86844130D01*
X52911309Y-86844130D01*
X52816071Y-86796511D01*
X52768452Y-86748892D01*
X53768452Y-85844130D02*
X53768452Y-86653654D01*
X53816071Y-86748892D01*
X53863690Y-86796511D01*
X53958928Y-86844130D01*
X54149404Y-86844130D01*
X54244642Y-86796511D01*
X54292261Y-86748892D01*
X54339880Y-86653654D01*
X54339880Y-85844130D01*
%TO.C,MX33*%
X114919345Y-93575130D02*
X114919345Y-92575130D01*
X115252678Y-93289416D01*
X115586011Y-92575130D01*
X115586011Y-93575130D01*
X115966964Y-92575130D02*
X116633630Y-93575130D01*
X116633630Y-92575130D02*
X115966964Y-93575130D01*
X116919345Y-92575130D02*
X117538392Y-92575130D01*
X117205059Y-92956083D01*
X117347916Y-92956083D01*
X117443154Y-93003702D01*
X117490773Y-93051321D01*
X117538392Y-93146559D01*
X117538392Y-93384654D01*
X117490773Y-93479892D01*
X117443154Y-93527511D01*
X117347916Y-93575130D01*
X117062202Y-93575130D01*
X116966964Y-93527511D01*
X116919345Y-93479892D01*
X117871726Y-92575130D02*
X118490773Y-92575130D01*
X118157440Y-92956083D01*
X118300297Y-92956083D01*
X118395535Y-93003702D01*
X118443154Y-93051321D01*
X118490773Y-93146559D01*
X118490773Y-93384654D01*
X118443154Y-93479892D01*
X118395535Y-93527511D01*
X118300297Y-93575130D01*
X118014583Y-93575130D01*
X117919345Y-93527511D01*
X117871726Y-93479892D01*
X116443154Y-86844130D02*
X115871726Y-86844130D01*
X116157440Y-86844130D02*
X116157440Y-85844130D01*
X116062202Y-85986988D01*
X115966964Y-86082226D01*
X115871726Y-86129845D01*
X116871726Y-85844130D02*
X116871726Y-86653654D01*
X116919345Y-86748892D01*
X116966964Y-86796511D01*
X117062202Y-86844130D01*
X117252678Y-86844130D01*
X117347916Y-86796511D01*
X117395535Y-86748892D01*
X117443154Y-86653654D01*
X117443154Y-85844130D01*
%TO.C,MX42*%
X286369345Y-93575130D02*
X286369345Y-92575130D01*
X286702678Y-93289416D01*
X287036011Y-92575130D01*
X287036011Y-93575130D01*
X287416964Y-92575130D02*
X288083630Y-93575130D01*
X288083630Y-92575130D02*
X287416964Y-93575130D01*
X288893154Y-92908464D02*
X288893154Y-93575130D01*
X288655059Y-92527511D02*
X288416964Y-93241797D01*
X289036011Y-93241797D01*
X289369345Y-92670369D02*
X289416964Y-92622750D01*
X289512202Y-92575130D01*
X289750297Y-92575130D01*
X289845535Y-92622750D01*
X289893154Y-92670369D01*
X289940773Y-92765607D01*
X289940773Y-92860845D01*
X289893154Y-93003702D01*
X289321726Y-93575130D01*
X289940773Y-93575130D01*
X287893154Y-86844130D02*
X287321726Y-86844130D01*
X287607440Y-86844130D02*
X287607440Y-85844130D01*
X287512202Y-85986988D01*
X287416964Y-86082226D01*
X287321726Y-86129845D01*
X288321726Y-85844130D02*
X288321726Y-86653654D01*
X288369345Y-86748892D01*
X288416964Y-86796511D01*
X288512202Y-86844130D01*
X288702678Y-86844130D01*
X288797916Y-86796511D01*
X288845535Y-86748892D01*
X288893154Y-86653654D01*
X288893154Y-85844130D01*
%TO.C,MX56*%
X310181845Y-112625130D02*
X310181845Y-111625130D01*
X310515178Y-112339416D01*
X310848511Y-111625130D01*
X310848511Y-112625130D01*
X311229464Y-111625130D02*
X311896130Y-112625130D01*
X311896130Y-111625130D02*
X311229464Y-112625130D01*
X312753273Y-111625130D02*
X312277083Y-111625130D01*
X312229464Y-112101321D01*
X312277083Y-112053702D01*
X312372321Y-112006083D01*
X312610416Y-112006083D01*
X312705654Y-112053702D01*
X312753273Y-112101321D01*
X312800892Y-112196559D01*
X312800892Y-112434654D01*
X312753273Y-112529892D01*
X312705654Y-112577511D01*
X312610416Y-112625130D01*
X312372321Y-112625130D01*
X312277083Y-112577511D01*
X312229464Y-112529892D01*
X313658035Y-111625130D02*
X313467559Y-111625130D01*
X313372321Y-111672750D01*
X313324702Y-111720369D01*
X313229464Y-111863226D01*
X313181845Y-112053702D01*
X313181845Y-112434654D01*
X313229464Y-112529892D01*
X313277083Y-112577511D01*
X313372321Y-112625130D01*
X313562797Y-112625130D01*
X313658035Y-112577511D01*
X313705654Y-112529892D01*
X313753273Y-112434654D01*
X313753273Y-112196559D01*
X313705654Y-112101321D01*
X313658035Y-112053702D01*
X313562797Y-112006083D01*
X313372321Y-112006083D01*
X313277083Y-112053702D01*
X313229464Y-112101321D01*
X313181845Y-112196559D01*
X311705654Y-105894130D02*
X311134226Y-105894130D01*
X311419940Y-105894130D02*
X311419940Y-104894130D01*
X311324702Y-105036988D01*
X311229464Y-105132226D01*
X311134226Y-105179845D01*
X312134226Y-104894130D02*
X312134226Y-105703654D01*
X312181845Y-105798892D01*
X312229464Y-105846511D01*
X312324702Y-105894130D01*
X312515178Y-105894130D01*
X312610416Y-105846511D01*
X312658035Y-105798892D01*
X312705654Y-105703654D01*
X312705654Y-104894130D01*
%TO.C,MX29*%
X305260595Y-83161130D02*
X305260595Y-82161130D01*
X305593928Y-82875416D01*
X305927261Y-82161130D01*
X305927261Y-83161130D01*
X306308214Y-82161130D02*
X306974880Y-83161130D01*
X306974880Y-82161130D02*
X306308214Y-83161130D01*
X307308214Y-82256369D02*
X307355833Y-82208750D01*
X307451071Y-82161130D01*
X307689166Y-82161130D01*
X307784404Y-82208750D01*
X307832023Y-82256369D01*
X307879642Y-82351607D01*
X307879642Y-82446845D01*
X307832023Y-82589702D01*
X307260595Y-83161130D01*
X307879642Y-83161130D01*
X308355833Y-83161130D02*
X308546309Y-83161130D01*
X308641547Y-83113511D01*
X308689166Y-83065892D01*
X308784404Y-82923035D01*
X308832023Y-82732559D01*
X308832023Y-82351607D01*
X308784404Y-82256369D01*
X308736785Y-82208750D01*
X308641547Y-82161130D01*
X308451071Y-82161130D01*
X308355833Y-82208750D01*
X308308214Y-82256369D01*
X308260595Y-82351607D01*
X308260595Y-82589702D01*
X308308214Y-82684940D01*
X308355833Y-82732559D01*
X308451071Y-82780178D01*
X308641547Y-82780178D01*
X308736785Y-82732559D01*
X308784404Y-82684940D01*
X308832023Y-82589702D01*
X313801547Y-80621130D02*
X313801547Y-79954464D01*
X313801547Y-79621130D02*
X313753928Y-79668750D01*
X313801547Y-79716369D01*
X313849166Y-79668750D01*
X313801547Y-79621130D01*
X313801547Y-79716369D01*
X314230119Y-80573511D02*
X314325357Y-80621130D01*
X314515833Y-80621130D01*
X314611071Y-80573511D01*
X314658690Y-80478273D01*
X314658690Y-80430654D01*
X314611071Y-80335416D01*
X314515833Y-80287797D01*
X314372976Y-80287797D01*
X314277738Y-80240178D01*
X314230119Y-80144940D01*
X314230119Y-80097321D01*
X314277738Y-80002083D01*
X314372976Y-79954464D01*
X314515833Y-79954464D01*
X314611071Y-80002083D01*
X315230119Y-80621130D02*
X315134880Y-80573511D01*
X315087261Y-80525892D01*
X315039642Y-80430654D01*
X315039642Y-80144940D01*
X315087261Y-80049702D01*
X315134880Y-80002083D01*
X315230119Y-79954464D01*
X315372976Y-79954464D01*
X315468214Y-80002083D01*
X315515833Y-80049702D01*
X315563452Y-80144940D01*
X315563452Y-80430654D01*
X315515833Y-80525892D01*
X315468214Y-80573511D01*
X315372976Y-80621130D01*
X315230119Y-80621130D01*
X315992023Y-80240178D02*
X316753928Y-80240178D01*
X317611071Y-80573511D02*
X317515833Y-80621130D01*
X317325357Y-80621130D01*
X317230119Y-80573511D01*
X317182500Y-80478273D01*
X317182500Y-80097321D01*
X317230119Y-80002083D01*
X317325357Y-79954464D01*
X317515833Y-79954464D01*
X317611071Y-80002083D01*
X317658690Y-80097321D01*
X317658690Y-80192559D01*
X317182500Y-80287797D01*
X318087261Y-79954464D02*
X318087261Y-80621130D01*
X318087261Y-80049702D02*
X318134880Y-80002083D01*
X318230119Y-79954464D01*
X318372976Y-79954464D01*
X318468214Y-80002083D01*
X318515833Y-80097321D01*
X318515833Y-80621130D01*
X318849166Y-79954464D02*
X319230119Y-79954464D01*
X318992023Y-79621130D02*
X318992023Y-80478273D01*
X319039642Y-80573511D01*
X319134880Y-80621130D01*
X319230119Y-80621130D01*
X319944404Y-80573511D02*
X319849166Y-80621130D01*
X319658690Y-80621130D01*
X319563452Y-80573511D01*
X319515833Y-80478273D01*
X319515833Y-80097321D01*
X319563452Y-80002083D01*
X319658690Y-79954464D01*
X319849166Y-79954464D01*
X319944404Y-80002083D01*
X319992023Y-80097321D01*
X319992023Y-80192559D01*
X319515833Y-80287797D01*
X320420595Y-80621130D02*
X320420595Y-79954464D01*
X320420595Y-80144940D02*
X320468214Y-80049702D01*
X320515833Y-80002083D01*
X320611071Y-79954464D01*
X320706309Y-79954464D01*
%TO.C,MX60*%
X176831845Y-133326130D02*
X176831845Y-132326130D01*
X177165178Y-133040416D01*
X177498511Y-132326130D01*
X177498511Y-133326130D01*
X177879464Y-132326130D02*
X178546130Y-133326130D01*
X178546130Y-132326130D02*
X177879464Y-133326130D01*
X179355654Y-132326130D02*
X179165178Y-132326130D01*
X179069940Y-132373750D01*
X179022321Y-132421369D01*
X178927083Y-132564226D01*
X178879464Y-132754702D01*
X178879464Y-133135654D01*
X178927083Y-133230892D01*
X178974702Y-133278511D01*
X179069940Y-133326130D01*
X179260416Y-133326130D01*
X179355654Y-133278511D01*
X179403273Y-133230892D01*
X179450892Y-133135654D01*
X179450892Y-132897559D01*
X179403273Y-132802321D01*
X179355654Y-132754702D01*
X179260416Y-132707083D01*
X179069940Y-132707083D01*
X178974702Y-132754702D01*
X178927083Y-132802321D01*
X178879464Y-132897559D01*
X180069940Y-132326130D02*
X180165178Y-132326130D01*
X180260416Y-132373750D01*
X180308035Y-132421369D01*
X180355654Y-132516607D01*
X180403273Y-132707083D01*
X180403273Y-132945178D01*
X180355654Y-133135654D01*
X180308035Y-133230892D01*
X180260416Y-133278511D01*
X180165178Y-133326130D01*
X180069940Y-133326130D01*
X179974702Y-133278511D01*
X179927083Y-133230892D01*
X179879464Y-133135654D01*
X179831845Y-132945178D01*
X179831845Y-132707083D01*
X179879464Y-132516607D01*
X179927083Y-132421369D01*
X179974702Y-132373750D01*
X180069940Y-132326130D01*
X177736607Y-123944130D02*
X178403273Y-123944130D01*
X177974702Y-124944130D01*
X178784226Y-123944130D02*
X178784226Y-124753654D01*
X178831845Y-124848892D01*
X178879464Y-124896511D01*
X178974702Y-124944130D01*
X179165178Y-124944130D01*
X179260416Y-124896511D01*
X179308035Y-124848892D01*
X179355654Y-124753654D01*
X179355654Y-123944130D01*
%TO.C,MX37*%
X191119345Y-93575130D02*
X191119345Y-92575130D01*
X191452678Y-93289416D01*
X191786011Y-92575130D01*
X191786011Y-93575130D01*
X192166964Y-92575130D02*
X192833630Y-93575130D01*
X192833630Y-92575130D02*
X192166964Y-93575130D01*
X193119345Y-92575130D02*
X193738392Y-92575130D01*
X193405059Y-92956083D01*
X193547916Y-92956083D01*
X193643154Y-93003702D01*
X193690773Y-93051321D01*
X193738392Y-93146559D01*
X193738392Y-93384654D01*
X193690773Y-93479892D01*
X193643154Y-93527511D01*
X193547916Y-93575130D01*
X193262202Y-93575130D01*
X193166964Y-93527511D01*
X193119345Y-93479892D01*
X194071726Y-92575130D02*
X194738392Y-92575130D01*
X194309821Y-93575130D01*
X192643154Y-86844130D02*
X192071726Y-86844130D01*
X192357440Y-86844130D02*
X192357440Y-85844130D01*
X192262202Y-85986988D01*
X192166964Y-86082226D01*
X192071726Y-86129845D01*
X193071726Y-85844130D02*
X193071726Y-86653654D01*
X193119345Y-86748892D01*
X193166964Y-86796511D01*
X193262202Y-86844130D01*
X193452678Y-86844130D01*
X193547916Y-86796511D01*
X193595535Y-86748892D01*
X193643154Y-86653654D01*
X193643154Y-85844130D01*
%TO.C,MX28*%
X281606845Y-74525130D02*
X281606845Y-73525130D01*
X281940178Y-74239416D01*
X282273511Y-73525130D01*
X282273511Y-74525130D01*
X282654464Y-73525130D02*
X283321130Y-74525130D01*
X283321130Y-73525130D02*
X282654464Y-74525130D01*
X283654464Y-73620369D02*
X283702083Y-73572750D01*
X283797321Y-73525130D01*
X284035416Y-73525130D01*
X284130654Y-73572750D01*
X284178273Y-73620369D01*
X284225892Y-73715607D01*
X284225892Y-73810845D01*
X284178273Y-73953702D01*
X283606845Y-74525130D01*
X284225892Y-74525130D01*
X284797321Y-73953702D02*
X284702083Y-73906083D01*
X284654464Y-73858464D01*
X284606845Y-73763226D01*
X284606845Y-73715607D01*
X284654464Y-73620369D01*
X284702083Y-73572750D01*
X284797321Y-73525130D01*
X284987797Y-73525130D01*
X285083035Y-73572750D01*
X285130654Y-73620369D01*
X285178273Y-73715607D01*
X285178273Y-73763226D01*
X285130654Y-73858464D01*
X285083035Y-73906083D01*
X284987797Y-73953702D01*
X284797321Y-73953702D01*
X284702083Y-74001321D01*
X284654464Y-74048940D01*
X284606845Y-74144178D01*
X284606845Y-74334654D01*
X284654464Y-74429892D01*
X284702083Y-74477511D01*
X284797321Y-74525130D01*
X284987797Y-74525130D01*
X285083035Y-74477511D01*
X285130654Y-74429892D01*
X285178273Y-74334654D01*
X285178273Y-74144178D01*
X285130654Y-74048940D01*
X285083035Y-74001321D01*
X284987797Y-73953702D01*
X283130654Y-67794130D02*
X282559226Y-67794130D01*
X282844940Y-67794130D02*
X282844940Y-66794130D01*
X282749702Y-66936988D01*
X282654464Y-67032226D01*
X282559226Y-67079845D01*
X283559226Y-66794130D02*
X283559226Y-67603654D01*
X283606845Y-67698892D01*
X283654464Y-67746511D01*
X283749702Y-67794130D01*
X283940178Y-67794130D01*
X284035416Y-67746511D01*
X284083035Y-67698892D01*
X284130654Y-67603654D01*
X284130654Y-66794130D01*
%TO.C,MX5*%
X120158035Y-55475130D02*
X120158035Y-54475130D01*
X120491369Y-55189416D01*
X120824702Y-54475130D01*
X120824702Y-55475130D01*
X121205654Y-54475130D02*
X121872321Y-55475130D01*
X121872321Y-54475130D02*
X121205654Y-55475130D01*
X122729464Y-54475130D02*
X122253273Y-54475130D01*
X122205654Y-54951321D01*
X122253273Y-54903702D01*
X122348511Y-54856083D01*
X122586607Y-54856083D01*
X122681845Y-54903702D01*
X122729464Y-54951321D01*
X122777083Y-55046559D01*
X122777083Y-55284654D01*
X122729464Y-55379892D01*
X122681845Y-55427511D01*
X122586607Y-55475130D01*
X122348511Y-55475130D01*
X122253273Y-55427511D01*
X122205654Y-55379892D01*
X121205654Y-48744130D02*
X120634226Y-48744130D01*
X120919940Y-48744130D02*
X120919940Y-47744130D01*
X120824702Y-47886988D01*
X120729464Y-47982226D01*
X120634226Y-48029845D01*
X121634226Y-47744130D02*
X121634226Y-48553654D01*
X121681845Y-48648892D01*
X121729464Y-48696511D01*
X121824702Y-48744130D01*
X122015178Y-48744130D01*
X122110416Y-48696511D01*
X122158035Y-48648892D01*
X122205654Y-48553654D01*
X122205654Y-47744130D01*
%TO.C,MX61*%
X257794345Y-131675130D02*
X257794345Y-130675130D01*
X258127678Y-131389416D01*
X258461011Y-130675130D01*
X258461011Y-131675130D01*
X258841964Y-130675130D02*
X259508630Y-131675130D01*
X259508630Y-130675130D02*
X258841964Y-131675130D01*
X260318154Y-130675130D02*
X260127678Y-130675130D01*
X260032440Y-130722750D01*
X259984821Y-130770369D01*
X259889583Y-130913226D01*
X259841964Y-131103702D01*
X259841964Y-131484654D01*
X259889583Y-131579892D01*
X259937202Y-131627511D01*
X260032440Y-131675130D01*
X260222916Y-131675130D01*
X260318154Y-131627511D01*
X260365773Y-131579892D01*
X260413392Y-131484654D01*
X260413392Y-131246559D01*
X260365773Y-131151321D01*
X260318154Y-131103702D01*
X260222916Y-131056083D01*
X260032440Y-131056083D01*
X259937202Y-131103702D01*
X259889583Y-131151321D01*
X259841964Y-131246559D01*
X261365773Y-131675130D02*
X260794345Y-131675130D01*
X261080059Y-131675130D02*
X261080059Y-130675130D01*
X260984821Y-130817988D01*
X260889583Y-130913226D01*
X260794345Y-130960845D01*
X258603869Y-124944130D02*
X258032440Y-124944130D01*
X258318154Y-124944130D02*
X258318154Y-123944130D01*
X258222916Y-124086988D01*
X258127678Y-124182226D01*
X258032440Y-124229845D01*
X259032440Y-124848892D02*
X259080059Y-124896511D01*
X259032440Y-124944130D01*
X258984821Y-124896511D01*
X259032440Y-124848892D01*
X259032440Y-124944130D01*
X259984821Y-123944130D02*
X259508630Y-123944130D01*
X259461011Y-124420321D01*
X259508630Y-124372702D01*
X259603869Y-124325083D01*
X259841964Y-124325083D01*
X259937202Y-124372702D01*
X259984821Y-124420321D01*
X260032440Y-124515559D01*
X260032440Y-124753654D01*
X259984821Y-124848892D01*
X259937202Y-124896511D01*
X259841964Y-124944130D01*
X259603869Y-124944130D01*
X259508630Y-124896511D01*
X259461011Y-124848892D01*
X260461011Y-123944130D02*
X260461011Y-124753654D01*
X260508630Y-124848892D01*
X260556250Y-124896511D01*
X260651488Y-124944130D01*
X260841964Y-124944130D01*
X260937202Y-124896511D01*
X260984821Y-124848892D01*
X261032440Y-124753654D01*
X261032440Y-123944130D01*
%TO.C,MX35*%
X153019345Y-93575130D02*
X153019345Y-92575130D01*
X153352678Y-93289416D01*
X153686011Y-92575130D01*
X153686011Y-93575130D01*
X154066964Y-92575130D02*
X154733630Y-93575130D01*
X154733630Y-92575130D02*
X154066964Y-93575130D01*
X155019345Y-92575130D02*
X155638392Y-92575130D01*
X155305059Y-92956083D01*
X155447916Y-92956083D01*
X155543154Y-93003702D01*
X155590773Y-93051321D01*
X155638392Y-93146559D01*
X155638392Y-93384654D01*
X155590773Y-93479892D01*
X155543154Y-93527511D01*
X155447916Y-93575130D01*
X155162202Y-93575130D01*
X155066964Y-93527511D01*
X155019345Y-93479892D01*
X156543154Y-92575130D02*
X156066964Y-92575130D01*
X156019345Y-93051321D01*
X156066964Y-93003702D01*
X156162202Y-92956083D01*
X156400297Y-92956083D01*
X156495535Y-93003702D01*
X156543154Y-93051321D01*
X156590773Y-93146559D01*
X156590773Y-93384654D01*
X156543154Y-93479892D01*
X156495535Y-93527511D01*
X156400297Y-93575130D01*
X156162202Y-93575130D01*
X156066964Y-93527511D01*
X156019345Y-93479892D01*
X154543154Y-86844130D02*
X153971726Y-86844130D01*
X154257440Y-86844130D02*
X154257440Y-85844130D01*
X154162202Y-85986988D01*
X154066964Y-86082226D01*
X153971726Y-86129845D01*
X154971726Y-85844130D02*
X154971726Y-86653654D01*
X155019345Y-86748892D01*
X155066964Y-86796511D01*
X155162202Y-86844130D01*
X155352678Y-86844130D01*
X155447916Y-86796511D01*
X155495535Y-86748892D01*
X155543154Y-86653654D01*
X155543154Y-85844130D01*
%TO.C,MX34*%
X133969345Y-93575130D02*
X133969345Y-92575130D01*
X134302678Y-93289416D01*
X134636011Y-92575130D01*
X134636011Y-93575130D01*
X135016964Y-92575130D02*
X135683630Y-93575130D01*
X135683630Y-92575130D02*
X135016964Y-93575130D01*
X135969345Y-92575130D02*
X136588392Y-92575130D01*
X136255059Y-92956083D01*
X136397916Y-92956083D01*
X136493154Y-93003702D01*
X136540773Y-93051321D01*
X136588392Y-93146559D01*
X136588392Y-93384654D01*
X136540773Y-93479892D01*
X136493154Y-93527511D01*
X136397916Y-93575130D01*
X136112202Y-93575130D01*
X136016964Y-93527511D01*
X135969345Y-93479892D01*
X137445535Y-92908464D02*
X137445535Y-93575130D01*
X137207440Y-92527511D02*
X136969345Y-93241797D01*
X137588392Y-93241797D01*
X135493154Y-86844130D02*
X134921726Y-86844130D01*
X135207440Y-86844130D02*
X135207440Y-85844130D01*
X135112202Y-85986988D01*
X135016964Y-86082226D01*
X134921726Y-86129845D01*
X135921726Y-85844130D02*
X135921726Y-86653654D01*
X135969345Y-86748892D01*
X136016964Y-86796511D01*
X136112202Y-86844130D01*
X136302678Y-86844130D01*
X136397916Y-86796511D01*
X136445535Y-86748892D01*
X136493154Y-86653654D01*
X136493154Y-85844130D01*
%TO.C,MX14*%
X291131845Y-55475130D02*
X291131845Y-54475130D01*
X291465178Y-55189416D01*
X291798511Y-54475130D01*
X291798511Y-55475130D01*
X292179464Y-54475130D02*
X292846130Y-55475130D01*
X292846130Y-54475130D02*
X292179464Y-55475130D01*
X293750892Y-55475130D02*
X293179464Y-55475130D01*
X293465178Y-55475130D02*
X293465178Y-54475130D01*
X293369940Y-54617988D01*
X293274702Y-54713226D01*
X293179464Y-54760845D01*
X294608035Y-54808464D02*
X294608035Y-55475130D01*
X294369940Y-54427511D02*
X294131845Y-55141797D01*
X294750892Y-55141797D01*
X292655654Y-48744130D02*
X292084226Y-48744130D01*
X292369940Y-48744130D02*
X292369940Y-47744130D01*
X292274702Y-47886988D01*
X292179464Y-47982226D01*
X292084226Y-48029845D01*
X293084226Y-47744130D02*
X293084226Y-48553654D01*
X293131845Y-48648892D01*
X293179464Y-48696511D01*
X293274702Y-48744130D01*
X293465178Y-48744130D01*
X293560416Y-48696511D01*
X293608035Y-48648892D01*
X293655654Y-48553654D01*
X293655654Y-47744130D01*
%TO.C,MX53*%
X238744345Y-112625130D02*
X238744345Y-111625130D01*
X239077678Y-112339416D01*
X239411011Y-111625130D01*
X239411011Y-112625130D01*
X239791964Y-111625130D02*
X240458630Y-112625130D01*
X240458630Y-111625130D02*
X239791964Y-112625130D01*
X241315773Y-111625130D02*
X240839583Y-111625130D01*
X240791964Y-112101321D01*
X240839583Y-112053702D01*
X240934821Y-112006083D01*
X241172916Y-112006083D01*
X241268154Y-112053702D01*
X241315773Y-112101321D01*
X241363392Y-112196559D01*
X241363392Y-112434654D01*
X241315773Y-112529892D01*
X241268154Y-112577511D01*
X241172916Y-112625130D01*
X240934821Y-112625130D01*
X240839583Y-112577511D01*
X240791964Y-112529892D01*
X241696726Y-111625130D02*
X242315773Y-111625130D01*
X241982440Y-112006083D01*
X242125297Y-112006083D01*
X242220535Y-112053702D01*
X242268154Y-112101321D01*
X242315773Y-112196559D01*
X242315773Y-112434654D01*
X242268154Y-112529892D01*
X242220535Y-112577511D01*
X242125297Y-112625130D01*
X241839583Y-112625130D01*
X241744345Y-112577511D01*
X241696726Y-112529892D01*
X240268154Y-105894130D02*
X239696726Y-105894130D01*
X239982440Y-105894130D02*
X239982440Y-104894130D01*
X239887202Y-105036988D01*
X239791964Y-105132226D01*
X239696726Y-105179845D01*
X240696726Y-104894130D02*
X240696726Y-105703654D01*
X240744345Y-105798892D01*
X240791964Y-105846511D01*
X240887202Y-105894130D01*
X241077678Y-105894130D01*
X241172916Y-105846511D01*
X241220535Y-105798892D01*
X241268154Y-105703654D01*
X241268154Y-104894130D01*
%TO.C,MX42b1*%
X297347023Y-93575130D02*
X297347023Y-92575130D01*
X297680357Y-93289416D01*
X298013690Y-92575130D01*
X298013690Y-93575130D01*
X298394642Y-92575130D02*
X299061309Y-93575130D01*
X299061309Y-92575130D02*
X298394642Y-93575130D01*
X299870833Y-92908464D02*
X299870833Y-93575130D01*
X299632738Y-92527511D02*
X299394642Y-93241797D01*
X300013690Y-93241797D01*
X300347023Y-92670369D02*
X300394642Y-92622750D01*
X300489880Y-92575130D01*
X300727976Y-92575130D01*
X300823214Y-92622750D01*
X300870833Y-92670369D01*
X300918452Y-92765607D01*
X300918452Y-92860845D01*
X300870833Y-93003702D01*
X300299404Y-93575130D01*
X300918452Y-93575130D01*
X301347023Y-93575130D02*
X301347023Y-92575130D01*
X301347023Y-92956083D02*
X301442261Y-92908464D01*
X301632738Y-92908464D01*
X301727976Y-92956083D01*
X301775595Y-93003702D01*
X301823214Y-93098940D01*
X301823214Y-93384654D01*
X301775595Y-93479892D01*
X301727976Y-93527511D01*
X301632738Y-93575130D01*
X301442261Y-93575130D01*
X301347023Y-93527511D01*
X302775595Y-93575130D02*
X302204166Y-93575130D01*
X302489880Y-93575130D02*
X302489880Y-92575130D01*
X302394642Y-92717988D01*
X302299404Y-92813226D01*
X302204166Y-92860845D01*
X298037500Y-85939369D02*
X298085119Y-85891750D01*
X298180357Y-85844130D01*
X298418452Y-85844130D01*
X298513690Y-85891750D01*
X298561309Y-85939369D01*
X298608928Y-86034607D01*
X298608928Y-86129845D01*
X298561309Y-86272702D01*
X297989880Y-86844130D01*
X298608928Y-86844130D01*
X299037500Y-86748892D02*
X299085119Y-86796511D01*
X299037500Y-86844130D01*
X298989880Y-86796511D01*
X299037500Y-86748892D01*
X299037500Y-86844130D01*
X299466071Y-85939369D02*
X299513690Y-85891750D01*
X299608928Y-85844130D01*
X299847023Y-85844130D01*
X299942261Y-85891750D01*
X299989880Y-85939369D01*
X300037500Y-86034607D01*
X300037500Y-86129845D01*
X299989880Y-86272702D01*
X299418452Y-86844130D01*
X300037500Y-86844130D01*
X300942261Y-85844130D02*
X300466071Y-85844130D01*
X300418452Y-86320321D01*
X300466071Y-86272702D01*
X300561309Y-86225083D01*
X300799404Y-86225083D01*
X300894642Y-86272702D01*
X300942261Y-86320321D01*
X300989880Y-86415559D01*
X300989880Y-86653654D01*
X300942261Y-86748892D01*
X300894642Y-86796511D01*
X300799404Y-86844130D01*
X300561309Y-86844130D01*
X300466071Y-86796511D01*
X300418452Y-86748892D01*
X301418452Y-85844130D02*
X301418452Y-86653654D01*
X301466071Y-86748892D01*
X301513690Y-86796511D01*
X301608928Y-86844130D01*
X301799404Y-86844130D01*
X301894642Y-86796511D01*
X301942261Y-86748892D01*
X301989880Y-86653654D01*
X301989880Y-85844130D01*
%TO.C,MX2*%
X63008035Y-55475130D02*
X63008035Y-54475130D01*
X63341369Y-55189416D01*
X63674702Y-54475130D01*
X63674702Y-55475130D01*
X64055654Y-54475130D02*
X64722321Y-55475130D01*
X64722321Y-54475130D02*
X64055654Y-55475130D01*
X65055654Y-54570369D02*
X65103273Y-54522750D01*
X65198511Y-54475130D01*
X65436607Y-54475130D01*
X65531845Y-54522750D01*
X65579464Y-54570369D01*
X65627083Y-54665607D01*
X65627083Y-54760845D01*
X65579464Y-54903702D01*
X65008035Y-55475130D01*
X65627083Y-55475130D01*
X64055654Y-48744130D02*
X63484226Y-48744130D01*
X63769940Y-48744130D02*
X63769940Y-47744130D01*
X63674702Y-47886988D01*
X63579464Y-47982226D01*
X63484226Y-48029845D01*
X64484226Y-47744130D02*
X64484226Y-48553654D01*
X64531845Y-48648892D01*
X64579464Y-48696511D01*
X64674702Y-48744130D01*
X64865178Y-48744130D01*
X64960416Y-48696511D01*
X65008035Y-48648892D01*
X65055654Y-48553654D01*
X65055654Y-47744130D01*
%TO.C,MX23*%
X186356845Y-74525130D02*
X186356845Y-73525130D01*
X186690178Y-74239416D01*
X187023511Y-73525130D01*
X187023511Y-74525130D01*
X187404464Y-73525130D02*
X188071130Y-74525130D01*
X188071130Y-73525130D02*
X187404464Y-74525130D01*
X188404464Y-73620369D02*
X188452083Y-73572750D01*
X188547321Y-73525130D01*
X188785416Y-73525130D01*
X188880654Y-73572750D01*
X188928273Y-73620369D01*
X188975892Y-73715607D01*
X188975892Y-73810845D01*
X188928273Y-73953702D01*
X188356845Y-74525130D01*
X188975892Y-74525130D01*
X189309226Y-73525130D02*
X189928273Y-73525130D01*
X189594940Y-73906083D01*
X189737797Y-73906083D01*
X189833035Y-73953702D01*
X189880654Y-74001321D01*
X189928273Y-74096559D01*
X189928273Y-74334654D01*
X189880654Y-74429892D01*
X189833035Y-74477511D01*
X189737797Y-74525130D01*
X189452083Y-74525130D01*
X189356845Y-74477511D01*
X189309226Y-74429892D01*
X187880654Y-67794130D02*
X187309226Y-67794130D01*
X187594940Y-67794130D02*
X187594940Y-66794130D01*
X187499702Y-66936988D01*
X187404464Y-67032226D01*
X187309226Y-67079845D01*
X188309226Y-66794130D02*
X188309226Y-67603654D01*
X188356845Y-67698892D01*
X188404464Y-67746511D01*
X188499702Y-67794130D01*
X188690178Y-67794130D01*
X188785416Y-67746511D01*
X188833035Y-67698892D01*
X188880654Y-67603654D01*
X188880654Y-66794130D01*
%TO.C,MX15b1*%
X299728273Y-55475130D02*
X299728273Y-54475130D01*
X300061607Y-55189416D01*
X300394940Y-54475130D01*
X300394940Y-55475130D01*
X300775892Y-54475130D02*
X301442559Y-55475130D01*
X301442559Y-54475130D02*
X300775892Y-55475130D01*
X302347321Y-55475130D02*
X301775892Y-55475130D01*
X302061607Y-55475130D02*
X302061607Y-54475130D01*
X301966369Y-54617988D01*
X301871130Y-54713226D01*
X301775892Y-54760845D01*
X303252083Y-54475130D02*
X302775892Y-54475130D01*
X302728273Y-54951321D01*
X302775892Y-54903702D01*
X302871130Y-54856083D01*
X303109226Y-54856083D01*
X303204464Y-54903702D01*
X303252083Y-54951321D01*
X303299702Y-55046559D01*
X303299702Y-55284654D01*
X303252083Y-55379892D01*
X303204464Y-55427511D01*
X303109226Y-55475130D01*
X302871130Y-55475130D01*
X302775892Y-55427511D01*
X302728273Y-55379892D01*
X303728273Y-55475130D02*
X303728273Y-54475130D01*
X303728273Y-54856083D02*
X303823511Y-54808464D01*
X304013988Y-54808464D01*
X304109226Y-54856083D01*
X304156845Y-54903702D01*
X304204464Y-54998940D01*
X304204464Y-55284654D01*
X304156845Y-55379892D01*
X304109226Y-55427511D01*
X304013988Y-55475130D01*
X303823511Y-55475130D01*
X303728273Y-55427511D01*
X305156845Y-55475130D02*
X304585416Y-55475130D01*
X304871130Y-55475130D02*
X304871130Y-54475130D01*
X304775892Y-54617988D01*
X304680654Y-54713226D01*
X304585416Y-54760845D01*
X301609226Y-47839369D02*
X301656845Y-47791750D01*
X301752083Y-47744130D01*
X301990178Y-47744130D01*
X302085416Y-47791750D01*
X302133035Y-47839369D01*
X302180654Y-47934607D01*
X302180654Y-48029845D01*
X302133035Y-48172702D01*
X301561607Y-48744130D01*
X302180654Y-48744130D01*
X302609226Y-47744130D02*
X302609226Y-48553654D01*
X302656845Y-48648892D01*
X302704464Y-48696511D01*
X302799702Y-48744130D01*
X302990178Y-48744130D01*
X303085416Y-48696511D01*
X303133035Y-48648892D01*
X303180654Y-48553654D01*
X303180654Y-47744130D01*
%TO.C,MX10*%
X214931845Y-55475130D02*
X214931845Y-54475130D01*
X215265178Y-55189416D01*
X215598511Y-54475130D01*
X215598511Y-55475130D01*
X215979464Y-54475130D02*
X216646130Y-55475130D01*
X216646130Y-54475130D02*
X215979464Y-55475130D01*
X217550892Y-55475130D02*
X216979464Y-55475130D01*
X217265178Y-55475130D02*
X217265178Y-54475130D01*
X217169940Y-54617988D01*
X217074702Y-54713226D01*
X216979464Y-54760845D01*
X218169940Y-54475130D02*
X218265178Y-54475130D01*
X218360416Y-54522750D01*
X218408035Y-54570369D01*
X218455654Y-54665607D01*
X218503273Y-54856083D01*
X218503273Y-55094178D01*
X218455654Y-55284654D01*
X218408035Y-55379892D01*
X218360416Y-55427511D01*
X218265178Y-55475130D01*
X218169940Y-55475130D01*
X218074702Y-55427511D01*
X218027083Y-55379892D01*
X217979464Y-55284654D01*
X217931845Y-55094178D01*
X217931845Y-54856083D01*
X217979464Y-54665607D01*
X218027083Y-54570369D01*
X218074702Y-54522750D01*
X218169940Y-54475130D01*
X216455654Y-48744130D02*
X215884226Y-48744130D01*
X216169940Y-48744130D02*
X216169940Y-47744130D01*
X216074702Y-47886988D01*
X215979464Y-47982226D01*
X215884226Y-48029845D01*
X216884226Y-47744130D02*
X216884226Y-48553654D01*
X216931845Y-48648892D01*
X216979464Y-48696511D01*
X217074702Y-48744130D01*
X217265178Y-48744130D01*
X217360416Y-48696511D01*
X217408035Y-48648892D01*
X217455654Y-48553654D01*
X217455654Y-47744130D01*
%TO.C,MX9*%
X196358035Y-55475130D02*
X196358035Y-54475130D01*
X196691369Y-55189416D01*
X197024702Y-54475130D01*
X197024702Y-55475130D01*
X197405654Y-54475130D02*
X198072321Y-55475130D01*
X198072321Y-54475130D02*
X197405654Y-55475130D01*
X198500892Y-55475130D02*
X198691369Y-55475130D01*
X198786607Y-55427511D01*
X198834226Y-55379892D01*
X198929464Y-55237035D01*
X198977083Y-55046559D01*
X198977083Y-54665607D01*
X198929464Y-54570369D01*
X198881845Y-54522750D01*
X198786607Y-54475130D01*
X198596130Y-54475130D01*
X198500892Y-54522750D01*
X198453273Y-54570369D01*
X198405654Y-54665607D01*
X198405654Y-54903702D01*
X198453273Y-54998940D01*
X198500892Y-55046559D01*
X198596130Y-55094178D01*
X198786607Y-55094178D01*
X198881845Y-55046559D01*
X198929464Y-54998940D01*
X198977083Y-54903702D01*
X197405654Y-48744130D02*
X196834226Y-48744130D01*
X197119940Y-48744130D02*
X197119940Y-47744130D01*
X197024702Y-47886988D01*
X196929464Y-47982226D01*
X196834226Y-48029845D01*
X197834226Y-47744130D02*
X197834226Y-48553654D01*
X197881845Y-48648892D01*
X197929464Y-48696511D01*
X198024702Y-48744130D01*
X198215178Y-48744130D01*
X198310416Y-48696511D01*
X198358035Y-48648892D01*
X198405654Y-48553654D01*
X198405654Y-47744130D01*
%TO.C,MX47*%
X124444345Y-112625130D02*
X124444345Y-111625130D01*
X124777678Y-112339416D01*
X125111011Y-111625130D01*
X125111011Y-112625130D01*
X125491964Y-111625130D02*
X126158630Y-112625130D01*
X126158630Y-111625130D02*
X125491964Y-112625130D01*
X126968154Y-111958464D02*
X126968154Y-112625130D01*
X126730059Y-111577511D02*
X126491964Y-112291797D01*
X127111011Y-112291797D01*
X127396726Y-111625130D02*
X128063392Y-111625130D01*
X127634821Y-112625130D01*
X125968154Y-105894130D02*
X125396726Y-105894130D01*
X125682440Y-105894130D02*
X125682440Y-104894130D01*
X125587202Y-105036988D01*
X125491964Y-105132226D01*
X125396726Y-105179845D01*
X126396726Y-104894130D02*
X126396726Y-105703654D01*
X126444345Y-105798892D01*
X126491964Y-105846511D01*
X126587202Y-105894130D01*
X126777678Y-105894130D01*
X126872916Y-105846511D01*
X126920535Y-105798892D01*
X126968154Y-105703654D01*
X126968154Y-104894130D01*
%TO.C,MX21*%
X148256845Y-74525130D02*
X148256845Y-73525130D01*
X148590178Y-74239416D01*
X148923511Y-73525130D01*
X148923511Y-74525130D01*
X149304464Y-73525130D02*
X149971130Y-74525130D01*
X149971130Y-73525130D02*
X149304464Y-74525130D01*
X150304464Y-73620369D02*
X150352083Y-73572750D01*
X150447321Y-73525130D01*
X150685416Y-73525130D01*
X150780654Y-73572750D01*
X150828273Y-73620369D01*
X150875892Y-73715607D01*
X150875892Y-73810845D01*
X150828273Y-73953702D01*
X150256845Y-74525130D01*
X150875892Y-74525130D01*
X151828273Y-74525130D02*
X151256845Y-74525130D01*
X151542559Y-74525130D02*
X151542559Y-73525130D01*
X151447321Y-73667988D01*
X151352083Y-73763226D01*
X151256845Y-73810845D01*
X149780654Y-67794130D02*
X149209226Y-67794130D01*
X149494940Y-67794130D02*
X149494940Y-66794130D01*
X149399702Y-66936988D01*
X149304464Y-67032226D01*
X149209226Y-67079845D01*
X150209226Y-66794130D02*
X150209226Y-67603654D01*
X150256845Y-67698892D01*
X150304464Y-67746511D01*
X150399702Y-67794130D01*
X150590178Y-67794130D01*
X150685416Y-67746511D01*
X150733035Y-67698892D01*
X150780654Y-67603654D01*
X150780654Y-66794130D01*
%TO.C,MX13*%
X272081845Y-55475130D02*
X272081845Y-54475130D01*
X272415178Y-55189416D01*
X272748511Y-54475130D01*
X272748511Y-55475130D01*
X273129464Y-54475130D02*
X273796130Y-55475130D01*
X273796130Y-54475130D02*
X273129464Y-55475130D01*
X274700892Y-55475130D02*
X274129464Y-55475130D01*
X274415178Y-55475130D02*
X274415178Y-54475130D01*
X274319940Y-54617988D01*
X274224702Y-54713226D01*
X274129464Y-54760845D01*
X275034226Y-54475130D02*
X275653273Y-54475130D01*
X275319940Y-54856083D01*
X275462797Y-54856083D01*
X275558035Y-54903702D01*
X275605654Y-54951321D01*
X275653273Y-55046559D01*
X275653273Y-55284654D01*
X275605654Y-55379892D01*
X275558035Y-55427511D01*
X275462797Y-55475130D01*
X275177083Y-55475130D01*
X275081845Y-55427511D01*
X275034226Y-55379892D01*
X273605654Y-48744130D02*
X273034226Y-48744130D01*
X273319940Y-48744130D02*
X273319940Y-47744130D01*
X273224702Y-47886988D01*
X273129464Y-47982226D01*
X273034226Y-48029845D01*
X274034226Y-47744130D02*
X274034226Y-48553654D01*
X274081845Y-48648892D01*
X274129464Y-48696511D01*
X274224702Y-48744130D01*
X274415178Y-48744130D01*
X274510416Y-48696511D01*
X274558035Y-48648892D01*
X274605654Y-48553654D01*
X274605654Y-47744130D01*
%TO.C,MX38*%
X210169345Y-93575130D02*
X210169345Y-92575130D01*
X210502678Y-93289416D01*
X210836011Y-92575130D01*
X210836011Y-93575130D01*
X211216964Y-92575130D02*
X211883630Y-93575130D01*
X211883630Y-92575130D02*
X211216964Y-93575130D01*
X212169345Y-92575130D02*
X212788392Y-92575130D01*
X212455059Y-92956083D01*
X212597916Y-92956083D01*
X212693154Y-93003702D01*
X212740773Y-93051321D01*
X212788392Y-93146559D01*
X212788392Y-93384654D01*
X212740773Y-93479892D01*
X212693154Y-93527511D01*
X212597916Y-93575130D01*
X212312202Y-93575130D01*
X212216964Y-93527511D01*
X212169345Y-93479892D01*
X213359821Y-93003702D02*
X213264583Y-92956083D01*
X213216964Y-92908464D01*
X213169345Y-92813226D01*
X213169345Y-92765607D01*
X213216964Y-92670369D01*
X213264583Y-92622750D01*
X213359821Y-92575130D01*
X213550297Y-92575130D01*
X213645535Y-92622750D01*
X213693154Y-92670369D01*
X213740773Y-92765607D01*
X213740773Y-92813226D01*
X213693154Y-92908464D01*
X213645535Y-92956083D01*
X213550297Y-93003702D01*
X213359821Y-93003702D01*
X213264583Y-93051321D01*
X213216964Y-93098940D01*
X213169345Y-93194178D01*
X213169345Y-93384654D01*
X213216964Y-93479892D01*
X213264583Y-93527511D01*
X213359821Y-93575130D01*
X213550297Y-93575130D01*
X213645535Y-93527511D01*
X213693154Y-93479892D01*
X213740773Y-93384654D01*
X213740773Y-93194178D01*
X213693154Y-93098940D01*
X213645535Y-93051321D01*
X213550297Y-93003702D01*
X211693154Y-86844130D02*
X211121726Y-86844130D01*
X211407440Y-86844130D02*
X211407440Y-85844130D01*
X211312202Y-85986988D01*
X211216964Y-86082226D01*
X211121726Y-86129845D01*
X212121726Y-85844130D02*
X212121726Y-86653654D01*
X212169345Y-86748892D01*
X212216964Y-86796511D01*
X212312202Y-86844130D01*
X212502678Y-86844130D01*
X212597916Y-86796511D01*
X212645535Y-86748892D01*
X212693154Y-86653654D01*
X212693154Y-85844130D01*
%TO.C,MX39*%
X229219345Y-93575130D02*
X229219345Y-92575130D01*
X229552678Y-93289416D01*
X229886011Y-92575130D01*
X229886011Y-93575130D01*
X230266964Y-92575130D02*
X230933630Y-93575130D01*
X230933630Y-92575130D02*
X230266964Y-93575130D01*
X231219345Y-92575130D02*
X231838392Y-92575130D01*
X231505059Y-92956083D01*
X231647916Y-92956083D01*
X231743154Y-93003702D01*
X231790773Y-93051321D01*
X231838392Y-93146559D01*
X231838392Y-93384654D01*
X231790773Y-93479892D01*
X231743154Y-93527511D01*
X231647916Y-93575130D01*
X231362202Y-93575130D01*
X231266964Y-93527511D01*
X231219345Y-93479892D01*
X232314583Y-93575130D02*
X232505059Y-93575130D01*
X232600297Y-93527511D01*
X232647916Y-93479892D01*
X232743154Y-93337035D01*
X232790773Y-93146559D01*
X232790773Y-92765607D01*
X232743154Y-92670369D01*
X232695535Y-92622750D01*
X232600297Y-92575130D01*
X232409821Y-92575130D01*
X232314583Y-92622750D01*
X232266964Y-92670369D01*
X232219345Y-92765607D01*
X232219345Y-93003702D01*
X232266964Y-93098940D01*
X232314583Y-93146559D01*
X232409821Y-93194178D01*
X232600297Y-93194178D01*
X232695535Y-93146559D01*
X232743154Y-93098940D01*
X232790773Y-93003702D01*
X230743154Y-86844130D02*
X230171726Y-86844130D01*
X230457440Y-86844130D02*
X230457440Y-85844130D01*
X230362202Y-85986988D01*
X230266964Y-86082226D01*
X230171726Y-86129845D01*
X231171726Y-85844130D02*
X231171726Y-86653654D01*
X231219345Y-86748892D01*
X231266964Y-86796511D01*
X231362202Y-86844130D01*
X231552678Y-86844130D01*
X231647916Y-86796511D01*
X231695535Y-86748892D01*
X231743154Y-86653654D01*
X231743154Y-85844130D01*
%TO.C,MX51*%
X200644345Y-112625130D02*
X200644345Y-111625130D01*
X200977678Y-112339416D01*
X201311011Y-111625130D01*
X201311011Y-112625130D01*
X201691964Y-111625130D02*
X202358630Y-112625130D01*
X202358630Y-111625130D02*
X201691964Y-112625130D01*
X203215773Y-111625130D02*
X202739583Y-111625130D01*
X202691964Y-112101321D01*
X202739583Y-112053702D01*
X202834821Y-112006083D01*
X203072916Y-112006083D01*
X203168154Y-112053702D01*
X203215773Y-112101321D01*
X203263392Y-112196559D01*
X203263392Y-112434654D01*
X203215773Y-112529892D01*
X203168154Y-112577511D01*
X203072916Y-112625130D01*
X202834821Y-112625130D01*
X202739583Y-112577511D01*
X202691964Y-112529892D01*
X204215773Y-112625130D02*
X203644345Y-112625130D01*
X203930059Y-112625130D02*
X203930059Y-111625130D01*
X203834821Y-111767988D01*
X203739583Y-111863226D01*
X203644345Y-111910845D01*
X202168154Y-105894130D02*
X201596726Y-105894130D01*
X201882440Y-105894130D02*
X201882440Y-104894130D01*
X201787202Y-105036988D01*
X201691964Y-105132226D01*
X201596726Y-105179845D01*
X202596726Y-104894130D02*
X202596726Y-105703654D01*
X202644345Y-105798892D01*
X202691964Y-105846511D01*
X202787202Y-105894130D01*
X202977678Y-105894130D01*
X203072916Y-105846511D01*
X203120535Y-105798892D01*
X203168154Y-105703654D01*
X203168154Y-104894130D01*
%TO.C,MX3*%
X82058035Y-55475130D02*
X82058035Y-54475130D01*
X82391369Y-55189416D01*
X82724702Y-54475130D01*
X82724702Y-55475130D01*
X83105654Y-54475130D02*
X83772321Y-55475130D01*
X83772321Y-54475130D02*
X83105654Y-55475130D01*
X84058035Y-54475130D02*
X84677083Y-54475130D01*
X84343750Y-54856083D01*
X84486607Y-54856083D01*
X84581845Y-54903702D01*
X84629464Y-54951321D01*
X84677083Y-55046559D01*
X84677083Y-55284654D01*
X84629464Y-55379892D01*
X84581845Y-55427511D01*
X84486607Y-55475130D01*
X84200892Y-55475130D01*
X84105654Y-55427511D01*
X84058035Y-55379892D01*
X83105654Y-48744130D02*
X82534226Y-48744130D01*
X82819940Y-48744130D02*
X82819940Y-47744130D01*
X82724702Y-47886988D01*
X82629464Y-47982226D01*
X82534226Y-48029845D01*
X83534226Y-47744130D02*
X83534226Y-48553654D01*
X83581845Y-48648892D01*
X83629464Y-48696511D01*
X83724702Y-48744130D01*
X83915178Y-48744130D01*
X84010416Y-48696511D01*
X84058035Y-48648892D01*
X84105654Y-48553654D01*
X84105654Y-47744130D01*
%TO.C,MX48*%
X143494345Y-112625130D02*
X143494345Y-111625130D01*
X143827678Y-112339416D01*
X144161011Y-111625130D01*
X144161011Y-112625130D01*
X144541964Y-111625130D02*
X145208630Y-112625130D01*
X145208630Y-111625130D02*
X144541964Y-112625130D01*
X146018154Y-111958464D02*
X146018154Y-112625130D01*
X145780059Y-111577511D02*
X145541964Y-112291797D01*
X146161011Y-112291797D01*
X146684821Y-112053702D02*
X146589583Y-112006083D01*
X146541964Y-111958464D01*
X146494345Y-111863226D01*
X146494345Y-111815607D01*
X146541964Y-111720369D01*
X146589583Y-111672750D01*
X146684821Y-111625130D01*
X146875297Y-111625130D01*
X146970535Y-111672750D01*
X147018154Y-111720369D01*
X147065773Y-111815607D01*
X147065773Y-111863226D01*
X147018154Y-111958464D01*
X146970535Y-112006083D01*
X146875297Y-112053702D01*
X146684821Y-112053702D01*
X146589583Y-112101321D01*
X146541964Y-112148940D01*
X146494345Y-112244178D01*
X146494345Y-112434654D01*
X146541964Y-112529892D01*
X146589583Y-112577511D01*
X146684821Y-112625130D01*
X146875297Y-112625130D01*
X146970535Y-112577511D01*
X147018154Y-112529892D01*
X147065773Y-112434654D01*
X147065773Y-112244178D01*
X147018154Y-112148940D01*
X146970535Y-112101321D01*
X146875297Y-112053702D01*
X145018154Y-105894130D02*
X144446726Y-105894130D01*
X144732440Y-105894130D02*
X144732440Y-104894130D01*
X144637202Y-105036988D01*
X144541964Y-105132226D01*
X144446726Y-105179845D01*
X145446726Y-104894130D02*
X145446726Y-105703654D01*
X145494345Y-105798892D01*
X145541964Y-105846511D01*
X145637202Y-105894130D01*
X145827678Y-105894130D01*
X145922916Y-105846511D01*
X145970535Y-105798892D01*
X146018154Y-105703654D01*
X146018154Y-104894130D01*
%TO.C,MX49*%
X162544345Y-112625130D02*
X162544345Y-111625130D01*
X162877678Y-112339416D01*
X163211011Y-111625130D01*
X163211011Y-112625130D01*
X163591964Y-111625130D02*
X164258630Y-112625130D01*
X164258630Y-111625130D02*
X163591964Y-112625130D01*
X165068154Y-111958464D02*
X165068154Y-112625130D01*
X164830059Y-111577511D02*
X164591964Y-112291797D01*
X165211011Y-112291797D01*
X165639583Y-112625130D02*
X165830059Y-112625130D01*
X165925297Y-112577511D01*
X165972916Y-112529892D01*
X166068154Y-112387035D01*
X166115773Y-112196559D01*
X166115773Y-111815607D01*
X166068154Y-111720369D01*
X166020535Y-111672750D01*
X165925297Y-111625130D01*
X165734821Y-111625130D01*
X165639583Y-111672750D01*
X165591964Y-111720369D01*
X165544345Y-111815607D01*
X165544345Y-112053702D01*
X165591964Y-112148940D01*
X165639583Y-112196559D01*
X165734821Y-112244178D01*
X165925297Y-112244178D01*
X166020535Y-112196559D01*
X166068154Y-112148940D01*
X166115773Y-112053702D01*
X164068154Y-105894130D02*
X163496726Y-105894130D01*
X163782440Y-105894130D02*
X163782440Y-104894130D01*
X163687202Y-105036988D01*
X163591964Y-105132226D01*
X163496726Y-105179845D01*
X164496726Y-104894130D02*
X164496726Y-105703654D01*
X164544345Y-105798892D01*
X164591964Y-105846511D01*
X164687202Y-105894130D01*
X164877678Y-105894130D01*
X164972916Y-105846511D01*
X165020535Y-105798892D01*
X165068154Y-105703654D01*
X165068154Y-104894130D01*
%TO.C,MX59*%
X95869345Y-131675130D02*
X95869345Y-130675130D01*
X96202678Y-131389416D01*
X96536011Y-130675130D01*
X96536011Y-131675130D01*
X96916964Y-130675130D02*
X97583630Y-131675130D01*
X97583630Y-130675130D02*
X96916964Y-131675130D01*
X98440773Y-130675130D02*
X97964583Y-130675130D01*
X97916964Y-131151321D01*
X97964583Y-131103702D01*
X98059821Y-131056083D01*
X98297916Y-131056083D01*
X98393154Y-131103702D01*
X98440773Y-131151321D01*
X98488392Y-131246559D01*
X98488392Y-131484654D01*
X98440773Y-131579892D01*
X98393154Y-131627511D01*
X98297916Y-131675130D01*
X98059821Y-131675130D01*
X97964583Y-131627511D01*
X97916964Y-131579892D01*
X98964583Y-131675130D02*
X99155059Y-131675130D01*
X99250297Y-131627511D01*
X99297916Y-131579892D01*
X99393154Y-131437035D01*
X99440773Y-131246559D01*
X99440773Y-130865607D01*
X99393154Y-130770369D01*
X99345535Y-130722750D01*
X99250297Y-130675130D01*
X99059821Y-130675130D01*
X98964583Y-130722750D01*
X98916964Y-130770369D01*
X98869345Y-130865607D01*
X98869345Y-131103702D01*
X98916964Y-131198940D01*
X98964583Y-131246559D01*
X99059821Y-131294178D01*
X99250297Y-131294178D01*
X99345535Y-131246559D01*
X99393154Y-131198940D01*
X99440773Y-131103702D01*
X96678869Y-124944130D02*
X96107440Y-124944130D01*
X96393154Y-124944130D02*
X96393154Y-123944130D01*
X96297916Y-124086988D01*
X96202678Y-124182226D01*
X96107440Y-124229845D01*
X97107440Y-124848892D02*
X97155059Y-124896511D01*
X97107440Y-124944130D01*
X97059821Y-124896511D01*
X97107440Y-124848892D01*
X97107440Y-124944130D01*
X98059821Y-123944130D02*
X97583630Y-123944130D01*
X97536011Y-124420321D01*
X97583630Y-124372702D01*
X97678869Y-124325083D01*
X97916964Y-124325083D01*
X98012202Y-124372702D01*
X98059821Y-124420321D01*
X98107440Y-124515559D01*
X98107440Y-124753654D01*
X98059821Y-124848892D01*
X98012202Y-124896511D01*
X97916964Y-124944130D01*
X97678869Y-124944130D01*
X97583630Y-124896511D01*
X97536011Y-124848892D01*
X98536011Y-123944130D02*
X98536011Y-124753654D01*
X98583630Y-124848892D01*
X98631250Y-124896511D01*
X98726488Y-124944130D01*
X98916964Y-124944130D01*
X99012202Y-124896511D01*
X99059821Y-124848892D01*
X99107440Y-124753654D01*
X99107440Y-123944130D01*
%TO.C,MX43*%
X45863095Y-112625130D02*
X45863095Y-111625130D01*
X46196428Y-112339416D01*
X46529761Y-111625130D01*
X46529761Y-112625130D01*
X46910714Y-111625130D02*
X47577380Y-112625130D01*
X47577380Y-111625130D02*
X46910714Y-112625130D01*
X48386904Y-111958464D02*
X48386904Y-112625130D01*
X48148809Y-111577511D02*
X47910714Y-112291797D01*
X48529761Y-112291797D01*
X48815476Y-111625130D02*
X49434523Y-111625130D01*
X49101190Y-112006083D01*
X49244047Y-112006083D01*
X49339285Y-112053702D01*
X49386904Y-112101321D01*
X49434523Y-112196559D01*
X49434523Y-112434654D01*
X49386904Y-112529892D01*
X49339285Y-112577511D01*
X49244047Y-112625130D01*
X48958333Y-112625130D01*
X48863095Y-112577511D01*
X48815476Y-112529892D01*
X46196428Y-105894130D02*
X45625000Y-105894130D01*
X45910714Y-105894130D02*
X45910714Y-104894130D01*
X45815476Y-105036988D01*
X45720238Y-105132226D01*
X45625000Y-105179845D01*
X46625000Y-105798892D02*
X46672619Y-105846511D01*
X46625000Y-105894130D01*
X46577380Y-105846511D01*
X46625000Y-105798892D01*
X46625000Y-105894130D01*
X47053571Y-104989369D02*
X47101190Y-104941750D01*
X47196428Y-104894130D01*
X47434523Y-104894130D01*
X47529761Y-104941750D01*
X47577380Y-104989369D01*
X47625000Y-105084607D01*
X47625000Y-105179845D01*
X47577380Y-105322702D01*
X47005952Y-105894130D01*
X47625000Y-105894130D01*
X48529761Y-104894130D02*
X48053571Y-104894130D01*
X48005952Y-105370321D01*
X48053571Y-105322702D01*
X48148809Y-105275083D01*
X48386904Y-105275083D01*
X48482142Y-105322702D01*
X48529761Y-105370321D01*
X48577380Y-105465559D01*
X48577380Y-105703654D01*
X48529761Y-105798892D01*
X48482142Y-105846511D01*
X48386904Y-105894130D01*
X48148809Y-105894130D01*
X48053571Y-105846511D01*
X48005952Y-105798892D01*
X49005952Y-104894130D02*
X49005952Y-105703654D01*
X49053571Y-105798892D01*
X49101190Y-105846511D01*
X49196428Y-105894130D01*
X49386904Y-105894130D01*
X49482142Y-105846511D01*
X49529761Y-105798892D01*
X49577380Y-105703654D01*
X49577380Y-104894130D01*
%TO.C,MX12*%
X253031845Y-55475130D02*
X253031845Y-54475130D01*
X253365178Y-55189416D01*
X253698511Y-54475130D01*
X253698511Y-55475130D01*
X254079464Y-54475130D02*
X254746130Y-55475130D01*
X254746130Y-54475130D02*
X254079464Y-55475130D01*
X255650892Y-55475130D02*
X255079464Y-55475130D01*
X255365178Y-55475130D02*
X255365178Y-54475130D01*
X255269940Y-54617988D01*
X255174702Y-54713226D01*
X255079464Y-54760845D01*
X256031845Y-54570369D02*
X256079464Y-54522750D01*
X256174702Y-54475130D01*
X256412797Y-54475130D01*
X256508035Y-54522750D01*
X256555654Y-54570369D01*
X256603273Y-54665607D01*
X256603273Y-54760845D01*
X256555654Y-54903702D01*
X255984226Y-55475130D01*
X256603273Y-55475130D01*
X254555654Y-48744130D02*
X253984226Y-48744130D01*
X254269940Y-48744130D02*
X254269940Y-47744130D01*
X254174702Y-47886988D01*
X254079464Y-47982226D01*
X253984226Y-48029845D01*
X254984226Y-47744130D02*
X254984226Y-48553654D01*
X255031845Y-48648892D01*
X255079464Y-48696511D01*
X255174702Y-48744130D01*
X255365178Y-48744130D01*
X255460416Y-48696511D01*
X255508035Y-48648892D01*
X255555654Y-48553654D01*
X255555654Y-47744130D01*
%TO.C,MX20*%
X129206845Y-74525130D02*
X129206845Y-73525130D01*
X129540178Y-74239416D01*
X129873511Y-73525130D01*
X129873511Y-74525130D01*
X130254464Y-73525130D02*
X130921130Y-74525130D01*
X130921130Y-73525130D02*
X130254464Y-74525130D01*
X131254464Y-73620369D02*
X131302083Y-73572750D01*
X131397321Y-73525130D01*
X131635416Y-73525130D01*
X131730654Y-73572750D01*
X131778273Y-73620369D01*
X131825892Y-73715607D01*
X131825892Y-73810845D01*
X131778273Y-73953702D01*
X131206845Y-74525130D01*
X131825892Y-74525130D01*
X132444940Y-73525130D02*
X132540178Y-73525130D01*
X132635416Y-73572750D01*
X132683035Y-73620369D01*
X132730654Y-73715607D01*
X132778273Y-73906083D01*
X132778273Y-74144178D01*
X132730654Y-74334654D01*
X132683035Y-74429892D01*
X132635416Y-74477511D01*
X132540178Y-74525130D01*
X132444940Y-74525130D01*
X132349702Y-74477511D01*
X132302083Y-74429892D01*
X132254464Y-74334654D01*
X132206845Y-74144178D01*
X132206845Y-73906083D01*
X132254464Y-73715607D01*
X132302083Y-73620369D01*
X132349702Y-73572750D01*
X132444940Y-73525130D01*
X130730654Y-67794130D02*
X130159226Y-67794130D01*
X130444940Y-67794130D02*
X130444940Y-66794130D01*
X130349702Y-66936988D01*
X130254464Y-67032226D01*
X130159226Y-67079845D01*
X131159226Y-66794130D02*
X131159226Y-67603654D01*
X131206845Y-67698892D01*
X131254464Y-67746511D01*
X131349702Y-67794130D01*
X131540178Y-67794130D01*
X131635416Y-67746511D01*
X131683035Y-67698892D01*
X131730654Y-67603654D01*
X131730654Y-66794130D01*
%TO.C,MX43b1*%
X54459523Y-112625130D02*
X54459523Y-111625130D01*
X54792857Y-112339416D01*
X55126190Y-111625130D01*
X55126190Y-112625130D01*
X55507142Y-111625130D02*
X56173809Y-112625130D01*
X56173809Y-111625130D02*
X55507142Y-112625130D01*
X56983333Y-111958464D02*
X56983333Y-112625130D01*
X56745238Y-111577511D02*
X56507142Y-112291797D01*
X57126190Y-112291797D01*
X57411904Y-111625130D02*
X58030952Y-111625130D01*
X57697619Y-112006083D01*
X57840476Y-112006083D01*
X57935714Y-112053702D01*
X57983333Y-112101321D01*
X58030952Y-112196559D01*
X58030952Y-112434654D01*
X57983333Y-112529892D01*
X57935714Y-112577511D01*
X57840476Y-112625130D01*
X57554761Y-112625130D01*
X57459523Y-112577511D01*
X57411904Y-112529892D01*
X58459523Y-112625130D02*
X58459523Y-111625130D01*
X58459523Y-112006083D02*
X58554761Y-111958464D01*
X58745238Y-111958464D01*
X58840476Y-112006083D01*
X58888095Y-112053702D01*
X58935714Y-112148940D01*
X58935714Y-112434654D01*
X58888095Y-112529892D01*
X58840476Y-112577511D01*
X58745238Y-112625130D01*
X58554761Y-112625130D01*
X58459523Y-112577511D01*
X59888095Y-112625130D02*
X59316666Y-112625130D01*
X59602380Y-112625130D02*
X59602380Y-111625130D01*
X59507142Y-111767988D01*
X59411904Y-111863226D01*
X59316666Y-111910845D01*
X55150000Y-104989369D02*
X55197619Y-104941750D01*
X55292857Y-104894130D01*
X55530952Y-104894130D01*
X55626190Y-104941750D01*
X55673809Y-104989369D01*
X55721428Y-105084607D01*
X55721428Y-105179845D01*
X55673809Y-105322702D01*
X55102380Y-105894130D01*
X55721428Y-105894130D01*
X56150000Y-105798892D02*
X56197619Y-105846511D01*
X56150000Y-105894130D01*
X56102380Y-105846511D01*
X56150000Y-105798892D01*
X56150000Y-105894130D01*
X56578571Y-104989369D02*
X56626190Y-104941750D01*
X56721428Y-104894130D01*
X56959523Y-104894130D01*
X57054761Y-104941750D01*
X57102380Y-104989369D01*
X57150000Y-105084607D01*
X57150000Y-105179845D01*
X57102380Y-105322702D01*
X56530952Y-105894130D01*
X57150000Y-105894130D01*
X58054761Y-104894130D02*
X57578571Y-104894130D01*
X57530952Y-105370321D01*
X57578571Y-105322702D01*
X57673809Y-105275083D01*
X57911904Y-105275083D01*
X58007142Y-105322702D01*
X58054761Y-105370321D01*
X58102380Y-105465559D01*
X58102380Y-105703654D01*
X58054761Y-105798892D01*
X58007142Y-105846511D01*
X57911904Y-105894130D01*
X57673809Y-105894130D01*
X57578571Y-105846511D01*
X57530952Y-105798892D01*
X58530952Y-104894130D02*
X58530952Y-105703654D01*
X58578571Y-105798892D01*
X58626190Y-105846511D01*
X58721428Y-105894130D01*
X58911904Y-105894130D01*
X59007142Y-105846511D01*
X59054761Y-105798892D01*
X59102380Y-105703654D01*
X59102380Y-104894130D01*
%TO.C,MX62*%
X281606845Y-131675130D02*
X281606845Y-130675130D01*
X281940178Y-131389416D01*
X282273511Y-130675130D01*
X282273511Y-131675130D01*
X282654464Y-130675130D02*
X283321130Y-131675130D01*
X283321130Y-130675130D02*
X282654464Y-131675130D01*
X284130654Y-130675130D02*
X283940178Y-130675130D01*
X283844940Y-130722750D01*
X283797321Y-130770369D01*
X283702083Y-130913226D01*
X283654464Y-131103702D01*
X283654464Y-131484654D01*
X283702083Y-131579892D01*
X283749702Y-131627511D01*
X283844940Y-131675130D01*
X284035416Y-131675130D01*
X284130654Y-131627511D01*
X284178273Y-131579892D01*
X284225892Y-131484654D01*
X284225892Y-131246559D01*
X284178273Y-131151321D01*
X284130654Y-131103702D01*
X284035416Y-131056083D01*
X283844940Y-131056083D01*
X283749702Y-131103702D01*
X283702083Y-131151321D01*
X283654464Y-131246559D01*
X284606845Y-130770369D02*
X284654464Y-130722750D01*
X284749702Y-130675130D01*
X284987797Y-130675130D01*
X285083035Y-130722750D01*
X285130654Y-130770369D01*
X285178273Y-130865607D01*
X285178273Y-130960845D01*
X285130654Y-131103702D01*
X284559226Y-131675130D01*
X285178273Y-131675130D01*
X283130654Y-124944130D02*
X282559226Y-124944130D01*
X282844940Y-124944130D02*
X282844940Y-123944130D01*
X282749702Y-124086988D01*
X282654464Y-124182226D01*
X282559226Y-124229845D01*
X283559226Y-123944130D02*
X283559226Y-124753654D01*
X283606845Y-124848892D01*
X283654464Y-124896511D01*
X283749702Y-124944130D01*
X283940178Y-124944130D01*
X284035416Y-124896511D01*
X284083035Y-124848892D01*
X284130654Y-124753654D01*
X284130654Y-123944130D01*
%TO.C,MX17*%
X72056845Y-74525130D02*
X72056845Y-73525130D01*
X72390178Y-74239416D01*
X72723511Y-73525130D01*
X72723511Y-74525130D01*
X73104464Y-73525130D02*
X73771130Y-74525130D01*
X73771130Y-73525130D02*
X73104464Y-74525130D01*
X74675892Y-74525130D02*
X74104464Y-74525130D01*
X74390178Y-74525130D02*
X74390178Y-73525130D01*
X74294940Y-73667988D01*
X74199702Y-73763226D01*
X74104464Y-73810845D01*
X75009226Y-73525130D02*
X75675892Y-73525130D01*
X75247321Y-74525130D01*
X73580654Y-67794130D02*
X73009226Y-67794130D01*
X73294940Y-67794130D02*
X73294940Y-66794130D01*
X73199702Y-66936988D01*
X73104464Y-67032226D01*
X73009226Y-67079845D01*
X74009226Y-66794130D02*
X74009226Y-67603654D01*
X74056845Y-67698892D01*
X74104464Y-67746511D01*
X74199702Y-67794130D01*
X74390178Y-67794130D01*
X74485416Y-67746511D01*
X74533035Y-67698892D01*
X74580654Y-67603654D01*
X74580654Y-66794130D01*
%TO.C,MX15*%
X310181845Y-55475130D02*
X310181845Y-54475130D01*
X310515178Y-55189416D01*
X310848511Y-54475130D01*
X310848511Y-55475130D01*
X311229464Y-54475130D02*
X311896130Y-55475130D01*
X311896130Y-54475130D02*
X311229464Y-55475130D01*
X312800892Y-55475130D02*
X312229464Y-55475130D01*
X312515178Y-55475130D02*
X312515178Y-54475130D01*
X312419940Y-54617988D01*
X312324702Y-54713226D01*
X312229464Y-54760845D01*
X313705654Y-54475130D02*
X313229464Y-54475130D01*
X313181845Y-54951321D01*
X313229464Y-54903702D01*
X313324702Y-54856083D01*
X313562797Y-54856083D01*
X313658035Y-54903702D01*
X313705654Y-54951321D01*
X313753273Y-55046559D01*
X313753273Y-55284654D01*
X313705654Y-55379892D01*
X313658035Y-55427511D01*
X313562797Y-55475130D01*
X313324702Y-55475130D01*
X313229464Y-55427511D01*
X313181845Y-55379892D01*
X311705654Y-48744130D02*
X311134226Y-48744130D01*
X311419940Y-48744130D02*
X311419940Y-47744130D01*
X311324702Y-47886988D01*
X311229464Y-47982226D01*
X311134226Y-48029845D01*
X312134226Y-47744130D02*
X312134226Y-48553654D01*
X312181845Y-48648892D01*
X312229464Y-48696511D01*
X312324702Y-48744130D01*
X312515178Y-48744130D01*
X312610416Y-48696511D01*
X312658035Y-48648892D01*
X312705654Y-48553654D01*
X312705654Y-47744130D01*
%TO.C,MX58*%
X72056845Y-131675130D02*
X72056845Y-130675130D01*
X72390178Y-131389416D01*
X72723511Y-130675130D01*
X72723511Y-131675130D01*
X73104464Y-130675130D02*
X73771130Y-131675130D01*
X73771130Y-130675130D02*
X73104464Y-131675130D01*
X74628273Y-130675130D02*
X74152083Y-130675130D01*
X74104464Y-131151321D01*
X74152083Y-131103702D01*
X74247321Y-131056083D01*
X74485416Y-131056083D01*
X74580654Y-131103702D01*
X74628273Y-131151321D01*
X74675892Y-131246559D01*
X74675892Y-131484654D01*
X74628273Y-131579892D01*
X74580654Y-131627511D01*
X74485416Y-131675130D01*
X74247321Y-131675130D01*
X74152083Y-131627511D01*
X74104464Y-131579892D01*
X75247321Y-131103702D02*
X75152083Y-131056083D01*
X75104464Y-131008464D01*
X75056845Y-130913226D01*
X75056845Y-130865607D01*
X75104464Y-130770369D01*
X75152083Y-130722750D01*
X75247321Y-130675130D01*
X75437797Y-130675130D01*
X75533035Y-130722750D01*
X75580654Y-130770369D01*
X75628273Y-130865607D01*
X75628273Y-130913226D01*
X75580654Y-131008464D01*
X75533035Y-131056083D01*
X75437797Y-131103702D01*
X75247321Y-131103702D01*
X75152083Y-131151321D01*
X75104464Y-131198940D01*
X75056845Y-131294178D01*
X75056845Y-131484654D01*
X75104464Y-131579892D01*
X75152083Y-131627511D01*
X75247321Y-131675130D01*
X75437797Y-131675130D01*
X75533035Y-131627511D01*
X75580654Y-131579892D01*
X75628273Y-131484654D01*
X75628273Y-131294178D01*
X75580654Y-131198940D01*
X75533035Y-131151321D01*
X75437797Y-131103702D01*
X73580654Y-124944130D02*
X73009226Y-124944130D01*
X73294940Y-124944130D02*
X73294940Y-123944130D01*
X73199702Y-124086988D01*
X73104464Y-124182226D01*
X73009226Y-124229845D01*
X74009226Y-123944130D02*
X74009226Y-124753654D01*
X74056845Y-124848892D01*
X74104464Y-124896511D01*
X74199702Y-124944130D01*
X74390178Y-124944130D01*
X74485416Y-124896511D01*
X74533035Y-124848892D01*
X74580654Y-124753654D01*
X74580654Y-123944130D01*
%TO.C,MX7*%
X158258035Y-55475130D02*
X158258035Y-54475130D01*
X158591369Y-55189416D01*
X158924702Y-54475130D01*
X158924702Y-55475130D01*
X159305654Y-54475130D02*
X159972321Y-55475130D01*
X159972321Y-54475130D02*
X159305654Y-55475130D01*
X160258035Y-54475130D02*
X160924702Y-54475130D01*
X160496130Y-55475130D01*
X159305654Y-48744130D02*
X158734226Y-48744130D01*
X159019940Y-48744130D02*
X159019940Y-47744130D01*
X158924702Y-47886988D01*
X158829464Y-47982226D01*
X158734226Y-48029845D01*
X159734226Y-47744130D02*
X159734226Y-48553654D01*
X159781845Y-48648892D01*
X159829464Y-48696511D01*
X159924702Y-48744130D01*
X160115178Y-48744130D01*
X160210416Y-48696511D01*
X160258035Y-48648892D01*
X160305654Y-48553654D01*
X160305654Y-47744130D01*
%TO.C,MX56b1*%
X292584523Y-112371130D02*
X292584523Y-111371130D01*
X292917857Y-112085416D01*
X293251190Y-111371130D01*
X293251190Y-112371130D01*
X293632142Y-111371130D02*
X294298809Y-112371130D01*
X294298809Y-111371130D02*
X293632142Y-112371130D01*
X295155952Y-111371130D02*
X294679761Y-111371130D01*
X294632142Y-111847321D01*
X294679761Y-111799702D01*
X294775000Y-111752083D01*
X295013095Y-111752083D01*
X295108333Y-111799702D01*
X295155952Y-111847321D01*
X295203571Y-111942559D01*
X295203571Y-112180654D01*
X295155952Y-112275892D01*
X295108333Y-112323511D01*
X295013095Y-112371130D01*
X294775000Y-112371130D01*
X294679761Y-112323511D01*
X294632142Y-112275892D01*
X296060714Y-111371130D02*
X295870238Y-111371130D01*
X295775000Y-111418750D01*
X295727380Y-111466369D01*
X295632142Y-111609226D01*
X295584523Y-111799702D01*
X295584523Y-112180654D01*
X295632142Y-112275892D01*
X295679761Y-112323511D01*
X295775000Y-112371130D01*
X295965476Y-112371130D01*
X296060714Y-112323511D01*
X296108333Y-112275892D01*
X296155952Y-112180654D01*
X296155952Y-111942559D01*
X296108333Y-111847321D01*
X296060714Y-111799702D01*
X295965476Y-111752083D01*
X295775000Y-111752083D01*
X295679761Y-111799702D01*
X295632142Y-111847321D01*
X295584523Y-111942559D01*
X296584523Y-112371130D02*
X296584523Y-111371130D01*
X296584523Y-111752083D02*
X296679761Y-111704464D01*
X296870238Y-111704464D01*
X296965476Y-111752083D01*
X297013095Y-111799702D01*
X297060714Y-111894940D01*
X297060714Y-112180654D01*
X297013095Y-112275892D01*
X296965476Y-112323511D01*
X296870238Y-112371130D01*
X296679761Y-112371130D01*
X296584523Y-112323511D01*
X298013095Y-112371130D02*
X297441666Y-112371130D01*
X297727380Y-112371130D02*
X297727380Y-111371130D01*
X297632142Y-111513988D01*
X297536904Y-111609226D01*
X297441666Y-111656845D01*
X293275000Y-104989369D02*
X293322619Y-104941750D01*
X293417857Y-104894130D01*
X293655952Y-104894130D01*
X293751190Y-104941750D01*
X293798809Y-104989369D01*
X293846428Y-105084607D01*
X293846428Y-105179845D01*
X293798809Y-105322702D01*
X293227380Y-105894130D01*
X293846428Y-105894130D01*
X294275000Y-105798892D02*
X294322619Y-105846511D01*
X294275000Y-105894130D01*
X294227380Y-105846511D01*
X294275000Y-105798892D01*
X294275000Y-105894130D01*
X294655952Y-104894130D02*
X295322619Y-104894130D01*
X294894047Y-105894130D01*
X296179761Y-104894130D02*
X295703571Y-104894130D01*
X295655952Y-105370321D01*
X295703571Y-105322702D01*
X295798809Y-105275083D01*
X296036904Y-105275083D01*
X296132142Y-105322702D01*
X296179761Y-105370321D01*
X296227380Y-105465559D01*
X296227380Y-105703654D01*
X296179761Y-105798892D01*
X296132142Y-105846511D01*
X296036904Y-105894130D01*
X295798809Y-105894130D01*
X295703571Y-105846511D01*
X295655952Y-105798892D01*
X296655952Y-104894130D02*
X296655952Y-105703654D01*
X296703571Y-105798892D01*
X296751190Y-105846511D01*
X296846428Y-105894130D01*
X297036904Y-105894130D01*
X297132142Y-105846511D01*
X297179761Y-105798892D01*
X297227380Y-105703654D01*
X297227380Y-104894130D01*
%TO.C,MX57*%
X48244345Y-131675130D02*
X48244345Y-130675130D01*
X48577678Y-131389416D01*
X48911011Y-130675130D01*
X48911011Y-131675130D01*
X49291964Y-130675130D02*
X49958630Y-131675130D01*
X49958630Y-130675130D02*
X49291964Y-131675130D01*
X50815773Y-130675130D02*
X50339583Y-130675130D01*
X50291964Y-131151321D01*
X50339583Y-131103702D01*
X50434821Y-131056083D01*
X50672916Y-131056083D01*
X50768154Y-131103702D01*
X50815773Y-131151321D01*
X50863392Y-131246559D01*
X50863392Y-131484654D01*
X50815773Y-131579892D01*
X50768154Y-131627511D01*
X50672916Y-131675130D01*
X50434821Y-131675130D01*
X50339583Y-131627511D01*
X50291964Y-131579892D01*
X51196726Y-130675130D02*
X51863392Y-130675130D01*
X51434821Y-131675130D01*
X49053869Y-124944130D02*
X48482440Y-124944130D01*
X48768154Y-124944130D02*
X48768154Y-123944130D01*
X48672916Y-124086988D01*
X48577678Y-124182226D01*
X48482440Y-124229845D01*
X49482440Y-124848892D02*
X49530059Y-124896511D01*
X49482440Y-124944130D01*
X49434821Y-124896511D01*
X49482440Y-124848892D01*
X49482440Y-124944130D01*
X50434821Y-123944130D02*
X49958630Y-123944130D01*
X49911011Y-124420321D01*
X49958630Y-124372702D01*
X50053869Y-124325083D01*
X50291964Y-124325083D01*
X50387202Y-124372702D01*
X50434821Y-124420321D01*
X50482440Y-124515559D01*
X50482440Y-124753654D01*
X50434821Y-124848892D01*
X50387202Y-124896511D01*
X50291964Y-124944130D01*
X50053869Y-124944130D01*
X49958630Y-124896511D01*
X49911011Y-124848892D01*
X50911011Y-123944130D02*
X50911011Y-124753654D01*
X50958630Y-124848892D01*
X51006250Y-124896511D01*
X51101488Y-124944130D01*
X51291964Y-124944130D01*
X51387202Y-124896511D01*
X51434821Y-124848892D01*
X51482440Y-124753654D01*
X51482440Y-123944130D01*
%TO.C,MX63*%
X305419345Y-131675130D02*
X305419345Y-130675130D01*
X305752678Y-131389416D01*
X306086011Y-130675130D01*
X306086011Y-131675130D01*
X306466964Y-130675130D02*
X307133630Y-131675130D01*
X307133630Y-130675130D02*
X306466964Y-131675130D01*
X307943154Y-130675130D02*
X307752678Y-130675130D01*
X307657440Y-130722750D01*
X307609821Y-130770369D01*
X307514583Y-130913226D01*
X307466964Y-131103702D01*
X307466964Y-131484654D01*
X307514583Y-131579892D01*
X307562202Y-131627511D01*
X307657440Y-131675130D01*
X307847916Y-131675130D01*
X307943154Y-131627511D01*
X307990773Y-131579892D01*
X308038392Y-131484654D01*
X308038392Y-131246559D01*
X307990773Y-131151321D01*
X307943154Y-131103702D01*
X307847916Y-131056083D01*
X307657440Y-131056083D01*
X307562202Y-131103702D01*
X307514583Y-131151321D01*
X307466964Y-131246559D01*
X308371726Y-130675130D02*
X308990773Y-130675130D01*
X308657440Y-131056083D01*
X308800297Y-131056083D01*
X308895535Y-131103702D01*
X308943154Y-131151321D01*
X308990773Y-131246559D01*
X308990773Y-131484654D01*
X308943154Y-131579892D01*
X308895535Y-131627511D01*
X308800297Y-131675130D01*
X308514583Y-131675130D01*
X308419345Y-131627511D01*
X308371726Y-131579892D01*
X306228869Y-124944130D02*
X305657440Y-124944130D01*
X305943154Y-124944130D02*
X305943154Y-123944130D01*
X305847916Y-124086988D01*
X305752678Y-124182226D01*
X305657440Y-124229845D01*
X306657440Y-124848892D02*
X306705059Y-124896511D01*
X306657440Y-124944130D01*
X306609821Y-124896511D01*
X306657440Y-124848892D01*
X306657440Y-124944130D01*
X307609821Y-123944130D02*
X307133630Y-123944130D01*
X307086011Y-124420321D01*
X307133630Y-124372702D01*
X307228869Y-124325083D01*
X307466964Y-124325083D01*
X307562202Y-124372702D01*
X307609821Y-124420321D01*
X307657440Y-124515559D01*
X307657440Y-124753654D01*
X307609821Y-124848892D01*
X307562202Y-124896511D01*
X307466964Y-124944130D01*
X307228869Y-124944130D01*
X307133630Y-124896511D01*
X307086011Y-124848892D01*
X308086011Y-123944130D02*
X308086011Y-124753654D01*
X308133630Y-124848892D01*
X308181250Y-124896511D01*
X308276488Y-124944130D01*
X308466964Y-124944130D01*
X308562202Y-124896511D01*
X308609821Y-124848892D01*
X308657440Y-124753654D01*
X308657440Y-123944130D01*
%TO.C,MX40*%
X248269345Y-93575130D02*
X248269345Y-92575130D01*
X248602678Y-93289416D01*
X248936011Y-92575130D01*
X248936011Y-93575130D01*
X249316964Y-92575130D02*
X249983630Y-93575130D01*
X249983630Y-92575130D02*
X249316964Y-93575130D01*
X250793154Y-92908464D02*
X250793154Y-93575130D01*
X250555059Y-92527511D02*
X250316964Y-93241797D01*
X250936011Y-93241797D01*
X251507440Y-92575130D02*
X251602678Y-92575130D01*
X251697916Y-92622750D01*
X251745535Y-92670369D01*
X251793154Y-92765607D01*
X251840773Y-92956083D01*
X251840773Y-93194178D01*
X251793154Y-93384654D01*
X251745535Y-93479892D01*
X251697916Y-93527511D01*
X251602678Y-93575130D01*
X251507440Y-93575130D01*
X251412202Y-93527511D01*
X251364583Y-93479892D01*
X251316964Y-93384654D01*
X251269345Y-93194178D01*
X251269345Y-92956083D01*
X251316964Y-92765607D01*
X251364583Y-92670369D01*
X251412202Y-92622750D01*
X251507440Y-92575130D01*
X249793154Y-86844130D02*
X249221726Y-86844130D01*
X249507440Y-86844130D02*
X249507440Y-85844130D01*
X249412202Y-85986988D01*
X249316964Y-86082226D01*
X249221726Y-86129845D01*
X250221726Y-85844130D02*
X250221726Y-86653654D01*
X250269345Y-86748892D01*
X250316964Y-86796511D01*
X250412202Y-86844130D01*
X250602678Y-86844130D01*
X250697916Y-86796511D01*
X250745535Y-86748892D01*
X250793154Y-86653654D01*
X250793154Y-85844130D01*
%TO.C,MX55*%
X283988095Y-112625130D02*
X283988095Y-111625130D01*
X284321428Y-112339416D01*
X284654761Y-111625130D01*
X284654761Y-112625130D01*
X285035714Y-111625130D02*
X285702380Y-112625130D01*
X285702380Y-111625130D02*
X285035714Y-112625130D01*
X286559523Y-111625130D02*
X286083333Y-111625130D01*
X286035714Y-112101321D01*
X286083333Y-112053702D01*
X286178571Y-112006083D01*
X286416666Y-112006083D01*
X286511904Y-112053702D01*
X286559523Y-112101321D01*
X286607142Y-112196559D01*
X286607142Y-112434654D01*
X286559523Y-112529892D01*
X286511904Y-112577511D01*
X286416666Y-112625130D01*
X286178571Y-112625130D01*
X286083333Y-112577511D01*
X286035714Y-112529892D01*
X287511904Y-111625130D02*
X287035714Y-111625130D01*
X286988095Y-112101321D01*
X287035714Y-112053702D01*
X287130952Y-112006083D01*
X287369047Y-112006083D01*
X287464285Y-112053702D01*
X287511904Y-112101321D01*
X287559523Y-112196559D01*
X287559523Y-112434654D01*
X287511904Y-112529892D01*
X287464285Y-112577511D01*
X287369047Y-112625130D01*
X287130952Y-112625130D01*
X287035714Y-112577511D01*
X286988095Y-112529892D01*
X284321428Y-105894130D02*
X283750000Y-105894130D01*
X284035714Y-105894130D02*
X284035714Y-104894130D01*
X283940476Y-105036988D01*
X283845238Y-105132226D01*
X283750000Y-105179845D01*
X284750000Y-105798892D02*
X284797619Y-105846511D01*
X284750000Y-105894130D01*
X284702380Y-105846511D01*
X284750000Y-105798892D01*
X284750000Y-105894130D01*
X285130952Y-104894130D02*
X285797619Y-104894130D01*
X285369047Y-105894130D01*
X286654761Y-104894130D02*
X286178571Y-104894130D01*
X286130952Y-105370321D01*
X286178571Y-105322702D01*
X286273809Y-105275083D01*
X286511904Y-105275083D01*
X286607142Y-105322702D01*
X286654761Y-105370321D01*
X286702380Y-105465559D01*
X286702380Y-105703654D01*
X286654761Y-105798892D01*
X286607142Y-105846511D01*
X286511904Y-105894130D01*
X286273809Y-105894130D01*
X286178571Y-105846511D01*
X286130952Y-105798892D01*
X287130952Y-104894130D02*
X287130952Y-105703654D01*
X287178571Y-105798892D01*
X287226190Y-105846511D01*
X287321428Y-105894130D01*
X287511904Y-105894130D01*
X287607142Y-105846511D01*
X287654761Y-105798892D01*
X287702380Y-105703654D01*
X287702380Y-104894130D01*
%TO.C,MX29b1*%
X304490773Y-67667130D02*
X304490773Y-66667130D01*
X304824107Y-67381416D01*
X305157440Y-66667130D01*
X305157440Y-67667130D01*
X305538392Y-66667130D02*
X306205059Y-67667130D01*
X306205059Y-66667130D02*
X305538392Y-67667130D01*
X306538392Y-66762369D02*
X306586011Y-66714750D01*
X306681250Y-66667130D01*
X306919345Y-66667130D01*
X307014583Y-66714750D01*
X307062202Y-66762369D01*
X307109821Y-66857607D01*
X307109821Y-66952845D01*
X307062202Y-67095702D01*
X306490773Y-67667130D01*
X307109821Y-67667130D01*
X307586011Y-67667130D02*
X307776488Y-67667130D01*
X307871726Y-67619511D01*
X307919345Y-67571892D01*
X308014583Y-67429035D01*
X308062202Y-67238559D01*
X308062202Y-66857607D01*
X308014583Y-66762369D01*
X307966964Y-66714750D01*
X307871726Y-66667130D01*
X307681250Y-66667130D01*
X307586011Y-66714750D01*
X307538392Y-66762369D01*
X307490773Y-66857607D01*
X307490773Y-67095702D01*
X307538392Y-67190940D01*
X307586011Y-67238559D01*
X307681250Y-67286178D01*
X307871726Y-67286178D01*
X307966964Y-67238559D01*
X308014583Y-67190940D01*
X308062202Y-67095702D01*
X308490773Y-67667130D02*
X308490773Y-66667130D01*
X308490773Y-67048083D02*
X308586011Y-67000464D01*
X308776488Y-67000464D01*
X308871726Y-67048083D01*
X308919345Y-67095702D01*
X308966964Y-67190940D01*
X308966964Y-67476654D01*
X308919345Y-67571892D01*
X308871726Y-67619511D01*
X308776488Y-67667130D01*
X308586011Y-67667130D01*
X308490773Y-67619511D01*
X309919345Y-67667130D02*
X309347916Y-67667130D01*
X309633630Y-67667130D02*
X309633630Y-66667130D01*
X309538392Y-66809988D01*
X309443154Y-66905226D01*
X309347916Y-66952845D01*
X306228869Y-74398130D02*
X305657440Y-74398130D01*
X305943154Y-74398130D02*
X305943154Y-73398130D01*
X305847916Y-73540988D01*
X305752678Y-73636226D01*
X305657440Y-73683845D01*
X306657440Y-74302892D02*
X306705059Y-74350511D01*
X306657440Y-74398130D01*
X306609821Y-74350511D01*
X306657440Y-74302892D01*
X306657440Y-74398130D01*
X307609821Y-73398130D02*
X307133630Y-73398130D01*
X307086011Y-73874321D01*
X307133630Y-73826702D01*
X307228869Y-73779083D01*
X307466964Y-73779083D01*
X307562202Y-73826702D01*
X307609821Y-73874321D01*
X307657440Y-73969559D01*
X307657440Y-74207654D01*
X307609821Y-74302892D01*
X307562202Y-74350511D01*
X307466964Y-74398130D01*
X307228869Y-74398130D01*
X307133630Y-74350511D01*
X307086011Y-74302892D01*
X308086011Y-73398130D02*
X308086011Y-74207654D01*
X308133630Y-74302892D01*
X308181250Y-74350511D01*
X308276488Y-74398130D01*
X308466964Y-74398130D01*
X308562202Y-74350511D01*
X308609821Y-74302892D01*
X308657440Y-74207654D01*
X308657440Y-73398130D01*
%TO.C,MX1*%
X43958035Y-55475130D02*
X43958035Y-54475130D01*
X44291369Y-55189416D01*
X44624702Y-54475130D01*
X44624702Y-55475130D01*
X45005654Y-54475130D02*
X45672321Y-55475130D01*
X45672321Y-54475130D02*
X45005654Y-55475130D01*
X46577083Y-55475130D02*
X46005654Y-55475130D01*
X46291369Y-55475130D02*
X46291369Y-54475130D01*
X46196130Y-54617988D01*
X46100892Y-54713226D01*
X46005654Y-54760845D01*
X45005654Y-48744130D02*
X44434226Y-48744130D01*
X44719940Y-48744130D02*
X44719940Y-47744130D01*
X44624702Y-47886988D01*
X44529464Y-47982226D01*
X44434226Y-48029845D01*
X45434226Y-47744130D02*
X45434226Y-48553654D01*
X45481845Y-48648892D01*
X45529464Y-48696511D01*
X45624702Y-48744130D01*
X45815178Y-48744130D01*
X45910416Y-48696511D01*
X45958035Y-48648892D01*
X46005654Y-48553654D01*
X46005654Y-47744130D01*
%TO.C,MX8*%
X177308035Y-55475130D02*
X177308035Y-54475130D01*
X177641369Y-55189416D01*
X177974702Y-54475130D01*
X177974702Y-55475130D01*
X178355654Y-54475130D02*
X179022321Y-55475130D01*
X179022321Y-54475130D02*
X178355654Y-55475130D01*
X179546130Y-54903702D02*
X179450892Y-54856083D01*
X179403273Y-54808464D01*
X179355654Y-54713226D01*
X179355654Y-54665607D01*
X179403273Y-54570369D01*
X179450892Y-54522750D01*
X179546130Y-54475130D01*
X179736607Y-54475130D01*
X179831845Y-54522750D01*
X179879464Y-54570369D01*
X179927083Y-54665607D01*
X179927083Y-54713226D01*
X179879464Y-54808464D01*
X179831845Y-54856083D01*
X179736607Y-54903702D01*
X179546130Y-54903702D01*
X179450892Y-54951321D01*
X179403273Y-54998940D01*
X179355654Y-55094178D01*
X179355654Y-55284654D01*
X179403273Y-55379892D01*
X179450892Y-55427511D01*
X179546130Y-55475130D01*
X179736607Y-55475130D01*
X179831845Y-55427511D01*
X179879464Y-55379892D01*
X179927083Y-55284654D01*
X179927083Y-55094178D01*
X179879464Y-54998940D01*
X179831845Y-54951321D01*
X179736607Y-54903702D01*
X178355654Y-48744130D02*
X177784226Y-48744130D01*
X178069940Y-48744130D02*
X178069940Y-47744130D01*
X177974702Y-47886988D01*
X177879464Y-47982226D01*
X177784226Y-48029845D01*
X178784226Y-47744130D02*
X178784226Y-48553654D01*
X178831845Y-48648892D01*
X178879464Y-48696511D01*
X178974702Y-48744130D01*
X179165178Y-48744130D01*
X179260416Y-48696511D01*
X179308035Y-48648892D01*
X179355654Y-48553654D01*
X179355654Y-47744130D01*
%TO.C,MX24*%
X205406845Y-74525130D02*
X205406845Y-73525130D01*
X205740178Y-74239416D01*
X206073511Y-73525130D01*
X206073511Y-74525130D01*
X206454464Y-73525130D02*
X207121130Y-74525130D01*
X207121130Y-73525130D02*
X206454464Y-74525130D01*
X207454464Y-73620369D02*
X207502083Y-73572750D01*
X207597321Y-73525130D01*
X207835416Y-73525130D01*
X207930654Y-73572750D01*
X207978273Y-73620369D01*
X208025892Y-73715607D01*
X208025892Y-73810845D01*
X207978273Y-73953702D01*
X207406845Y-74525130D01*
X208025892Y-74525130D01*
X208883035Y-73858464D02*
X208883035Y-74525130D01*
X208644940Y-73477511D02*
X208406845Y-74191797D01*
X209025892Y-74191797D01*
X206930654Y-67794130D02*
X206359226Y-67794130D01*
X206644940Y-67794130D02*
X206644940Y-66794130D01*
X206549702Y-66936988D01*
X206454464Y-67032226D01*
X206359226Y-67079845D01*
X207359226Y-66794130D02*
X207359226Y-67603654D01*
X207406845Y-67698892D01*
X207454464Y-67746511D01*
X207549702Y-67794130D01*
X207740178Y-67794130D01*
X207835416Y-67746511D01*
X207883035Y-67698892D01*
X207930654Y-67603654D01*
X207930654Y-66794130D01*
%TO.C,MX18*%
X91106845Y-74525130D02*
X91106845Y-73525130D01*
X91440178Y-74239416D01*
X91773511Y-73525130D01*
X91773511Y-74525130D01*
X92154464Y-73525130D02*
X92821130Y-74525130D01*
X92821130Y-73525130D02*
X92154464Y-74525130D01*
X93725892Y-74525130D02*
X93154464Y-74525130D01*
X93440178Y-74525130D02*
X93440178Y-73525130D01*
X93344940Y-73667988D01*
X93249702Y-73763226D01*
X93154464Y-73810845D01*
X94297321Y-73953702D02*
X94202083Y-73906083D01*
X94154464Y-73858464D01*
X94106845Y-73763226D01*
X94106845Y-73715607D01*
X94154464Y-73620369D01*
X94202083Y-73572750D01*
X94297321Y-73525130D01*
X94487797Y-73525130D01*
X94583035Y-73572750D01*
X94630654Y-73620369D01*
X94678273Y-73715607D01*
X94678273Y-73763226D01*
X94630654Y-73858464D01*
X94583035Y-73906083D01*
X94487797Y-73953702D01*
X94297321Y-73953702D01*
X94202083Y-74001321D01*
X94154464Y-74048940D01*
X94106845Y-74144178D01*
X94106845Y-74334654D01*
X94154464Y-74429892D01*
X94202083Y-74477511D01*
X94297321Y-74525130D01*
X94487797Y-74525130D01*
X94583035Y-74477511D01*
X94630654Y-74429892D01*
X94678273Y-74334654D01*
X94678273Y-74144178D01*
X94630654Y-74048940D01*
X94583035Y-74001321D01*
X94487797Y-73953702D01*
X92630654Y-67794130D02*
X92059226Y-67794130D01*
X92344940Y-67794130D02*
X92344940Y-66794130D01*
X92249702Y-66936988D01*
X92154464Y-67032226D01*
X92059226Y-67079845D01*
X93059226Y-66794130D02*
X93059226Y-67603654D01*
X93106845Y-67698892D01*
X93154464Y-67746511D01*
X93249702Y-67794130D01*
X93440178Y-67794130D01*
X93535416Y-67746511D01*
X93583035Y-67698892D01*
X93630654Y-67603654D01*
X93630654Y-66794130D01*
%TO.C,MX4*%
X101108035Y-55475130D02*
X101108035Y-54475130D01*
X101441369Y-55189416D01*
X101774702Y-54475130D01*
X101774702Y-55475130D01*
X102155654Y-54475130D02*
X102822321Y-55475130D01*
X102822321Y-54475130D02*
X102155654Y-55475130D01*
X103631845Y-54808464D02*
X103631845Y-55475130D01*
X103393750Y-54427511D02*
X103155654Y-55141797D01*
X103774702Y-55141797D01*
X102155654Y-48744130D02*
X101584226Y-48744130D01*
X101869940Y-48744130D02*
X101869940Y-47744130D01*
X101774702Y-47886988D01*
X101679464Y-47982226D01*
X101584226Y-48029845D01*
X102584226Y-47744130D02*
X102584226Y-48553654D01*
X102631845Y-48648892D01*
X102679464Y-48696511D01*
X102774702Y-48744130D01*
X102965178Y-48744130D01*
X103060416Y-48696511D01*
X103108035Y-48648892D01*
X103155654Y-48553654D01*
X103155654Y-47744130D01*
%TO.C,MX52*%
X219694345Y-112625130D02*
X219694345Y-111625130D01*
X220027678Y-112339416D01*
X220361011Y-111625130D01*
X220361011Y-112625130D01*
X220741964Y-111625130D02*
X221408630Y-112625130D01*
X221408630Y-111625130D02*
X220741964Y-112625130D01*
X222265773Y-111625130D02*
X221789583Y-111625130D01*
X221741964Y-112101321D01*
X221789583Y-112053702D01*
X221884821Y-112006083D01*
X222122916Y-112006083D01*
X222218154Y-112053702D01*
X222265773Y-112101321D01*
X222313392Y-112196559D01*
X222313392Y-112434654D01*
X222265773Y-112529892D01*
X222218154Y-112577511D01*
X222122916Y-112625130D01*
X221884821Y-112625130D01*
X221789583Y-112577511D01*
X221741964Y-112529892D01*
X222694345Y-111720369D02*
X222741964Y-111672750D01*
X222837202Y-111625130D01*
X223075297Y-111625130D01*
X223170535Y-111672750D01*
X223218154Y-111720369D01*
X223265773Y-111815607D01*
X223265773Y-111910845D01*
X223218154Y-112053702D01*
X222646726Y-112625130D01*
X223265773Y-112625130D01*
X221218154Y-105894130D02*
X220646726Y-105894130D01*
X220932440Y-105894130D02*
X220932440Y-104894130D01*
X220837202Y-105036988D01*
X220741964Y-105132226D01*
X220646726Y-105179845D01*
X221646726Y-104894130D02*
X221646726Y-105703654D01*
X221694345Y-105798892D01*
X221741964Y-105846511D01*
X221837202Y-105894130D01*
X222027678Y-105894130D01*
X222122916Y-105846511D01*
X222170535Y-105798892D01*
X222218154Y-105703654D01*
X222218154Y-104894130D01*
%TO.C,MX41*%
X267319345Y-93575130D02*
X267319345Y-92575130D01*
X267652678Y-93289416D01*
X267986011Y-92575130D01*
X267986011Y-93575130D01*
X268366964Y-92575130D02*
X269033630Y-93575130D01*
X269033630Y-92575130D02*
X268366964Y-93575130D01*
X269843154Y-92908464D02*
X269843154Y-93575130D01*
X269605059Y-92527511D02*
X269366964Y-93241797D01*
X269986011Y-93241797D01*
X270890773Y-93575130D02*
X270319345Y-93575130D01*
X270605059Y-93575130D02*
X270605059Y-92575130D01*
X270509821Y-92717988D01*
X270414583Y-92813226D01*
X270319345Y-92860845D01*
X268843154Y-86844130D02*
X268271726Y-86844130D01*
X268557440Y-86844130D02*
X268557440Y-85844130D01*
X268462202Y-85986988D01*
X268366964Y-86082226D01*
X268271726Y-86129845D01*
X269271726Y-85844130D02*
X269271726Y-86653654D01*
X269319345Y-86748892D01*
X269366964Y-86796511D01*
X269462202Y-86844130D01*
X269652678Y-86844130D01*
X269747916Y-86796511D01*
X269795535Y-86748892D01*
X269843154Y-86653654D01*
X269843154Y-85844130D01*
%TO.C,MX44*%
X67294345Y-112625130D02*
X67294345Y-111625130D01*
X67627678Y-112339416D01*
X67961011Y-111625130D01*
X67961011Y-112625130D01*
X68341964Y-111625130D02*
X69008630Y-112625130D01*
X69008630Y-111625130D02*
X68341964Y-112625130D01*
X69818154Y-111958464D02*
X69818154Y-112625130D01*
X69580059Y-111577511D02*
X69341964Y-112291797D01*
X69961011Y-112291797D01*
X70770535Y-111958464D02*
X70770535Y-112625130D01*
X70532440Y-111577511D02*
X70294345Y-112291797D01*
X70913392Y-112291797D01*
X68818154Y-105894130D02*
X68246726Y-105894130D01*
X68532440Y-105894130D02*
X68532440Y-104894130D01*
X68437202Y-105036988D01*
X68341964Y-105132226D01*
X68246726Y-105179845D01*
X69246726Y-104894130D02*
X69246726Y-105703654D01*
X69294345Y-105798892D01*
X69341964Y-105846511D01*
X69437202Y-105894130D01*
X69627678Y-105894130D01*
X69722916Y-105846511D01*
X69770535Y-105798892D01*
X69818154Y-105703654D01*
X69818154Y-104894130D01*
%TO.C,MX32*%
X95869345Y-93575130D02*
X95869345Y-92575130D01*
X96202678Y-93289416D01*
X96536011Y-92575130D01*
X96536011Y-93575130D01*
X96916964Y-92575130D02*
X97583630Y-93575130D01*
X97583630Y-92575130D02*
X96916964Y-93575130D01*
X97869345Y-92575130D02*
X98488392Y-92575130D01*
X98155059Y-92956083D01*
X98297916Y-92956083D01*
X98393154Y-93003702D01*
X98440773Y-93051321D01*
X98488392Y-93146559D01*
X98488392Y-93384654D01*
X98440773Y-93479892D01*
X98393154Y-93527511D01*
X98297916Y-93575130D01*
X98012202Y-93575130D01*
X97916964Y-93527511D01*
X97869345Y-93479892D01*
X98869345Y-92670369D02*
X98916964Y-92622750D01*
X99012202Y-92575130D01*
X99250297Y-92575130D01*
X99345535Y-92622750D01*
X99393154Y-92670369D01*
X99440773Y-92765607D01*
X99440773Y-92860845D01*
X99393154Y-93003702D01*
X98821726Y-93575130D01*
X99440773Y-93575130D01*
X97393154Y-86844130D02*
X96821726Y-86844130D01*
X97107440Y-86844130D02*
X97107440Y-85844130D01*
X97012202Y-85986988D01*
X96916964Y-86082226D01*
X96821726Y-86129845D01*
X97821726Y-85844130D02*
X97821726Y-86653654D01*
X97869345Y-86748892D01*
X97916964Y-86796511D01*
X98012202Y-86844130D01*
X98202678Y-86844130D01*
X98297916Y-86796511D01*
X98345535Y-86748892D01*
X98393154Y-86653654D01*
X98393154Y-85844130D01*
%TO.C,MX16*%
X48244345Y-74525130D02*
X48244345Y-73525130D01*
X48577678Y-74239416D01*
X48911011Y-73525130D01*
X48911011Y-74525130D01*
X49291964Y-73525130D02*
X49958630Y-74525130D01*
X49958630Y-73525130D02*
X49291964Y-74525130D01*
X50863392Y-74525130D02*
X50291964Y-74525130D01*
X50577678Y-74525130D02*
X50577678Y-73525130D01*
X50482440Y-73667988D01*
X50387202Y-73763226D01*
X50291964Y-73810845D01*
X51720535Y-73525130D02*
X51530059Y-73525130D01*
X51434821Y-73572750D01*
X51387202Y-73620369D01*
X51291964Y-73763226D01*
X51244345Y-73953702D01*
X51244345Y-74334654D01*
X51291964Y-74429892D01*
X51339583Y-74477511D01*
X51434821Y-74525130D01*
X51625297Y-74525130D01*
X51720535Y-74477511D01*
X51768154Y-74429892D01*
X51815773Y-74334654D01*
X51815773Y-74096559D01*
X51768154Y-74001321D01*
X51720535Y-73953702D01*
X51625297Y-73906083D01*
X51434821Y-73906083D01*
X51339583Y-73953702D01*
X51291964Y-74001321D01*
X51244345Y-74096559D01*
X49053869Y-67794130D02*
X48482440Y-67794130D01*
X48768154Y-67794130D02*
X48768154Y-66794130D01*
X48672916Y-66936988D01*
X48577678Y-67032226D01*
X48482440Y-67079845D01*
X49482440Y-67698892D02*
X49530059Y-67746511D01*
X49482440Y-67794130D01*
X49434821Y-67746511D01*
X49482440Y-67698892D01*
X49482440Y-67794130D01*
X50434821Y-66794130D02*
X49958630Y-66794130D01*
X49911011Y-67270321D01*
X49958630Y-67222702D01*
X50053869Y-67175083D01*
X50291964Y-67175083D01*
X50387202Y-67222702D01*
X50434821Y-67270321D01*
X50482440Y-67365559D01*
X50482440Y-67603654D01*
X50434821Y-67698892D01*
X50387202Y-67746511D01*
X50291964Y-67794130D01*
X50053869Y-67794130D01*
X49958630Y-67746511D01*
X49911011Y-67698892D01*
X50911011Y-66794130D02*
X50911011Y-67603654D01*
X50958630Y-67698892D01*
X51006250Y-67746511D01*
X51101488Y-67794130D01*
X51291964Y-67794130D01*
X51387202Y-67746511D01*
X51434821Y-67698892D01*
X51482440Y-67603654D01*
X51482440Y-66794130D01*
%TO.C,MX27*%
X262556845Y-74525130D02*
X262556845Y-73525130D01*
X262890178Y-74239416D01*
X263223511Y-73525130D01*
X263223511Y-74525130D01*
X263604464Y-73525130D02*
X264271130Y-74525130D01*
X264271130Y-73525130D02*
X263604464Y-74525130D01*
X264604464Y-73620369D02*
X264652083Y-73572750D01*
X264747321Y-73525130D01*
X264985416Y-73525130D01*
X265080654Y-73572750D01*
X265128273Y-73620369D01*
X265175892Y-73715607D01*
X265175892Y-73810845D01*
X265128273Y-73953702D01*
X264556845Y-74525130D01*
X265175892Y-74525130D01*
X265509226Y-73525130D02*
X266175892Y-73525130D01*
X265747321Y-74525130D01*
X264080654Y-67794130D02*
X263509226Y-67794130D01*
X263794940Y-67794130D02*
X263794940Y-66794130D01*
X263699702Y-66936988D01*
X263604464Y-67032226D01*
X263509226Y-67079845D01*
X264509226Y-66794130D02*
X264509226Y-67603654D01*
X264556845Y-67698892D01*
X264604464Y-67746511D01*
X264699702Y-67794130D01*
X264890178Y-67794130D01*
X264985416Y-67746511D01*
X265033035Y-67698892D01*
X265080654Y-67603654D01*
X265080654Y-66794130D01*
%TO.C,MX26*%
X243506845Y-74525130D02*
X243506845Y-73525130D01*
X243840178Y-74239416D01*
X244173511Y-73525130D01*
X244173511Y-74525130D01*
X244554464Y-73525130D02*
X245221130Y-74525130D01*
X245221130Y-73525130D02*
X244554464Y-74525130D01*
X245554464Y-73620369D02*
X245602083Y-73572750D01*
X245697321Y-73525130D01*
X245935416Y-73525130D01*
X246030654Y-73572750D01*
X246078273Y-73620369D01*
X246125892Y-73715607D01*
X246125892Y-73810845D01*
X246078273Y-73953702D01*
X245506845Y-74525130D01*
X246125892Y-74525130D01*
X246983035Y-73525130D02*
X246792559Y-73525130D01*
X246697321Y-73572750D01*
X246649702Y-73620369D01*
X246554464Y-73763226D01*
X246506845Y-73953702D01*
X246506845Y-74334654D01*
X246554464Y-74429892D01*
X246602083Y-74477511D01*
X246697321Y-74525130D01*
X246887797Y-74525130D01*
X246983035Y-74477511D01*
X247030654Y-74429892D01*
X247078273Y-74334654D01*
X247078273Y-74096559D01*
X247030654Y-74001321D01*
X246983035Y-73953702D01*
X246887797Y-73906083D01*
X246697321Y-73906083D01*
X246602083Y-73953702D01*
X246554464Y-74001321D01*
X246506845Y-74096559D01*
X245030654Y-67794130D02*
X244459226Y-67794130D01*
X244744940Y-67794130D02*
X244744940Y-66794130D01*
X244649702Y-66936988D01*
X244554464Y-67032226D01*
X244459226Y-67079845D01*
X245459226Y-66794130D02*
X245459226Y-67603654D01*
X245506845Y-67698892D01*
X245554464Y-67746511D01*
X245649702Y-67794130D01*
X245840178Y-67794130D01*
X245935416Y-67746511D01*
X245983035Y-67698892D01*
X246030654Y-67603654D01*
X246030654Y-66794130D01*
%TO.C,MX50*%
X181594345Y-112625130D02*
X181594345Y-111625130D01*
X181927678Y-112339416D01*
X182261011Y-111625130D01*
X182261011Y-112625130D01*
X182641964Y-111625130D02*
X183308630Y-112625130D01*
X183308630Y-111625130D02*
X182641964Y-112625130D01*
X184165773Y-111625130D02*
X183689583Y-111625130D01*
X183641964Y-112101321D01*
X183689583Y-112053702D01*
X183784821Y-112006083D01*
X184022916Y-112006083D01*
X184118154Y-112053702D01*
X184165773Y-112101321D01*
X184213392Y-112196559D01*
X184213392Y-112434654D01*
X184165773Y-112529892D01*
X184118154Y-112577511D01*
X184022916Y-112625130D01*
X183784821Y-112625130D01*
X183689583Y-112577511D01*
X183641964Y-112529892D01*
X184832440Y-111625130D02*
X184927678Y-111625130D01*
X185022916Y-111672750D01*
X185070535Y-111720369D01*
X185118154Y-111815607D01*
X185165773Y-112006083D01*
X185165773Y-112244178D01*
X185118154Y-112434654D01*
X185070535Y-112529892D01*
X185022916Y-112577511D01*
X184927678Y-112625130D01*
X184832440Y-112625130D01*
X184737202Y-112577511D01*
X184689583Y-112529892D01*
X184641964Y-112434654D01*
X184594345Y-112244178D01*
X184594345Y-112006083D01*
X184641964Y-111815607D01*
X184689583Y-111720369D01*
X184737202Y-111672750D01*
X184832440Y-111625130D01*
X183118154Y-105894130D02*
X182546726Y-105894130D01*
X182832440Y-105894130D02*
X182832440Y-104894130D01*
X182737202Y-105036988D01*
X182641964Y-105132226D01*
X182546726Y-105179845D01*
X183546726Y-104894130D02*
X183546726Y-105703654D01*
X183594345Y-105798892D01*
X183641964Y-105846511D01*
X183737202Y-105894130D01*
X183927678Y-105894130D01*
X184022916Y-105846511D01*
X184070535Y-105798892D01*
X184118154Y-105703654D01*
X184118154Y-104894130D01*
%TO.C,MX46*%
X105394345Y-112625130D02*
X105394345Y-111625130D01*
X105727678Y-112339416D01*
X106061011Y-111625130D01*
X106061011Y-112625130D01*
X106441964Y-111625130D02*
X107108630Y-112625130D01*
X107108630Y-111625130D02*
X106441964Y-112625130D01*
X107918154Y-111958464D02*
X107918154Y-112625130D01*
X107680059Y-111577511D02*
X107441964Y-112291797D01*
X108061011Y-112291797D01*
X108870535Y-111625130D02*
X108680059Y-111625130D01*
X108584821Y-111672750D01*
X108537202Y-111720369D01*
X108441964Y-111863226D01*
X108394345Y-112053702D01*
X108394345Y-112434654D01*
X108441964Y-112529892D01*
X108489583Y-112577511D01*
X108584821Y-112625130D01*
X108775297Y-112625130D01*
X108870535Y-112577511D01*
X108918154Y-112529892D01*
X108965773Y-112434654D01*
X108965773Y-112196559D01*
X108918154Y-112101321D01*
X108870535Y-112053702D01*
X108775297Y-112006083D01*
X108584821Y-112006083D01*
X108489583Y-112053702D01*
X108441964Y-112101321D01*
X108394345Y-112196559D01*
X106918154Y-105894130D02*
X106346726Y-105894130D01*
X106632440Y-105894130D02*
X106632440Y-104894130D01*
X106537202Y-105036988D01*
X106441964Y-105132226D01*
X106346726Y-105179845D01*
X107346726Y-104894130D02*
X107346726Y-105703654D01*
X107394345Y-105798892D01*
X107441964Y-105846511D01*
X107537202Y-105894130D01*
X107727678Y-105894130D01*
X107822916Y-105846511D01*
X107870535Y-105798892D01*
X107918154Y-105703654D01*
X107918154Y-104894130D01*
%TO.C,MX54*%
X257794345Y-112625130D02*
X257794345Y-111625130D01*
X258127678Y-112339416D01*
X258461011Y-111625130D01*
X258461011Y-112625130D01*
X258841964Y-111625130D02*
X259508630Y-112625130D01*
X259508630Y-111625130D02*
X258841964Y-112625130D01*
X260365773Y-111625130D02*
X259889583Y-111625130D01*
X259841964Y-112101321D01*
X259889583Y-112053702D01*
X259984821Y-112006083D01*
X260222916Y-112006083D01*
X260318154Y-112053702D01*
X260365773Y-112101321D01*
X260413392Y-112196559D01*
X260413392Y-112434654D01*
X260365773Y-112529892D01*
X260318154Y-112577511D01*
X260222916Y-112625130D01*
X259984821Y-112625130D01*
X259889583Y-112577511D01*
X259841964Y-112529892D01*
X261270535Y-111958464D02*
X261270535Y-112625130D01*
X261032440Y-111577511D02*
X260794345Y-112291797D01*
X261413392Y-112291797D01*
X259318154Y-105894130D02*
X258746726Y-105894130D01*
X259032440Y-105894130D02*
X259032440Y-104894130D01*
X258937202Y-105036988D01*
X258841964Y-105132226D01*
X258746726Y-105179845D01*
X259746726Y-104894130D02*
X259746726Y-105703654D01*
X259794345Y-105798892D01*
X259841964Y-105846511D01*
X259937202Y-105894130D01*
X260127678Y-105894130D01*
X260222916Y-105846511D01*
X260270535Y-105798892D01*
X260318154Y-105703654D01*
X260318154Y-104894130D01*
%TO.C,MX36*%
X172069345Y-93575130D02*
X172069345Y-92575130D01*
X172402678Y-93289416D01*
X172736011Y-92575130D01*
X172736011Y-93575130D01*
X173116964Y-92575130D02*
X173783630Y-93575130D01*
X173783630Y-92575130D02*
X173116964Y-93575130D01*
X174069345Y-92575130D02*
X174688392Y-92575130D01*
X174355059Y-92956083D01*
X174497916Y-92956083D01*
X174593154Y-93003702D01*
X174640773Y-93051321D01*
X174688392Y-93146559D01*
X174688392Y-93384654D01*
X174640773Y-93479892D01*
X174593154Y-93527511D01*
X174497916Y-93575130D01*
X174212202Y-93575130D01*
X174116964Y-93527511D01*
X174069345Y-93479892D01*
X175545535Y-92575130D02*
X175355059Y-92575130D01*
X175259821Y-92622750D01*
X175212202Y-92670369D01*
X175116964Y-92813226D01*
X175069345Y-93003702D01*
X175069345Y-93384654D01*
X175116964Y-93479892D01*
X175164583Y-93527511D01*
X175259821Y-93575130D01*
X175450297Y-93575130D01*
X175545535Y-93527511D01*
X175593154Y-93479892D01*
X175640773Y-93384654D01*
X175640773Y-93146559D01*
X175593154Y-93051321D01*
X175545535Y-93003702D01*
X175450297Y-92956083D01*
X175259821Y-92956083D01*
X175164583Y-93003702D01*
X175116964Y-93051321D01*
X175069345Y-93146559D01*
X173593154Y-86844130D02*
X173021726Y-86844130D01*
X173307440Y-86844130D02*
X173307440Y-85844130D01*
X173212202Y-85986988D01*
X173116964Y-86082226D01*
X173021726Y-86129845D01*
X174021726Y-85844130D02*
X174021726Y-86653654D01*
X174069345Y-86748892D01*
X174116964Y-86796511D01*
X174212202Y-86844130D01*
X174402678Y-86844130D01*
X174497916Y-86796511D01*
X174545535Y-86748892D01*
X174593154Y-86653654D01*
X174593154Y-85844130D01*
%TO.C,MX11*%
X233981845Y-55475130D02*
X233981845Y-54475130D01*
X234315178Y-55189416D01*
X234648511Y-54475130D01*
X234648511Y-55475130D01*
X235029464Y-54475130D02*
X235696130Y-55475130D01*
X235696130Y-54475130D02*
X235029464Y-55475130D01*
X236600892Y-55475130D02*
X236029464Y-55475130D01*
X236315178Y-55475130D02*
X236315178Y-54475130D01*
X236219940Y-54617988D01*
X236124702Y-54713226D01*
X236029464Y-54760845D01*
X237553273Y-55475130D02*
X236981845Y-55475130D01*
X237267559Y-55475130D02*
X237267559Y-54475130D01*
X237172321Y-54617988D01*
X237077083Y-54713226D01*
X236981845Y-54760845D01*
X235505654Y-48744130D02*
X234934226Y-48744130D01*
X235219940Y-48744130D02*
X235219940Y-47744130D01*
X235124702Y-47886988D01*
X235029464Y-47982226D01*
X234934226Y-48029845D01*
X235934226Y-47744130D02*
X235934226Y-48553654D01*
X235981845Y-48648892D01*
X236029464Y-48696511D01*
X236124702Y-48744130D01*
X236315178Y-48744130D01*
X236410416Y-48696511D01*
X236458035Y-48648892D01*
X236505654Y-48553654D01*
X236505654Y-47744130D01*
%TO.C,MX22*%
X162068750Y-75643750D02*
X162068750Y-77643750D01*
X174068750Y-63643750D02*
X176068750Y-63643750D01*
X176068750Y-63643750D02*
X176068750Y-65643750D01*
X162068750Y-77643750D02*
X164068750Y-77643750D01*
%TO.C,MX31*%
X83581250Y-82693750D02*
X85581250Y-82693750D01*
X71581250Y-96693750D02*
X73581250Y-96693750D01*
X85581250Y-82693750D02*
X85581250Y-84693750D01*
X71581250Y-94693750D02*
X71581250Y-96693750D01*
%TO.C,MX25*%
X233218750Y-63643750D02*
X233218750Y-65643750D01*
X219218750Y-77643750D02*
X221218750Y-77643750D01*
X219218750Y-75643750D02*
X219218750Y-77643750D01*
X231218750Y-63643750D02*
X233218750Y-63643750D01*
%TO.C,MX45*%
X81106250Y-113743750D02*
X81106250Y-115743750D01*
X95106250Y-101743750D02*
X95106250Y-103743750D01*
X93106250Y-101743750D02*
X95106250Y-101743750D01*
X81106250Y-115743750D02*
X83106250Y-115743750D01*
%TO.C,MX6*%
X133493750Y-58593750D02*
X135493750Y-58593750D01*
X133493750Y-56593750D02*
X133493750Y-58593750D01*
X145493750Y-44593750D02*
X147493750Y-44593750D01*
X147493750Y-44593750D02*
X147493750Y-46593750D01*
%TO.C,MX19*%
X104918750Y-75643750D02*
X104918750Y-77643750D01*
X104918750Y-77643750D02*
X106918750Y-77643750D01*
X118918750Y-63643750D02*
X118918750Y-65643750D01*
X116918750Y-63643750D02*
X118918750Y-63643750D01*
%TO.C,MX30*%
X40624500Y-94693750D02*
X40624500Y-96693750D01*
X57387500Y-82693750D02*
X59387500Y-82693750D01*
X59387500Y-82693750D02*
X59387500Y-84693750D01*
X40624500Y-96693750D02*
X42624500Y-96693750D01*
%TO.C,MX33*%
X109681250Y-96693750D02*
X111681250Y-96693750D01*
X109681250Y-94693750D02*
X109681250Y-96693750D01*
X121681250Y-82693750D02*
X123681250Y-82693750D01*
X123681250Y-82693750D02*
X123681250Y-84693750D01*
%TO.C,MX42*%
X281131250Y-96693750D02*
X283131250Y-96693750D01*
X293131250Y-82693750D02*
X295131250Y-82693750D01*
X295131250Y-82693750D02*
X295131250Y-84693750D01*
X281131250Y-94693750D02*
X281131250Y-96693750D01*
%TO.C,MX56*%
X304943750Y-113743750D02*
X304943750Y-115743750D01*
X304943750Y-115743750D02*
X306943750Y-115743750D01*
X316943750Y-101743750D02*
X318943750Y-101743750D01*
X318943750Y-101743750D02*
X318943750Y-103743750D01*
%TO.C,MX29*%
X302562500Y-85168750D02*
X302562500Y-87168750D01*
X316562500Y-73168750D02*
X316562500Y-75168750D01*
X302562500Y-87168750D02*
X304562500Y-87168750D01*
X314562500Y-73168750D02*
X316562500Y-73168750D01*
%TO.C,MX60*%
X171593750Y-134793750D02*
X173593750Y-134793750D01*
X185593750Y-120793750D02*
X185593750Y-122793750D01*
X171593750Y-132793750D02*
X171593750Y-134793750D01*
X183593750Y-120793750D02*
X185593750Y-120793750D01*
%TO.C,MX37*%
X199881250Y-82693750D02*
X199881250Y-84693750D01*
X185881250Y-94693750D02*
X185881250Y-96693750D01*
X185881250Y-96693750D02*
X187881250Y-96693750D01*
X197881250Y-82693750D02*
X199881250Y-82693750D01*
%TO.C,MX28*%
X288368750Y-63643750D02*
X290368750Y-63643750D01*
X290368750Y-63643750D02*
X290368750Y-65643750D01*
X276368750Y-77643750D02*
X278368750Y-77643750D01*
X276368750Y-75643750D02*
X276368750Y-77643750D01*
%TO.C,MX5*%
X114443750Y-58593750D02*
X116443750Y-58593750D01*
X128443750Y-44593750D02*
X128443750Y-46593750D01*
X126443750Y-44593750D02*
X128443750Y-44593750D01*
X114443750Y-56593750D02*
X114443750Y-58593750D01*
%TO.C,MX61*%
X264556250Y-120793750D02*
X266556250Y-120793750D01*
X266556250Y-120793750D02*
X266556250Y-122793750D01*
X252556250Y-134793750D02*
X254556250Y-134793750D01*
X252556250Y-132793750D02*
X252556250Y-134793750D01*
%TO.C,MX35*%
X161781250Y-82693750D02*
X161781250Y-84693750D01*
X147781250Y-96693750D02*
X149781250Y-96693750D01*
X147781250Y-94693750D02*
X147781250Y-96693750D01*
X159781250Y-82693750D02*
X161781250Y-82693750D01*
%TO.C,MX34*%
X140731250Y-82693750D02*
X142731250Y-82693750D01*
X128731250Y-94693750D02*
X128731250Y-96693750D01*
X128731250Y-96693750D02*
X130731250Y-96693750D01*
X142731250Y-82693750D02*
X142731250Y-84693750D01*
%TO.C,MX14*%
X285893750Y-56593750D02*
X285893750Y-58593750D01*
X297893750Y-44593750D02*
X299893750Y-44593750D01*
X299893750Y-44593750D02*
X299893750Y-46593750D01*
X285893750Y-58593750D02*
X287893750Y-58593750D01*
%TO.C,MX53*%
X233506250Y-113743750D02*
X233506250Y-115743750D01*
X233506250Y-115743750D02*
X235506250Y-115743750D01*
X245506250Y-101743750D02*
X247506250Y-101743750D01*
X247506250Y-101743750D02*
X247506250Y-103743750D01*
%TO.C,MX42b1*%
X305037500Y-82693750D02*
X307037500Y-82693750D01*
X293037500Y-96693750D02*
X295037500Y-96693750D01*
X307037500Y-82693750D02*
X307037500Y-84693750D01*
X293037500Y-94693750D02*
X293037500Y-96693750D01*
%TO.C,MX2*%
X71293750Y-44593750D02*
X71293750Y-46593750D01*
X57293750Y-58593750D02*
X59293750Y-58593750D01*
X69293750Y-44593750D02*
X71293750Y-44593750D01*
X57293750Y-56593750D02*
X57293750Y-58593750D01*
%TO.C,MX23*%
X195118750Y-63643750D02*
X195118750Y-65643750D01*
X181118750Y-77643750D02*
X183118750Y-77643750D01*
X193118750Y-63643750D02*
X195118750Y-63643750D01*
X181118750Y-75643750D02*
X181118750Y-77643750D01*
%TO.C,MX10*%
X209693750Y-58593750D02*
X211693750Y-58593750D01*
X223693750Y-44593750D02*
X223693750Y-46593750D01*
X209693750Y-56593750D02*
X209693750Y-58593750D01*
X221693750Y-44593750D02*
X223693750Y-44593750D01*
%TO.C,MX9*%
X190643750Y-58593750D02*
X192643750Y-58593750D01*
X204643750Y-44593750D02*
X204643750Y-46593750D01*
X190643750Y-56593750D02*
X190643750Y-58593750D01*
X202643750Y-44593750D02*
X204643750Y-44593750D01*
%TO.C,MX47*%
X131206250Y-101743750D02*
X133206250Y-101743750D01*
X133206250Y-101743750D02*
X133206250Y-103743750D01*
X119206250Y-113743750D02*
X119206250Y-115743750D01*
X119206250Y-115743750D02*
X121206250Y-115743750D01*
%TO.C,MX21*%
X143018750Y-75643750D02*
X143018750Y-77643750D01*
X143018750Y-77643750D02*
X145018750Y-77643750D01*
X157018750Y-63643750D02*
X157018750Y-65643750D01*
X155018750Y-63643750D02*
X157018750Y-63643750D01*
%TO.C,MX13*%
X266843750Y-56593750D02*
X266843750Y-58593750D01*
X278843750Y-44593750D02*
X280843750Y-44593750D01*
X266843750Y-58593750D02*
X268843750Y-58593750D01*
X280843750Y-44593750D02*
X280843750Y-46593750D01*
%TO.C,MX38*%
X218931250Y-82693750D02*
X218931250Y-84693750D01*
X204931250Y-94693750D02*
X204931250Y-96693750D01*
X204931250Y-96693750D02*
X206931250Y-96693750D01*
X216931250Y-82693750D02*
X218931250Y-82693750D01*
%TO.C,MX39*%
X235981250Y-82693750D02*
X237981250Y-82693750D01*
X223981250Y-94693750D02*
X223981250Y-96693750D01*
X223981250Y-96693750D02*
X225981250Y-96693750D01*
X237981250Y-82693750D02*
X237981250Y-84693750D01*
%TO.C,MX51*%
X195406250Y-115743750D02*
X197406250Y-115743750D01*
X195406250Y-113743750D02*
X195406250Y-115743750D01*
X209406250Y-101743750D02*
X209406250Y-103743750D01*
X207406250Y-101743750D02*
X209406250Y-101743750D01*
%TO.C,MX3*%
X88343750Y-44593750D02*
X90343750Y-44593750D01*
X76343750Y-56593750D02*
X76343750Y-58593750D01*
X76343750Y-58593750D02*
X78343750Y-58593750D01*
X90343750Y-44593750D02*
X90343750Y-46593750D01*
%TO.C,MX48*%
X138256250Y-115743750D02*
X140256250Y-115743750D01*
X152256250Y-101743750D02*
X152256250Y-103743750D01*
X138256250Y-113743750D02*
X138256250Y-115743750D01*
X150256250Y-101743750D02*
X152256250Y-101743750D01*
%TO.C,MX49*%
X171306250Y-101743750D02*
X171306250Y-103743750D01*
X169306250Y-101743750D02*
X171306250Y-101743750D01*
X157306250Y-115743750D02*
X159306250Y-115743750D01*
X157306250Y-113743750D02*
X157306250Y-115743750D01*
%TO.C,MX59*%
X90631250Y-132793750D02*
X90631250Y-134793750D01*
X90631250Y-134793750D02*
X92631250Y-134793750D01*
X102631250Y-120793750D02*
X104631250Y-120793750D01*
X104631250Y-120793750D02*
X104631250Y-122793750D01*
%TO.C,MX43*%
X52625000Y-101743750D02*
X54625000Y-101743750D01*
X54625000Y-101743750D02*
X54625000Y-103743750D01*
X40625000Y-115743750D02*
X42625000Y-115743750D01*
X40625000Y-113743750D02*
X40625000Y-115743750D01*
%TO.C,MX12*%
X261793750Y-44593750D02*
X261793750Y-46593750D01*
X247793750Y-58593750D02*
X249793750Y-58593750D01*
X247793750Y-56593750D02*
X247793750Y-58593750D01*
X259793750Y-44593750D02*
X261793750Y-44593750D01*
%TO.C,MX20*%
X123968750Y-77643750D02*
X125968750Y-77643750D01*
X137968750Y-63643750D02*
X137968750Y-65643750D01*
X123968750Y-75643750D02*
X123968750Y-77643750D01*
X135968750Y-63643750D02*
X137968750Y-63643750D01*
%TO.C,MX43b1*%
X50150000Y-115743750D02*
X52150000Y-115743750D01*
X62150000Y-101743750D02*
X64150000Y-101743750D01*
X64150000Y-101743750D02*
X64150000Y-103743750D01*
X50150000Y-113743750D02*
X50150000Y-115743750D01*
%TO.C,MX62*%
X288368750Y-120793750D02*
X290368750Y-120793750D01*
X276368750Y-134793750D02*
X278368750Y-134793750D01*
X290368750Y-120793750D02*
X290368750Y-122793750D01*
X276368750Y-132793750D02*
X276368750Y-134793750D01*
%TO.C,MX17*%
X66818750Y-77643750D02*
X68818750Y-77643750D01*
X78818750Y-63643750D02*
X80818750Y-63643750D01*
X66818750Y-75643750D02*
X66818750Y-77643750D01*
X80818750Y-63643750D02*
X80818750Y-65643750D01*
%TO.C,MX15*%
X304943750Y-56593750D02*
X304943750Y-58593750D01*
X304943750Y-58593750D02*
X306943750Y-58593750D01*
X316943750Y-44593750D02*
X318943750Y-44593750D01*
X318943750Y-44593750D02*
X318943750Y-46593750D01*
%TO.C,MX58*%
X78818750Y-120793750D02*
X80818750Y-120793750D01*
X80818750Y-120793750D02*
X80818750Y-122793750D01*
X66818750Y-134793750D02*
X68818750Y-134793750D01*
X66818750Y-132793750D02*
X66818750Y-134793750D01*
%TO.C,MX7*%
X164543750Y-44593750D02*
X166543750Y-44593750D01*
X152543750Y-56593750D02*
X152543750Y-58593750D01*
X166543750Y-44593750D02*
X166543750Y-46593750D01*
X152543750Y-58593750D02*
X154543750Y-58593750D01*
%TO.C,MX57*%
X43006250Y-132793750D02*
X43006250Y-134793750D01*
X57006250Y-120793750D02*
X57006250Y-122793750D01*
X43006250Y-134793750D02*
X45006250Y-134793750D01*
X55006250Y-120793750D02*
X57006250Y-120793750D01*
%TO.C,MX63*%
X300181250Y-134793750D02*
X302181250Y-134793750D01*
X312181250Y-120793750D02*
X314181250Y-120793750D01*
X314181250Y-120793750D02*
X314181250Y-122793750D01*
X300181250Y-132793750D02*
X300181250Y-134793750D01*
%TO.C,MX40*%
X255031250Y-82693750D02*
X257031250Y-82693750D01*
X257031250Y-82693750D02*
X257031250Y-84693750D01*
X243031250Y-96693750D02*
X245031250Y-96693750D01*
X243031250Y-94693750D02*
X243031250Y-96693750D01*
%TO.C,MX55*%
X292750000Y-101743750D02*
X292750000Y-103743750D01*
X290750000Y-101743750D02*
X292750000Y-101743750D01*
X278750000Y-113743750D02*
X278750000Y-115743750D01*
X278750000Y-115743750D02*
X280750000Y-115743750D01*
%TO.C,MX29b1*%
X302181250Y-77643750D02*
X300181250Y-77643750D01*
X300181250Y-77643750D02*
X300181250Y-75643750D01*
X314181250Y-63643750D02*
X312181250Y-63643750D01*
X314181250Y-65643750D02*
X314181250Y-63643750D01*
%TO.C,MX1*%
X50243750Y-44593750D02*
X52243750Y-44593750D01*
X38243750Y-58593750D02*
X40243750Y-58593750D01*
X38243750Y-56593750D02*
X38243750Y-58593750D01*
X52243750Y-44593750D02*
X52243750Y-46593750D01*
%TO.C,MX8*%
X183593750Y-44593750D02*
X185593750Y-44593750D01*
X185593750Y-44593750D02*
X185593750Y-46593750D01*
X171593750Y-56593750D02*
X171593750Y-58593750D01*
X171593750Y-58593750D02*
X173593750Y-58593750D01*
%TO.C,MX24*%
X200168750Y-75643750D02*
X200168750Y-77643750D01*
X212168750Y-63643750D02*
X214168750Y-63643750D01*
X200168750Y-77643750D02*
X202168750Y-77643750D01*
X214168750Y-63643750D02*
X214168750Y-65643750D01*
%TO.C,MX18*%
X97868750Y-63643750D02*
X99868750Y-63643750D01*
X85868750Y-75643750D02*
X85868750Y-77643750D01*
X85868750Y-77643750D02*
X87868750Y-77643750D01*
X99868750Y-63643750D02*
X99868750Y-65643750D01*
%TO.C,MX4*%
X107393750Y-44593750D02*
X109393750Y-44593750D01*
X95393750Y-58593750D02*
X97393750Y-58593750D01*
X95393750Y-56593750D02*
X95393750Y-58593750D01*
X109393750Y-44593750D02*
X109393750Y-46593750D01*
%TO.C,MX52*%
X214456250Y-115743750D02*
X216456250Y-115743750D01*
X214456250Y-113743750D02*
X214456250Y-115743750D01*
X226456250Y-101743750D02*
X228456250Y-101743750D01*
X228456250Y-101743750D02*
X228456250Y-103743750D01*
%TO.C,MX41*%
X262081250Y-96693750D02*
X264081250Y-96693750D01*
X276081250Y-82693750D02*
X276081250Y-84693750D01*
X274081250Y-82693750D02*
X276081250Y-82693750D01*
X262081250Y-94693750D02*
X262081250Y-96693750D01*
%TO.C,MX44*%
X76056250Y-101743750D02*
X76056250Y-103743750D01*
X62056250Y-113743750D02*
X62056250Y-115743750D01*
X62056250Y-115743750D02*
X64056250Y-115743750D01*
X74056250Y-101743750D02*
X76056250Y-101743750D01*
%TO.C,MX32*%
X90631250Y-96693750D02*
X92631250Y-96693750D01*
X104631250Y-82693750D02*
X104631250Y-84693750D01*
X90631250Y-94693750D02*
X90631250Y-96693750D01*
X102631250Y-82693750D02*
X104631250Y-82693750D01*
%TO.C,MX16*%
X43006250Y-77643750D02*
X45006250Y-77643750D01*
X43006250Y-75643750D02*
X43006250Y-77643750D01*
X57006250Y-63643750D02*
X57006250Y-65643750D01*
X55006250Y-63643750D02*
X57006250Y-63643750D01*
%TO.C,MX27*%
X269318750Y-63643750D02*
X271318750Y-63643750D01*
X257318750Y-75643750D02*
X257318750Y-77643750D01*
X271318750Y-63643750D02*
X271318750Y-65643750D01*
X257318750Y-77643750D02*
X259318750Y-77643750D01*
%TO.C,MX26*%
X250268750Y-63643750D02*
X252268750Y-63643750D01*
X238268750Y-77643750D02*
X240268750Y-77643750D01*
X238268750Y-75643750D02*
X238268750Y-77643750D01*
X252268750Y-63643750D02*
X252268750Y-65643750D01*
%TO.C,MX50*%
X188356250Y-101743750D02*
X190356250Y-101743750D01*
X190356250Y-101743750D02*
X190356250Y-103743750D01*
X176356250Y-113743750D02*
X176356250Y-115743750D01*
X176356250Y-115743750D02*
X178356250Y-115743750D01*
%TO.C,MX46*%
X114156250Y-101743750D02*
X114156250Y-103743750D01*
X100156250Y-115743750D02*
X102156250Y-115743750D01*
X112156250Y-101743750D02*
X114156250Y-101743750D01*
X100156250Y-113743750D02*
X100156250Y-115743750D01*
%TO.C,MX54*%
X252556250Y-113743750D02*
X252556250Y-115743750D01*
X252556250Y-115743750D02*
X254556250Y-115743750D01*
X266556250Y-101743750D02*
X266556250Y-103743750D01*
X264556250Y-101743750D02*
X266556250Y-101743750D01*
%TO.C,MX36*%
X178831250Y-82693750D02*
X180831250Y-82693750D01*
X166831250Y-96693750D02*
X168831250Y-96693750D01*
X166831250Y-94693750D02*
X166831250Y-96693750D01*
X180831250Y-82693750D02*
X180831250Y-84693750D01*
%TO.C,MX11*%
X228743750Y-58593750D02*
X230743750Y-58593750D01*
X228743750Y-56593750D02*
X228743750Y-58593750D01*
X242743750Y-44593750D02*
X242743750Y-46593750D01*
X240743750Y-44593750D02*
X242743750Y-44593750D01*
%TD*%
%LPC*%
D11*
%TO.C,MX22*%
X169068750Y-70643750D03*
D12*
X163988750Y-70643750D03*
X174148750Y-70643750D03*
%TD*%
%TO.C,MX31*%
X83661250Y-89693750D03*
D11*
X78581250Y-89693750D03*
D12*
X73501250Y-89693750D03*
%TD*%
D11*
%TO.C,MX25*%
X226218750Y-70643750D03*
D12*
X221138750Y-70643750D03*
X231298750Y-70643750D03*
%TD*%
D11*
%TO.C,MX45*%
X88106250Y-108743750D03*
D12*
X93186250Y-108743750D03*
X83026250Y-108743750D03*
%TD*%
%TO.C,MX6*%
X135413750Y-51593750D03*
X145573750Y-51593750D03*
D11*
X140493750Y-51593750D03*
%TD*%
D12*
%TO.C,MX19*%
X116998750Y-70643750D03*
D11*
X111918750Y-70643750D03*
D12*
X106838750Y-70643750D03*
%TD*%
%TO.C,MX30*%
X42544500Y-89693750D03*
D11*
X47624500Y-89693750D03*
X52387500Y-89693750D03*
D12*
X57467500Y-89693750D03*
%TD*%
D11*
%TO.C,MX33*%
X116681250Y-89693750D03*
D12*
X121761250Y-89693750D03*
X111601250Y-89693750D03*
%TD*%
D11*
%TO.C,MX42*%
X288131250Y-89693750D03*
D12*
X293211250Y-89693750D03*
X283051250Y-89693750D03*
%TD*%
%TO.C,MX56*%
X317023750Y-108743750D03*
X306863750Y-108743750D03*
D11*
X311943750Y-108743750D03*
%TD*%
D13*
%TO.C,MX29*%
X309562500Y-75088750D03*
D14*
X302577500Y-92106750D03*
X302577500Y-68230750D03*
D11*
X317817500Y-68230750D03*
X317817500Y-92106750D03*
X309562500Y-80168750D03*
D13*
X309562500Y-85248750D03*
%TD*%
D14*
%TO.C,MX60*%
X235743750Y-134778750D03*
X121443750Y-134778750D03*
D12*
X183673750Y-127793750D03*
D11*
X235743750Y-119538750D03*
D12*
X173513750Y-127793750D03*
D11*
X121443750Y-119538750D03*
X178593750Y-127793750D03*
%TD*%
D12*
%TO.C,MX37*%
X197961250Y-89693750D03*
D11*
X192881250Y-89693750D03*
D12*
X187801250Y-89693750D03*
%TD*%
D11*
%TO.C,MX28*%
X283368750Y-70643750D03*
D12*
X278288750Y-70643750D03*
X288448750Y-70643750D03*
%TD*%
%TO.C,MX5*%
X126523750Y-51593750D03*
X116363750Y-51593750D03*
D11*
X121443750Y-51593750D03*
%TD*%
D12*
%TO.C,MX61*%
X264636250Y-127793750D03*
X254476250Y-127793750D03*
D11*
X259556250Y-127793750D03*
%TD*%
%TO.C,MX35*%
X154781250Y-89693750D03*
D12*
X149701250Y-89693750D03*
X159861250Y-89693750D03*
%TD*%
%TO.C,MX34*%
X140811250Y-89693750D03*
X130651250Y-89693750D03*
D11*
X135731250Y-89693750D03*
%TD*%
%TO.C,MX14*%
X292893750Y-51593750D03*
D12*
X297973750Y-51593750D03*
X287813750Y-51593750D03*
%TD*%
%TO.C,MX53*%
X245586250Y-108743750D03*
D11*
X240506250Y-108743750D03*
D12*
X235426250Y-108743750D03*
%TD*%
%TO.C,MX42b1*%
X305117500Y-89693750D03*
X294957500Y-89693750D03*
D11*
X288131250Y-97948750D03*
X300037500Y-89693750D03*
X311943750Y-97948750D03*
D14*
X288131250Y-82708750D03*
X311943750Y-82708750D03*
%TD*%
D12*
%TO.C,MX2*%
X59213750Y-51593750D03*
X69373750Y-51593750D03*
D11*
X64293750Y-51593750D03*
%TD*%
%TO.C,MX23*%
X188118750Y-70643750D03*
D12*
X183038750Y-70643750D03*
X193198750Y-70643750D03*
%TD*%
%TO.C,MX15b1*%
X297338750Y-51593750D03*
D11*
X290512500Y-59848750D03*
D14*
X314325000Y-44608750D03*
X290512500Y-44608750D03*
D12*
X307498750Y-51593750D03*
D11*
X314325000Y-59848750D03*
X302418750Y-51593750D03*
%TD*%
D12*
%TO.C,MX10*%
X221773750Y-51593750D03*
D11*
X216693750Y-51593750D03*
D12*
X211613750Y-51593750D03*
%TD*%
D11*
%TO.C,MX9*%
X197643750Y-51593750D03*
D12*
X192563750Y-51593750D03*
X202723750Y-51593750D03*
%TD*%
%TO.C,MX47*%
X121126250Y-108743750D03*
X131286250Y-108743750D03*
D11*
X126206250Y-108743750D03*
%TD*%
D12*
%TO.C,MX21*%
X144938750Y-70643750D03*
X155098750Y-70643750D03*
D11*
X150018750Y-70643750D03*
%TD*%
D12*
%TO.C,MX13*%
X268763750Y-51593750D03*
X278923750Y-51593750D03*
D11*
X273843750Y-51593750D03*
%TD*%
%TO.C,MX38*%
X211931250Y-89693750D03*
D12*
X206851250Y-89693750D03*
X217011250Y-89693750D03*
%TD*%
D11*
%TO.C,MX39*%
X230981250Y-89693750D03*
D12*
X225901250Y-89693750D03*
X236061250Y-89693750D03*
%TD*%
%TO.C,MX51*%
X207486250Y-108743750D03*
X197326250Y-108743750D03*
D11*
X202406250Y-108743750D03*
%TD*%
D12*
%TO.C,MX3*%
X78263750Y-51593750D03*
D11*
X83343750Y-51593750D03*
D12*
X88423750Y-51593750D03*
%TD*%
%TO.C,MX48*%
X150336250Y-108743750D03*
X140176250Y-108743750D03*
D11*
X145256250Y-108743750D03*
%TD*%
%TO.C,MX49*%
X164306250Y-108743750D03*
D12*
X169386250Y-108743750D03*
X159226250Y-108743750D03*
%TD*%
%TO.C,MX59*%
X102711250Y-127793750D03*
D11*
X97631250Y-127793750D03*
D12*
X92551250Y-127793750D03*
%TD*%
%TO.C,MX43*%
X42545000Y-108743750D03*
X52705000Y-108743750D03*
D11*
X47625000Y-108743750D03*
%TD*%
D12*
%TO.C,MX12*%
X249713750Y-51593750D03*
X259873750Y-51593750D03*
D11*
X254793750Y-51593750D03*
%TD*%
D12*
%TO.C,MX20*%
X136048750Y-70643750D03*
D11*
X130968750Y-70643750D03*
D12*
X125888750Y-70643750D03*
%TD*%
%TO.C,MX43b1*%
X52070000Y-108743750D03*
D11*
X57150000Y-108743750D03*
X45243750Y-116998750D03*
X69056250Y-116998750D03*
D14*
X45243750Y-101758750D03*
X69056250Y-101758750D03*
D12*
X62230000Y-108743750D03*
%TD*%
%TO.C,MX62*%
X278288750Y-127793750D03*
X288448750Y-127793750D03*
D11*
X283368750Y-127793750D03*
%TD*%
D12*
%TO.C,MX17*%
X78898750Y-70643750D03*
X68738750Y-70643750D03*
D11*
X73818750Y-70643750D03*
%TD*%
%TO.C,MX15*%
X311943750Y-51593750D03*
D12*
X306863750Y-51593750D03*
X317023750Y-51593750D03*
%TD*%
D11*
%TO.C,MX58*%
X73818750Y-127793750D03*
D12*
X68738750Y-127793750D03*
X78898750Y-127793750D03*
%TD*%
D11*
%TO.C,MX7*%
X159543750Y-51593750D03*
D12*
X154463750Y-51593750D03*
X164623750Y-51593750D03*
%TD*%
%TO.C,MX56b1*%
X300355000Y-108743750D03*
D14*
X283337000Y-101758750D03*
D11*
X307213000Y-116998750D03*
X283337000Y-116998750D03*
D12*
X290195000Y-108743750D03*
D14*
X307213000Y-101758750D03*
D11*
X295275000Y-108743750D03*
%TD*%
D12*
%TO.C,MX57*%
X55086250Y-127793750D03*
X44926250Y-127793750D03*
D11*
X50006250Y-127793750D03*
%TD*%
%TO.C,MX63*%
X307181250Y-127793750D03*
D12*
X302101250Y-127793750D03*
X312261250Y-127793750D03*
%TD*%
D11*
%TO.C,MX40*%
X250031250Y-89693750D03*
D12*
X255111250Y-89693750D03*
X244951250Y-89693750D03*
%TD*%
%TO.C,MX55*%
X290830000Y-108743750D03*
X280670000Y-108743750D03*
D11*
X285750000Y-108743750D03*
%TD*%
D12*
%TO.C,MX29b1*%
X312261250Y-70643750D03*
X302101250Y-70643750D03*
D11*
X307181250Y-70643750D03*
%TD*%
D12*
%TO.C,MX1*%
X40163750Y-51593750D03*
X50323750Y-51593750D03*
D11*
X45243750Y-51593750D03*
%TD*%
D12*
%TO.C,MX8*%
X183673750Y-51593750D03*
D11*
X178593750Y-51593750D03*
D12*
X173513750Y-51593750D03*
%TD*%
D11*
%TO.C,MX24*%
X207168750Y-70643750D03*
D12*
X212248750Y-70643750D03*
X202088750Y-70643750D03*
%TD*%
%TO.C,MX18*%
X87788750Y-70643750D03*
X97948750Y-70643750D03*
D11*
X92868750Y-70643750D03*
%TD*%
%TO.C,MX4*%
X102393750Y-51593750D03*
D12*
X97313750Y-51593750D03*
X107473750Y-51593750D03*
%TD*%
%TO.C,MX52*%
X226536250Y-108743750D03*
D11*
X221456250Y-108743750D03*
D12*
X216376250Y-108743750D03*
%TD*%
%TO.C,MX41*%
X264001250Y-89693750D03*
X274161250Y-89693750D03*
D11*
X269081250Y-89693750D03*
%TD*%
%TO.C,MX44*%
X69056250Y-108743750D03*
D12*
X63976250Y-108743750D03*
X74136250Y-108743750D03*
%TD*%
%TO.C,MX32*%
X92551250Y-89693750D03*
X102711250Y-89693750D03*
D11*
X97631250Y-89693750D03*
%TD*%
D12*
%TO.C,MX16*%
X55086250Y-70643750D03*
D11*
X50006250Y-70643750D03*
D12*
X44926250Y-70643750D03*
%TD*%
D11*
%TO.C,MX27*%
X264318750Y-70643750D03*
D12*
X269398750Y-70643750D03*
X259238750Y-70643750D03*
%TD*%
D11*
%TO.C,MX26*%
X245268750Y-70643750D03*
D12*
X240188750Y-70643750D03*
X250348750Y-70643750D03*
%TD*%
%TO.C,MX50*%
X178276250Y-108743750D03*
X188436250Y-108743750D03*
D11*
X183356250Y-108743750D03*
%TD*%
%TO.C,MX46*%
X107156250Y-108743750D03*
D12*
X102076250Y-108743750D03*
X112236250Y-108743750D03*
%TD*%
%TO.C,MX54*%
X254476250Y-108743750D03*
D11*
X259556250Y-108743750D03*
D12*
X264636250Y-108743750D03*
%TD*%
D11*
%TO.C,MX36*%
X173831250Y-89693750D03*
D12*
X178911250Y-89693750D03*
X168751250Y-89693750D03*
%TD*%
%TO.C,MX11*%
X240823750Y-51593750D03*
X230663750Y-51593750D03*
D11*
X235743750Y-51593750D03*
%TD*%
D15*
%TO.C,USB1*%
X175703750Y-40700000D03*
X181483750Y-40700000D03*
D16*
X174273750Y-37050000D03*
X182913750Y-37050000D03*
D17*
X182913750Y-41230000D03*
X174273750Y-41230000D03*
%TD*%
D18*
X165735000Y-60071000D03*
X134977832Y-121319605D03*
X168021000Y-58293000D03*
X131445000Y-121285000D03*
X126873000Y-119888000D03*
X175945615Y-58496385D03*
X140847653Y-121543653D03*
X126238000Y-132334000D03*
X54231875Y-121810252D03*
X48350000Y-119868750D03*
X177419000Y-57023000D03*
X137827520Y-132519360D03*
X163128500Y-56962500D03*
X157480000Y-76835000D03*
X164533750Y-76835000D03*
X140160492Y-130855198D03*
X166116000Y-95885000D03*
X139319000Y-95885000D03*
X140936965Y-130225838D03*
X150114000Y-95885000D03*
X139192000Y-114935000D03*
X139218950Y-121040510D03*
X130048000Y-114935000D03*
X126856395Y-114918395D03*
X134112000Y-114935000D03*
X176694000Y-57729755D03*
X160528000Y-63627000D03*
X316992000Y-85979000D03*
X320167000Y-85979000D03*
X137922000Y-118872000D03*
X178943000Y-46228000D03*
X170053000Y-46228000D03*
X130810000Y-123698000D03*
X181835903Y-43906597D03*
X127762000Y-118872000D03*
X145542000Y-123317000D03*
X130687653Y-130433653D03*
X134048500Y-126936500D03*
X131318000Y-119888000D03*
X136906000Y-119888000D03*
X122788793Y-129909115D03*
X123415342Y-129130372D03*
X124066389Y-128371990D03*
X124586691Y-127518590D03*
X125220813Y-126746000D03*
X125876384Y-125984000D03*
X139463929Y-131572000D03*
X135837000Y-131912524D03*
X135705160Y-132910207D03*
X134943636Y-133557576D03*
X134112000Y-134112000D03*
X133249679Y-133586103D03*
X132419633Y-134142906D03*
X131653881Y-133500544D03*
X130928541Y-134188210D03*
M02*
