M48
; DRILL file {KiCad (6.0.8)} date Mon Oct 24 21:08:13 2022
; FORMAT={-:-/ absolute / inch / decimal}
; #@! TF.CreationDate,2022-10-24T21:08:13+02:00
; #@! TF.GenerationSoftware,Kicad,Pcbnew,(6.0.8)
; #@! TF.FileFunction,NonPlated,1,2,NPTH
FMAT,2
INCH
; #@! TA.AperFunction,NonPlated,NPTH,ComponentDrill
T1C0.0256
; #@! TA.AperFunction,NonPlated,NPTH,ComponentDrill
T2C0.0670
; #@! TA.AperFunction,NonPlated,NPTH,ComponentDrill
T3C0.0689
; #@! TA.AperFunction,NonPlated,NPTH,ComponentDrill
T4C0.1200
; #@! TA.AperFunction,NonPlated,NPTH,ComponentDrill
T5C0.1570
%
G90
G05
T1
X6.9175Y-1.6024
X7.145Y-1.6024
T2
X12.1875Y-2.9562
X12.1875Y-3.3562
T3
X1.5813Y-2.0312
X1.675Y-3.5312
X1.675Y-4.2812
X1.7688Y-2.7812
X1.7688Y-5.0312
X1.9812Y-2.0312
X2.05Y-4.2812
X2.075Y-4.2812
X2.1687Y-2.7812
X2.1687Y-5.0312
X2.2625Y-3.5312
X2.3312Y-2.0312
X2.45Y-4.2812
X2.5187Y-4.2812
X2.7062Y-2.7812
X2.7062Y-5.0312
X2.7312Y-2.0312
X2.8937Y-3.5312
X2.9187Y-4.2812
X3.0812Y-2.0312
X3.1062Y-2.7812
X3.1062Y-5.0312
X3.2687Y-4.2812
X3.2937Y-3.5312
X3.4562Y-2.7812
X3.4812Y-2.0312
X3.6437Y-3.5312
X3.6437Y-5.0312
X3.6687Y-4.2812
X3.8312Y-2.0312
X3.8562Y-2.7812
X4.0187Y-4.2812
X4.0438Y-3.5312
X4.0438Y-5.0312
X4.2062Y-2.7812
X4.2313Y-2.0312
X4.3937Y-3.5312
X4.4188Y-4.2812
X4.5812Y-2.0312
X4.6063Y-2.7812
X4.7687Y-4.2812
X4.7938Y-3.5312
X4.9562Y-2.7812
X4.9813Y-2.0312
X5.1437Y-3.5312
X5.1688Y-4.2812
X5.3312Y-2.0312
X5.3563Y-2.7812
X5.5187Y-4.2812
X5.5438Y-3.5312
X5.7062Y-2.7812
X5.7313Y-2.0312
X5.8937Y-3.5312
X5.9188Y-4.2812
X6.0812Y-2.0312
X6.1063Y-2.7812
X6.2687Y-4.2812
X6.2938Y-3.5312
X6.4562Y-2.7812
X6.4813Y-2.0312
X6.6437Y-3.5312
X6.6688Y-4.2812
X6.8312Y-2.0312
X6.8312Y-5.0312
X6.8563Y-2.7812
X7.0187Y-4.2812
X7.0438Y-3.5312
X7.2062Y-2.7812
X7.2313Y-2.0312
X7.2313Y-5.0312
X7.3937Y-3.5312
X7.4188Y-4.2812
X7.5812Y-2.0312
X7.6063Y-2.7812
X7.7687Y-4.2812
X7.7938Y-3.5312
X7.9562Y-2.7812
X7.9813Y-2.0312
X8.1437Y-3.5312
X8.1687Y-4.2812
X8.3312Y-2.0312
X8.3562Y-2.7812
X8.5187Y-4.2812
X8.5437Y-3.5312
X8.7062Y-2.7812
X8.7312Y-2.0312
X8.8937Y-3.5312
X8.9187Y-4.2812
X9.0812Y-2.0312
X9.1062Y-2.7812
X9.2687Y-4.2812
X9.2937Y-3.5312
X9.4562Y-2.7812
X9.4812Y-2.0312
X9.6437Y-3.5312
X9.6687Y-4.2812
X9.8312Y-2.0312
X9.8562Y-2.7812
X10.0187Y-4.2812
X10.0187Y-5.0312
X10.0437Y-3.5312
X10.2062Y-2.7812
X10.2312Y-2.0312
X10.3937Y-3.5312
X10.4187Y-4.2812
X10.4187Y-5.0312
X10.5812Y-2.0312
X10.6062Y-2.7812
X10.7937Y-3.5312
X10.9562Y-2.7812
X10.9562Y-5.0312
X10.9812Y-2.0312
X11.05Y-4.2812
X11.1437Y-3.5312
X11.3312Y-2.0312
X11.3562Y-2.7812
X11.3562Y-5.0312
X11.425Y-4.2812
X11.45Y-4.2812
X11.5437Y-3.5312
X11.6125Y-3.5312
X11.7062Y-2.0312
X11.7312Y-2.0312
X11.825Y-4.2812
X11.8937Y-2.7812
X11.8937Y-5.0312
X12.0125Y-3.5312
X12.0812Y-2.0312
X12.0812Y-4.2812
X12.1062Y-2.0312
X12.2937Y-2.7812
X12.2937Y-5.0312
X12.4812Y-2.0312
X12.4812Y-4.2812
T4
X1.7812Y-4.0062
X2.7188Y-4.0062
X4.7812Y-5.3062
X9.2812Y-5.3062
X11.155Y-4.0062
X11.3438Y-3.2563
X11.4375Y-1.7562
X11.9125Y-2.6862
X11.9125Y-3.6262
X12.095Y-4.0062
X12.2812Y-3.2563
X12.375Y-1.7562
T5
X1.7812Y-2.0312
X1.7812Y-4.6063
X1.875Y-3.5312
X1.875Y-4.2812
X1.9688Y-2.7812
X1.9688Y-5.0312
X2.0625Y-3.5312
X2.25Y-4.2812
X2.5312Y-2.0312
X2.7188Y-4.2812
X2.7188Y-4.6063
X2.9062Y-2.7812
X2.9062Y-5.0312
X3.0938Y-3.5312
X3.2812Y-2.0312
X3.4688Y-4.2812
X3.6562Y-2.7812
X3.8438Y-3.5312
X3.8438Y-5.0312
X4.0312Y-2.0312
X4.2188Y-4.2812
X4.4062Y-2.7812
X4.5938Y-3.5312
X4.7812Y-2.0312
X4.7812Y-4.7062
X4.9688Y-4.2812
X5.1562Y-2.7812
X5.3438Y-3.5312
X5.5312Y-2.0312
X5.7188Y-4.2812
X5.9062Y-2.7812
X6.0938Y-3.5312
X6.2812Y-2.0312
X6.4688Y-4.2812
X6.6562Y-2.7812
X6.8438Y-3.5312
X7.0312Y-2.0312
X7.0312Y-5.0312
X7.2188Y-4.2812
X7.4062Y-2.7812
X7.5938Y-3.5312
X7.7812Y-2.0312
X7.9688Y-4.2812
X8.1562Y-2.7812
X8.3438Y-3.5312
X8.5312Y-2.0312
X8.7188Y-4.2812
X8.9062Y-2.7812
X9.0938Y-3.5312
X9.2812Y-2.0312
X9.2812Y-4.7062
X9.4688Y-4.2812
X9.6562Y-2.7812
X9.8438Y-3.5312
X10.0312Y-2.0312
X10.2188Y-4.2812
X10.2188Y-5.0312
X10.4062Y-2.7812
X10.5938Y-3.5312
X10.7812Y-2.0312
X11.155Y-4.6063
X11.1562Y-2.7812
X11.1562Y-5.0312
X11.25Y-4.2812
X11.3438Y-3.5312
X11.3438Y-3.8562
X11.4375Y-2.3562
X11.5312Y-2.0312
X11.625Y-4.2812
X11.8125Y-3.5312
X11.9062Y-2.0312
X12.0938Y-2.7812
X12.0938Y-5.0312
X12.095Y-4.6063
X12.1875Y-3.1562
X12.2812Y-2.0312
X12.2812Y-3.8562
X12.2812Y-4.2812
X12.375Y-2.3562
X12.5125Y-2.6862
X12.5125Y-3.6262
T0
M30
