%TF.GenerationSoftware,KiCad,Pcbnew,(6.0.8)*%
%TF.CreationDate,2022-10-24T21:08:13+02:00*%
%TF.ProjectId,cod67-iso,636f6436-372d-4697-936f-2e6b69636164,rev?*%
%TF.SameCoordinates,Original*%
%TF.FileFunction,Paste,Bot*%
%TF.FilePolarity,Positive*%
%FSLAX46Y46*%
G04 Gerber Fmt 4.6, Leading zero omitted, Abs format (unit mm)*
G04 Created by KiCad (PCBNEW (6.0.8)) date 2022-10-24 21:08:13*
%MOMM*%
%LPD*%
G01*
G04 APERTURE LIST*
G04 Aperture macros list*
%AMRoundRect*
0 Rectangle with rounded corners*
0 $1 Rounding radius*
0 $2 $3 $4 $5 $6 $7 $8 $9 X,Y pos of 4 corners*
0 Add a 4 corners polygon primitive as box body*
4,1,4,$2,$3,$4,$5,$6,$7,$8,$9,$2,$3,0*
0 Add four circle primitives for the rounded corners*
1,1,$1+$1,$2,$3*
1,1,$1+$1,$4,$5*
1,1,$1+$1,$6,$7*
1,1,$1+$1,$8,$9*
0 Add four rect primitives between the rounded corners*
20,1,$1+$1,$2,$3,$4,$5,0*
20,1,$1+$1,$4,$5,$6,$7,0*
20,1,$1+$1,$6,$7,$8,$9,0*
20,1,$1+$1,$8,$9,$2,$3,0*%
G04 Aperture macros list end*
%ADD10R,1.100000X1.100000*%
%ADD11R,1.500000X0.900000*%
%ADD12RoundRect,0.250000X-0.250000X-0.475000X0.250000X-0.475000X0.250000X0.475000X-0.250000X0.475000X0*%
%ADD13RoundRect,0.250000X-0.475000X0.250000X-0.475000X-0.250000X0.475000X-0.250000X0.475000X0.250000X0*%
%ADD14RoundRect,0.250000X0.475000X-0.250000X0.475000X0.250000X-0.475000X0.250000X-0.475000X-0.250000X0*%
%ADD15RoundRect,0.250000X0.450000X-0.262500X0.450000X0.262500X-0.450000X0.262500X-0.450000X-0.262500X0*%
%ADD16RoundRect,0.243750X0.456250X-0.243750X0.456250X0.243750X-0.456250X0.243750X-0.456250X-0.243750X0*%
%ADD17R,1.200000X1.400000*%
%ADD18RoundRect,0.250000X-0.262500X-0.450000X0.262500X-0.450000X0.262500X0.450000X-0.262500X0.450000X0*%
%ADD19R,0.700000X1.000000*%
%ADD20R,0.700000X0.600000*%
%ADD21R,0.900000X1.500000*%
%ADD22RoundRect,0.250000X0.262500X0.450000X-0.262500X0.450000X-0.262500X-0.450000X0.262500X-0.450000X0*%
%ADD23RoundRect,0.250000X-0.325000X-0.450000X0.325000X-0.450000X0.325000X0.450000X-0.325000X0.450000X0*%
%ADD24RoundRect,0.250000X-0.275000X0.275000X-0.275000X-0.275000X0.275000X-0.275000X0.275000X0.275000X0*%
%ADD25RoundRect,0.062500X-0.062500X0.475000X-0.062500X-0.475000X0.062500X-0.475000X0.062500X0.475000X0*%
%ADD26RoundRect,0.062500X-0.475000X0.062500X-0.475000X-0.062500X0.475000X-0.062500X0.475000X0.062500X0*%
%ADD27RoundRect,0.250000X0.250000X0.475000X-0.250000X0.475000X-0.250000X-0.475000X0.250000X-0.475000X0*%
%ADD28R,0.600000X1.450000*%
%ADD29R,0.300000X1.450000*%
%ADD30R,1.800000X1.100000*%
G04 APERTURE END LIST*
D10*
%TO.C,D13*%
X279400000Y-56962500D03*
X279400000Y-54162500D03*
%TD*%
D11*
%TO.C,LED19*%
X199956250Y-119918750D03*
X199956250Y-116618750D03*
X204856250Y-116618750D03*
X204856250Y-119918750D03*
%TD*%
D12*
%TO.C,C6*%
X136591000Y-134620000D03*
X138491000Y-134620000D03*
%TD*%
D10*
%TO.C,D60*%
X184150000Y-133956250D03*
X184150000Y-131156250D03*
%TD*%
D12*
%TO.C,C13*%
X37404000Y-74041000D03*
X39304000Y-74041000D03*
%TD*%
D13*
%TO.C,C23*%
X164211000Y-60137000D03*
X164211000Y-62037000D03*
%TD*%
D10*
%TO.C,D43*%
X53181250Y-114906250D03*
X53181250Y-112106250D03*
%TD*%
D14*
%TO.C,C17*%
X83185000Y-120457000D03*
X83185000Y-118557000D03*
%TD*%
D15*
%TO.C,R6*%
X150749000Y-123213500D03*
X150749000Y-121388500D03*
%TD*%
D10*
%TO.C,D61*%
X265112500Y-133768750D03*
X265112500Y-130968750D03*
%TD*%
%TO.C,D42*%
X293687500Y-95856250D03*
X293687500Y-93056250D03*
%TD*%
D11*
%TO.C,LED8*%
X123893750Y-59468750D03*
X123893750Y-62768750D03*
X118993750Y-62768750D03*
X118993750Y-59468750D03*
%TD*%
D16*
%TO.C,F1*%
X168021000Y-55293500D03*
X168021000Y-53418500D03*
%TD*%
D11*
%TO.C,LED7*%
X85793750Y-59468750D03*
X85793750Y-62768750D03*
X80893750Y-62768750D03*
X80893750Y-59468750D03*
%TD*%
D12*
%TO.C,C2*%
X144846000Y-128143000D03*
X146746000Y-128143000D03*
%TD*%
D17*
%TO.C,Y1*%
X141491600Y-128036500D03*
X141491600Y-125836500D03*
X143191600Y-125836500D03*
X143191600Y-128036500D03*
%TD*%
D14*
%TO.C,C28*%
X53975000Y-60894000D03*
X53975000Y-58994000D03*
%TD*%
D10*
%TO.C,D32*%
X103187500Y-95856250D03*
X103187500Y-93056250D03*
%TD*%
D18*
%TO.C,R2*%
X174093500Y-45212000D03*
X175918500Y-45212000D03*
%TD*%
D19*
%TO.C,U2*%
X171688000Y-51701000D03*
D20*
X171688000Y-53401000D03*
X169688000Y-53401000D03*
X169688000Y-51501000D03*
%TD*%
D10*
%TO.C,D23*%
X193675000Y-76806250D03*
X193675000Y-74006250D03*
%TD*%
D11*
%TO.C,LED16*%
X310287500Y-119918750D03*
X310287500Y-116618750D03*
X315187500Y-116618750D03*
X315187500Y-119918750D03*
%TD*%
D10*
%TO.C,D57*%
X55562500Y-133956250D03*
X55562500Y-131156250D03*
%TD*%
D14*
%TO.C,C22*%
X192659000Y-63180000D03*
X192659000Y-61280000D03*
%TD*%
D21*
%TO.C,LED5*%
X37094500Y-77718750D03*
X40394500Y-77718750D03*
X40394500Y-82618750D03*
X37094500Y-82618750D03*
%TD*%
D13*
%TO.C,C12*%
X315087000Y-121986000D03*
X315087000Y-123886000D03*
%TD*%
D10*
%TO.C,D41*%
X274637500Y-95856250D03*
X274637500Y-93056250D03*
%TD*%
D13*
%TO.C,C16*%
X303657000Y-61407000D03*
X303657000Y-63307000D03*
%TD*%
D10*
%TO.C,D20*%
X136525000Y-76806250D03*
X136525000Y-74006250D03*
%TD*%
D22*
%TO.C,R3*%
X185443500Y-45466000D03*
X183618500Y-45466000D03*
%TD*%
D13*
%TO.C,C26*%
X127000000Y-59121000D03*
X127000000Y-61021000D03*
%TD*%
D10*
%TO.C,D2*%
X69850000Y-56962500D03*
X69850000Y-54162500D03*
%TD*%
D14*
%TO.C,C21*%
X268732000Y-63180000D03*
X268732000Y-61280000D03*
%TD*%
D10*
%TO.C,D55*%
X291306250Y-114906250D03*
X291306250Y-112106250D03*
%TD*%
D14*
%TO.C,C9*%
X88900000Y-61021000D03*
X88900000Y-59121000D03*
%TD*%
D12*
%TO.C,C3*%
X144846000Y-125793500D03*
X146746000Y-125793500D03*
%TD*%
D10*
%TO.C,D19*%
X117475000Y-76806250D03*
X117475000Y-74006250D03*
%TD*%
%TO.C,D40*%
X255587500Y-95856250D03*
X255587500Y-93056250D03*
%TD*%
%TO.C,D15*%
X317500000Y-56962500D03*
X317500000Y-54162500D03*
%TD*%
%TO.C,D53*%
X246253000Y-114938000D03*
X246253000Y-112138000D03*
%TD*%
%TO.C,D29*%
X300831250Y-76806250D03*
X300831250Y-74006250D03*
%TD*%
D23*
%TO.C,FB1*%
X169028000Y-43815000D03*
X171078000Y-43815000D03*
%TD*%
D10*
%TO.C,D37*%
X198437500Y-95856250D03*
X198437500Y-93056250D03*
%TD*%
D24*
%TO.C,U1*%
X136062000Y-125050000D03*
X132162000Y-127650000D03*
X134762000Y-125050000D03*
X134762000Y-128950000D03*
X136062000Y-127650000D03*
X132162000Y-125050000D03*
X133462000Y-125050000D03*
X132162000Y-126350000D03*
X134762000Y-126350000D03*
X132162000Y-128950000D03*
X136062000Y-126350000D03*
X134762000Y-127650000D03*
X133462000Y-128950000D03*
X136062000Y-128950000D03*
X133462000Y-127650000D03*
X133462000Y-126350000D03*
D25*
X131612000Y-123662500D03*
X132112000Y-123662500D03*
X132612000Y-123662500D03*
X133112000Y-123662500D03*
X133612000Y-123662500D03*
X134112000Y-123662500D03*
X134612000Y-123662500D03*
X135112000Y-123662500D03*
X135612000Y-123662500D03*
X136112000Y-123662500D03*
X136612000Y-123662500D03*
D26*
X137449500Y-124500000D03*
X137449500Y-125000000D03*
X137449500Y-125500000D03*
X137449500Y-126000000D03*
X137449500Y-126500000D03*
X137449500Y-127000000D03*
X137449500Y-127500000D03*
X137449500Y-128000000D03*
X137449500Y-128500000D03*
X137449500Y-129000000D03*
X137449500Y-129500000D03*
D25*
X136612000Y-130337500D03*
X136112000Y-130337500D03*
X135612000Y-130337500D03*
X135112000Y-130337500D03*
X134612000Y-130337500D03*
X134112000Y-130337500D03*
X133612000Y-130337500D03*
X133112000Y-130337500D03*
X132612000Y-130337500D03*
X132112000Y-130337500D03*
X131612000Y-130337500D03*
D26*
X130774500Y-129500000D03*
X130774500Y-129000000D03*
X130774500Y-128500000D03*
X130774500Y-128000000D03*
X130774500Y-127500000D03*
X130774500Y-127000000D03*
X130774500Y-126500000D03*
X130774500Y-126000000D03*
X130774500Y-125500000D03*
X130774500Y-125000000D03*
X130774500Y-124500000D03*
%TD*%
D11*
%TO.C,LED13*%
X311218750Y-59468750D03*
X311218750Y-62768750D03*
X306318750Y-62768750D03*
X306318750Y-59468750D03*
%TD*%
%TO.C,LED3*%
X48350000Y-119918750D03*
X48350000Y-116618750D03*
X53250000Y-116618750D03*
X53250000Y-119918750D03*
%TD*%
D10*
%TO.C,D47*%
X131762500Y-114906250D03*
X131762500Y-112106250D03*
%TD*%
%TO.C,D36*%
X179387500Y-95856250D03*
X179387500Y-93056250D03*
%TD*%
%TO.C,D48*%
X150812500Y-114906250D03*
X150812500Y-112106250D03*
%TD*%
%TO.C,D45*%
X93662500Y-114906250D03*
X93662500Y-112106250D03*
%TD*%
%TO.C,D54*%
X265112500Y-115093750D03*
X265112500Y-112293750D03*
%TD*%
%TO.C,D12*%
X260350000Y-56962500D03*
X260350000Y-54162500D03*
%TD*%
%TO.C,D11*%
X241300000Y-56962500D03*
X241300000Y-54162500D03*
%TD*%
%TO.C,D8*%
X184150000Y-56962500D03*
X184150000Y-54162500D03*
%TD*%
%TO.C,D56*%
X317500000Y-114906250D03*
X317500000Y-112106250D03*
%TD*%
%TO.C,D59*%
X103187500Y-133956250D03*
X103187500Y-131156250D03*
%TD*%
%TO.C,D22*%
X174625000Y-76806250D03*
X174625000Y-74006250D03*
%TD*%
%TO.C,D51*%
X207962500Y-114906250D03*
X207962500Y-112106250D03*
%TD*%
D27*
%TO.C,C24*%
X314894000Y-94107000D03*
X312994000Y-94107000D03*
%TD*%
D12*
%TO.C,C15*%
X42738000Y-96774000D03*
X44638000Y-96774000D03*
%TD*%
D10*
%TO.C,D52*%
X227012500Y-114906250D03*
X227012500Y-112106250D03*
%TD*%
D11*
%TO.C,LED20*%
X161856250Y-119918750D03*
X161856250Y-116618750D03*
X166756250Y-116618750D03*
X166756250Y-119918750D03*
%TD*%
D10*
%TO.C,D18*%
X98425000Y-76806250D03*
X98425000Y-74006250D03*
%TD*%
%TO.C,D10*%
X222250000Y-56962500D03*
X222250000Y-54162500D03*
%TD*%
D15*
%TO.C,R5*%
X138811000Y-113307500D03*
X138811000Y-111482500D03*
%TD*%
D10*
%TO.C,D1*%
X50800000Y-56962500D03*
X50800000Y-54162500D03*
%TD*%
%TO.C,D33*%
X122237500Y-95856250D03*
X122237500Y-93056250D03*
%TD*%
%TO.C,D25*%
X231775000Y-76806250D03*
X231775000Y-74006250D03*
%TD*%
%TO.C,D30*%
X57943750Y-95668750D03*
X57943750Y-92868750D03*
%TD*%
D12*
%TO.C,C7*%
X140502600Y-123190000D03*
X142402600Y-123190000D03*
%TD*%
D11*
%TO.C,LED9*%
X161993750Y-59468750D03*
X161993750Y-62768750D03*
X157093750Y-62768750D03*
X157093750Y-59468750D03*
%TD*%
D10*
%TO.C,D31*%
X84137500Y-95856250D03*
X84137500Y-93056250D03*
%TD*%
D21*
%TO.C,LED4*%
X37094500Y-96768750D03*
X40394500Y-96768750D03*
X40394500Y-101668750D03*
X37094500Y-101668750D03*
%TD*%
D10*
%TO.C,D50*%
X188912500Y-114906250D03*
X188912500Y-112106250D03*
%TD*%
%TO.C,D27*%
X269875000Y-76806250D03*
X269875000Y-74006250D03*
%TD*%
%TO.C,D28*%
X288925000Y-76806250D03*
X288925000Y-74006250D03*
%TD*%
%TO.C,D14*%
X298450000Y-56962500D03*
X298450000Y-54162500D03*
%TD*%
%TO.C,D7*%
X165100000Y-56962500D03*
X165100000Y-54162500D03*
%TD*%
%TO.C,D6*%
X146050000Y-56962500D03*
X146050000Y-54162500D03*
%TD*%
%TO.C,D26*%
X250825000Y-76806250D03*
X250825000Y-74006250D03*
%TD*%
%TO.C,D49*%
X169862500Y-114906250D03*
X169862500Y-112106250D03*
%TD*%
D28*
%TO.C,USB1*%
X175343750Y-42145000D03*
X176143750Y-42145000D03*
D29*
X177343750Y-42145000D03*
X178343750Y-42145000D03*
X178843750Y-42145000D03*
X179843750Y-42145000D03*
D28*
X181043750Y-42145000D03*
X181843750Y-42145000D03*
X181843750Y-42145000D03*
X181043750Y-42145000D03*
D29*
X180343750Y-42145000D03*
X179343750Y-42145000D03*
X177843750Y-42145000D03*
X176843750Y-42145000D03*
D28*
X176143750Y-42145000D03*
X175343750Y-42145000D03*
%TD*%
D14*
%TO.C,C18*%
X207899000Y-118679000D03*
X207899000Y-116779000D03*
%TD*%
D10*
%TO.C,D3*%
X88900000Y-56962500D03*
X88900000Y-54162500D03*
%TD*%
D13*
%TO.C,C20*%
X169926000Y-116779000D03*
X169926000Y-118679000D03*
%TD*%
D10*
%TO.C,D39*%
X236537500Y-95856250D03*
X236537500Y-93056250D03*
%TD*%
D11*
%TO.C,LED17*%
X275362500Y-119918750D03*
X275362500Y-116618750D03*
X280262500Y-116618750D03*
X280262500Y-119918750D03*
%TD*%
D10*
%TO.C,D44*%
X74612500Y-114906250D03*
X74612500Y-112106250D03*
%TD*%
%TO.C,D9*%
X203200000Y-56962500D03*
X203200000Y-54162500D03*
%TD*%
D21*
%TO.C,LED15*%
X320093750Y-101668750D03*
X316793750Y-101668750D03*
X316793750Y-96768750D03*
X320093750Y-96768750D03*
%TD*%
D11*
%TO.C,LED10*%
X200093750Y-59468750D03*
X200093750Y-62768750D03*
X195193750Y-62768750D03*
X195193750Y-59468750D03*
%TD*%
D10*
%TO.C,D5*%
X127000000Y-56962500D03*
X127000000Y-54162500D03*
%TD*%
D11*
%TO.C,LED6*%
X50868750Y-59468750D03*
X50868750Y-62768750D03*
X45968750Y-62768750D03*
X45968750Y-59468750D03*
%TD*%
D14*
%TO.C,C14*%
X282829000Y-122997000D03*
X282829000Y-121097000D03*
%TD*%
D10*
%TO.C,D38*%
X217487500Y-95856250D03*
X217487500Y-93056250D03*
%TD*%
%TO.C,D21*%
X155575000Y-76806250D03*
X155575000Y-74006250D03*
%TD*%
D11*
%TO.C,LED11*%
X238193750Y-59468750D03*
X238193750Y-62768750D03*
X233293750Y-62768750D03*
X233293750Y-59468750D03*
%TD*%
%TO.C,LED1*%
X124550000Y-119918750D03*
X124550000Y-116618750D03*
X129450000Y-116618750D03*
X129450000Y-119918750D03*
%TD*%
D27*
%TO.C,C19*%
X124521000Y-124079000D03*
X122621000Y-124079000D03*
%TD*%
D10*
%TO.C,D35*%
X160337500Y-95856250D03*
X160337500Y-93056250D03*
%TD*%
%TO.C,D34*%
X141287500Y-95856250D03*
X141287500Y-93056250D03*
%TD*%
D18*
%TO.C,R1*%
X127738500Y-133731000D03*
X129563500Y-133731000D03*
%TD*%
D11*
%TO.C,LED2*%
X85656250Y-119918750D03*
X85656250Y-116618750D03*
X90556250Y-116618750D03*
X90556250Y-119918750D03*
%TD*%
D27*
%TO.C,C1*%
X138110000Y-117094000D03*
X136210000Y-117094000D03*
%TD*%
D10*
%TO.C,D16*%
X55562500Y-76806250D03*
X55562500Y-74006250D03*
%TD*%
%TO.C,D4*%
X107950000Y-56962500D03*
X107950000Y-54162500D03*
%TD*%
%TO.C,D46*%
X112712500Y-114906250D03*
X112712500Y-112106250D03*
%TD*%
D11*
%TO.C,LED12*%
X276293750Y-59468750D03*
X276293750Y-62768750D03*
X271393750Y-62768750D03*
X271393750Y-59468750D03*
%TD*%
D10*
%TO.C,D62*%
X288925000Y-133956250D03*
X288925000Y-131156250D03*
%TD*%
D27*
%TO.C,C8*%
X130109000Y-121793000D03*
X128209000Y-121793000D03*
%TD*%
D10*
%TO.C,D58*%
X79375000Y-133956250D03*
X79375000Y-131156250D03*
%TD*%
D13*
%TO.C,C11*%
X246634000Y-116906000D03*
X246634000Y-118806000D03*
%TD*%
D10*
%TO.C,D17*%
X79375000Y-76806250D03*
X79375000Y-74006250D03*
%TD*%
D12*
%TO.C,C25*%
X49342000Y-113665000D03*
X51242000Y-113665000D03*
%TD*%
%TO.C,C10*%
X316423000Y-75184000D03*
X318323000Y-75184000D03*
%TD*%
D10*
%TO.C,D63*%
X312737500Y-133956250D03*
X312737500Y-131156250D03*
%TD*%
D11*
%TO.C,LED18*%
X238850000Y-119918750D03*
X238850000Y-116618750D03*
X243750000Y-116618750D03*
X243750000Y-119918750D03*
%TD*%
D10*
%TO.C,D24*%
X212725000Y-76806250D03*
X212725000Y-74006250D03*
%TD*%
D21*
%TO.C,LED14*%
X320093750Y-82618750D03*
X316793750Y-82618750D03*
X316793750Y-77718750D03*
X320093750Y-77718750D03*
%TD*%
D13*
%TO.C,C27*%
X230759000Y-61280000D03*
X230759000Y-63180000D03*
%TD*%
D15*
%TO.C,R4*%
X136779000Y-113307500D03*
X136779000Y-111482500D03*
%TD*%
D13*
%TO.C,C5*%
X126365000Y-122113000D03*
X126365000Y-124013000D03*
%TD*%
D30*
%TO.C,SW1*%
X167057000Y-125023000D03*
X160857000Y-128723000D03*
X167057000Y-128723000D03*
X160857000Y-125023000D03*
%TD*%
D14*
%TO.C,C4*%
X127889000Y-131506000D03*
X127889000Y-129606000D03*
%TD*%
M02*
