M48
; DRILL file {KiCad (6.0.8)} date Mon Oct 24 21:08:13 2022
; FORMAT={-:-/ absolute / inch / decimal}
; #@! TF.CreationDate,2022-10-24T21:08:13+02:00
; #@! TF.GenerationSoftware,Kicad,Pcbnew,(6.0.8)
; #@! TF.FileFunction,Plated,1,2,PTH
FMAT,2
INCH
; #@! TA.AperFunction,Plated,PTH,ViaDrill
T1C0.0157
; #@! TA.AperFunction,Plated,PTH,ComponentDrill
T2C0.0236
; #@! TA.AperFunction,Plated,PTH,ComponentDrill
T3C0.0394
; #@! TA.AperFunction,Plated,PTH,ComponentDrill
T4C0.0579
; #@! TA.AperFunction,Plated,PTH,ComponentDrill
T5C0.0600
%
G90
G05
T1
X1.9035Y-4.7192
X2.1351Y-4.7957
X4.8342Y-5.1145
X4.8589Y-5.0839
X4.8845Y-5.054
X4.905Y-5.0204
X4.93Y-4.99
X4.9558Y-4.96
X4.97Y-5.21
X4.9943Y-4.5243
X4.995Y-4.72
X5.03Y-4.68
X5.12Y-4.525
X5.1452Y-5.1352
X5.15Y-4.87
X5.1547Y-5.283
X5.17Y-4.72
X5.175Y-4.775
X5.1832Y-5.2559
X5.2134Y-5.2812
X5.2461Y-5.2593
X5.2775Y-4.9975
X5.28Y-4.525
X5.28Y-5.28
X5.3127Y-5.2582
X5.3141Y-4.7764
X5.3427Y-5.2327
X5.3479Y-5.1934
X5.39Y-4.72
X5.4263Y-5.2173
X5.43Y-4.68
X5.48Y-4.525
X5.4811Y-4.7654
X5.485Y-3.775
X5.4907Y-5.18
X5.5181Y-5.1518
X5.5452Y-4.7852
X5.5487Y-5.127
X5.73Y-4.855
X5.91Y-3.775
X6.2Y-3.025
X6.32Y-2.505
X6.4224Y-2.2426
X6.4777Y-3.025
X6.525Y-2.365
X6.54Y-3.775
X6.615Y-2.295
X6.695Y-1.82
X6.927Y-2.303
X6.9565Y-2.2728
X6.985Y-2.245
X7.045Y-1.82
X7.1589Y-1.7286
X12.48Y-3.385
X12.605Y-3.385
T3
X6.025Y-4.9205
X6.025Y-5.0205
X6.025Y-5.1205
X6.125Y-4.9205
X6.125Y-5.0205
X6.125Y-5.1205
T4
X1.8187Y-2.6812
X1.8187Y-4.9312
X3.6938Y-4.9312
X10.0687Y-4.9312
X11.9437Y-4.9312
X12.2438Y-2.8813
T5
X1.6312Y-1.9312
X1.725Y-3.4312
X1.725Y-4.1812
X1.8812Y-1.8313
X1.9125Y-3.4312
X1.975Y-3.3312
X1.975Y-4.0812
X2.0688Y-2.5812
X2.0688Y-4.8312
X2.1Y-4.1812
X2.1625Y-3.3312
X2.35Y-4.0812
X2.3813Y-1.9312
X2.5688Y-4.1812
X2.6313Y-1.8313
X2.7563Y-2.6812
X2.7563Y-4.9312
X2.8188Y-4.0812
X2.9438Y-3.4312
X3.0063Y-2.5812
X3.0063Y-4.8312
X3.1313Y-1.9312
X3.1938Y-3.3312
X3.3188Y-4.1812
X3.3813Y-1.8313
X3.5063Y-2.6812
X3.5688Y-4.0812
X3.6938Y-3.4312
X3.7563Y-2.5812
X3.8813Y-1.9312
X3.9438Y-3.3312
X3.9438Y-4.8312
X4.0687Y-4.1812
X4.1312Y-1.8313
X4.2562Y-2.6812
X4.3187Y-4.0812
X4.4437Y-3.4312
X4.5062Y-2.5812
X4.6312Y-1.9312
X4.6937Y-3.3312
X4.8187Y-4.1812
X4.8812Y-1.8313
X5.0062Y-2.6812
X5.0687Y-4.0812
X5.1937Y-3.4312
X5.2562Y-2.5812
X5.3812Y-1.9312
X5.4437Y-3.3312
X5.5687Y-4.1812
X5.6312Y-1.8313
X5.7562Y-2.6812
X5.8187Y-4.0812
X5.9437Y-3.4312
X6.0062Y-2.5812
X6.1312Y-1.9312
X6.1937Y-3.3312
X6.3187Y-4.1812
X6.3812Y-1.8313
X6.5062Y-2.6812
X6.5687Y-4.0812
X6.6937Y-3.4312
X6.7562Y-2.5812
X6.8812Y-1.9312
X6.8812Y-4.9312
X6.9437Y-3.3312
X7.0687Y-4.1812
X7.1312Y-1.8313
X7.1312Y-4.8312
X7.2562Y-2.6812
X7.3187Y-4.0812
X7.4437Y-3.4312
X7.5062Y-2.5812
X7.6312Y-1.9312
X7.6937Y-3.3312
X7.8187Y-4.1812
X7.8812Y-1.8313
X8.0062Y-2.6812
X8.0687Y-4.0812
X8.1937Y-3.4312
X8.2562Y-2.5812
X8.3812Y-1.9312
X8.4437Y-3.3312
X8.5687Y-4.1812
X8.6312Y-1.8313
X8.7562Y-2.6812
X8.8187Y-4.0812
X8.9437Y-3.4312
X9.0062Y-2.5812
X9.1312Y-1.9312
X9.1937Y-3.3312
X9.3187Y-4.1812
X9.3812Y-1.8313
X9.5062Y-2.6812
X9.5687Y-4.0812
X9.6937Y-3.4312
X9.7562Y-2.5812
X9.8812Y-1.9312
X9.9437Y-3.3312
X10.0687Y-4.1812
X10.1312Y-1.8313
X10.2562Y-2.6812
X10.3187Y-4.0812
X10.3187Y-4.8312
X10.4437Y-3.4312
X10.5062Y-2.5812
X10.6312Y-1.9312
X10.6937Y-3.3312
X10.8812Y-1.8313
X11.0062Y-2.6812
X11.0062Y-4.9312
X11.1Y-4.1812
X11.1937Y-3.4312
X11.2562Y-2.5812
X11.2562Y-4.8312
X11.35Y-4.0812
X11.3812Y-1.9312
X11.4437Y-3.3312
X11.475Y-4.1812
X11.6312Y-1.8313
X11.6625Y-3.4312
X11.725Y-4.0812
X11.7562Y-1.9312
X11.9125Y-3.3312
X11.9938Y-2.9812
X12.0062Y-1.8313
X12.1312Y-1.9312
X12.1312Y-4.1812
X12.1937Y-4.8312
X12.2875Y-3.0063
X12.3812Y-1.8313
X12.3812Y-4.0812
X12.3875Y-3.2563
T2
G00X6.8612Y-1.4469
M15
G01X6.8612Y-1.4705
M16
G05
G00X6.8612Y-1.6016
M15
G01X6.8612Y-1.6449
M16
G05
G00X7.2013Y-1.4469
M15
G01X7.2013Y-1.4705
M16
G05
G00X7.2013Y-1.6016
M15
G01X7.2013Y-1.6449
M16
G05
T0
M30
